<svg xmlns="http://www.w3.org/2000/svg" xmlns:xlink="http://www.w3.org/1999/xlink"
  viewBox="304.1600036621094 12.609999656677246 159.89987182617188 141.4600067138672">
  <defs>
    <style>
      .cls-1 {
        fill: none;
      }

      .cls-2 {
        isolation: isolate;
      }

      .cls-3 {
        clip-path: url(#clip-path);
      }

      .cls-4 {
        fill: #d85b5b;
      }

      .cls-12,
      .cls-5 {
        fill: #c77477;
      }

      .cls-17,
      .cls-37,
      .cls-5 {
        opacity: 0.25;
      }

      .cls-12,
      .cls-16,
      .cls-17,
      .cls-19,
      .cls-5,
      .cls-8 {
        mix-blend-mode: multiply;
      }

      .cls-22,
      .cls-6,
      .cls-7,
      .cls-9 {
        fill: #fff;
      }

      .cls-6 {
        opacity: 0.2;
      }

      .cls-6,
      .cls-7 {
        mix-blend-mode: overlay;
      }

      .cls-27,
      .cls-7 {
        opacity: 0.35;
      }

      .cls-8 {
        fill: #d81b60;
      }

      .cls-12,
      .cls-21,
      .cls-22,
      .cls-8 {
        opacity: 0.5;
      }

      .cls-10,
      .cls-37 {
        fill: #7986cb;
      }

      .cls-11 {
        fill: url(#linear-gradient);
      }

      .cls-13 {
        fill: #a8273a;
      }

      .cls-14,
      .cls-17 {
        fill: #3949ab;
      }

      .cls-15 {
        fill: #84a2cb;
      }

      .cls-16 {
        fill: #5c6bc0;
        opacity: 0.15;
      }

      .cls-18 {
        fill: #ffd4c7;
      }

      .cls-19 {
        fill: #ffb8b8;
        opacity: 0.4;
      }

      .cls-20 {
        fill: url(#linear-gradient-2);
      }

      .cls-21 {
        fill: #fce2cf;
      }

      .cls-23 {
        fill: url(#linear-gradient-3);
      }

      .cls-24 {
        opacity: 0.3;
      }

      .cls-25 {
        fill: #231f20;
      }

      .cls-26 {
        fill: #6d4c41;
      }

      .cls-28 {
        fill: url(#linear-gradient-4);
      }

      .cls-29 {
        fill: #ff5959;
        opacity: 0.75;
      }

      .cls-30 {
        fill: #26a69a;
      }

      .cls-31 {
        fill: #00796b;
      }

      .cls-32 {
        fill: url(#linear-gradient-5);
      }

      .cls-33 {
        fill: #ffe167;
      }

      .cls-34 {
        fill: #ffd54f;
      }

      .cls-35 {
        fill: #ef5350;
      }

      .cls-36 {
        fill: url(#radial-gradient);
      }
    </style>
    <clipPath id="clip-path">
      <rect class="cls-1" width="500.01" height="166.67"></rect>
    </clipPath>
    <linearGradient id="linear-gradient" x1="355.61" y1="52.76" x2="408.14" y2="52.76" gradientUnits="userSpaceOnUse">
      <stop offset="0" stop-color="#ff7445"></stop>
      <stop offset="0.11" stop-color="#ff7245"></stop>
      <stop offset="1" stop-color="#ff6947"></stop>
    </linearGradient>
    <linearGradient id="linear-gradient-2" x1="402.58" y1="84.75" x2="402.58" y2="135.51"
      gradientUnits="userSpaceOnUse">
      <stop offset="0" stop-color="#ffe1cf"></stop>
      <stop offset="1" stop-color="#fff"></stop>
    </linearGradient>
    <linearGradient id="linear-gradient-3" x1="361.21" y1="84.75" x2="361.21" y2="135.51"
      xlink:href="#linear-gradient-2"></linearGradient>
    <linearGradient id="linear-gradient-4" x1="373.15" y1="106.67" x2="379" y2="106.67" xlink:href="#linear-gradient">
    </linearGradient>
    <linearGradient id="linear-gradient-5" x1="324.09" y1="120.4" x2="337.54" y2="120.4" xlink:href="#linear-gradient">
    </linearGradient>
    <radialGradient id="radial-gradient" cx="413.83" cy="63.77" r="6.75" gradientUnits="userSpaceOnUse">
      <stop offset="0" stop-color="#ffde66"></stop>
      <stop offset="0.42" stop-color="#ffd05f"></stop>
      <stop offset="1" stop-color="#ffb552"></stop>
    </radialGradient>
  </defs>
  <g class="cls-2">
    <g id="Réteg_2" data-name="Réteg 2">
      <g id="Layer_1" data-name="Layer 1">
        <g class="cls-3">
          <!-- <rect class="cls-4" width="500.01" height="166.67" /> -->
          <path class="cls-5"
            d="M448.15,83.33a66.94,66.94,0,0,1-4.07,23,.42.42,0,0,0,0,.1c-.35,1-.74,1.92-1.13,2.86h0c-.15.36-.31.71-.47,1.06l0,.08h0c-.23.52-.47,1-.71,1.54h0l-.27.58a67,67,0,0,1-113.27,11.69c-.29-.38-.56-.77-.85-1.15l-.39-.53h0a66.49,66.49,0,0,1-6-10l-.27-.58h0c-.24-.51-.48-1-.7-1.54h0c-.08-.2-.17-.38-.26-.58l-.25-.57a4.53,4.53,0,0,1-.23-.57c-.14-.35-.28-.7-.41-1.05h0a66.94,66.94,0,0,1,12.58-69.16c.39-.43.79-.87,1.19-1.29s.82-.85,1.23-1.26L335,34.85c.45-.43.91-.86,1.38-1.28A67,67,0,0,1,448.15,83.33Z">
          </path>
          <path class="cls-6"
            d="M381.16,12.61a70.73,70.73,0,1,0,70.73,70.72A70.72,70.72,0,0,0,381.16,12.61Zm0,137.71a67,67,0,1,1,67-67A67,67,0,0,1,381.16,150.32Z">
          </path>
          <path class="cls-7"
            d="M381.16,150.32a67,67,0,0,1-67-66.48c0,.16,0,.33,0,.5a67,67,0,1,0,134,0c0-.17,0-.34,0-.5A67,67,0,0,1,381.16,150.32Z">
          </path>
          <path class="cls-5"
            d="M381.16,17.36a67,67,0,0,1,67,66.48c0-.17,0-.34,0-.51a67,67,0,1,0-134,0c0,.17,0,.34,0,.51A67,67,0,0,1,381.16,17.36Z">
          </path>
          <path class="cls-8"
            d="M419.44,99.66v-1H407.17v1h-.83v.79h13.92v-.79Zm0-2.57v-6H407.17v6h-.83v.79h13.92v-.79Zm-9.65,0h-1.13V94.92a.56.56,0,0,1,.56-.56.57.57,0,0,1,.57.56Zm3,0h-1.13V94.92a.57.57,0,0,1,1.13,0ZM415,97h-1.12V94.92a.56.56,0,0,1,1.12,0Zm3,0h-1.13V94.92a.56.56,0,0,1,.56-.56.57.57,0,0,1,.57.56Zm1.49-7.5v-1H407.17v1h-.83v.78h13.92v-.78Zm0,15.4v-3.75H407.17v3.75h-.83v.79h13.92v-.79Zm-9.65,0h-1.13v-2.11a.57.57,0,0,1,.56-.57.58.58,0,0,1,.57.57Zm3,0h-1.13v-2.11a.57.57,0,1,1,1.13,0Zm2.23,0h-1.12v-2.11a.56.56,0,1,1,1.12,0Zm3,0h-1.13v-2.11a.57.57,0,0,1,.56-.57.58.58,0,0,1,.57.57Zm-56-5.26v-1H349.67v1h-.83v.79h13.92v-.79Zm0-12.69V83.32H349.67V87h-.83v.79h13.92V87Zm-9.65,0h-1.13V84.86a.56.56,0,0,1,.56-.56.57.57,0,0,1,.57.56Zm3,0h-1.13V84.86a.57.57,0,0,1,1.13,0Zm2.23,0h-1.12V84.86a.56.56,0,0,1,1.12,0Zm3,0h-1.13V84.86a.56.56,0,0,1,.56-.56.57.57,0,0,1,.57.56Zm1.49,10.12v-6H349.67v6h-.83v.79h13.92v-.79Zm-9.65,0h-1.13V94.92a.56.56,0,0,1,.56-.56.57.57,0,0,1,.57.56Zm3,0h-1.13V94.92a.57.57,0,0,1,1.13,0Zm2.23,0h-1.12V94.92a.56.56,0,0,1,1.12,0Zm3,0h-1.13V94.92a.56.56,0,0,1,.56-.56.57.57,0,0,1,.57.56Zm1.49-7.5v-1H349.67v1h-.83v.78h13.92v-.78Zm0,15.4v-3.75H349.67v3.75h-.83v.79h13.92v-.79Zm-9.65,0h-1.13v-2.11a.57.57,0,0,1,.56-.57.58.58,0,0,1,.57.57Zm3,0h-1.13v-2.11a.57.57,0,1,1,1.13,0Zm2.23,0h-1.12v-2.11a.56.56,0,1,1,1.12,0Zm3,0h-1.13v-2.11a.57.57,0,0,1,.56-.57.58.58,0,0,1,.57.57Zm59-18V83.32H407.17V87h-.83v.79h13.92V87Zm-9.65,0h-1.13V84.86a.56.56,0,0,1,.56-.56.57.57,0,0,1,.57.56Zm3,0h-1.13V84.86a.57.57,0,0,1,1.13,0ZM415,87h-1.12V84.86a.56.56,0,0,1,1.12,0Zm3,0h-1.13V84.86a.56.56,0,0,1,.56-.56.57.57,0,0,1,.57.56ZM334.87,57.42A1.09,1.09,0,1,0,336,58.5,1.08,1.08,0,0,0,334.87,57.42ZM385,111c-8.57,0-16.1,1.27-20.38,3.2v.8c4.28-1.92,11.81-3.2,20.38-3.2,8,0,15.05,1.1,19.44,2.81v-.81C400.08,112.12,393,111,385,111Zm34.41-9.83H407.17v3.75h-.83v.79h13.92v-.79h-.82Zm-9.65,3.73h-1.13v-2.11a.57.57,0,0,1,.56-.57.58.58,0,0,1,.57.57Zm3,0h-1.13v-2.11a.57.57,0,1,1,1.13,0Zm2.23,0h-1.12v-2.11a.56.56,0,1,1,1.12,0Zm3,0h-1.13v-2.11a.57.57,0,0,1,.56-.57.58.58,0,0,1,.57.57Zm1.49-6.29H407.17v1h-.83v.79h13.92v-.79h-.82Zm0-7.56H407.17v6h-.83v.79h13.92v-.79h-.82Zm-9.65,6h-1.13V94.92a.56.56,0,0,1,.56-.56.57.57,0,0,1,.57.56Zm3,0h-1.13V94.92a.57.57,0,0,1,1.13,0ZM415,97h-1.12V94.92a.56.56,0,0,1,1.12,0Zm3,0h-1.13V94.92a.56.56,0,0,1,.56-.56.57.57,0,0,1,.57.56Zm1.49-8.54H407.17v1h-.83v.78h13.92v-.78h-.82Zm0-1.53V83.32H407.17V87h-.83v.79h13.92V87Zm-9.65,0h-1.13V84.86a.56.56,0,0,1,.56-.56.57.57,0,0,1,.57.56Zm3,0h-1.13V84.86a.57.57,0,0,1,1.13,0ZM415,87h-1.12V84.86a.56.56,0,0,1,1.12,0Zm3,0h-1.13V84.86a.56.56,0,0,1,.56-.56.57.57,0,0,1,.57.56Zm-56,14.22H349.67v3.75h-.83v.79h13.92v-.79h-.82Zm-9.65,3.73h-1.13v-2.11a.57.57,0,0,1,.56-.57.58.58,0,0,1,.57.57Zm3,0h-1.13v-2.11a.57.57,0,1,1,1.13,0Zm2.23,0h-1.12v-2.11a.56.56,0,1,1,1.12,0Zm3,0h-1.13v-2.11a.57.57,0,0,1,.56-.57.58.58,0,0,1,.57.57Zm1.49-6.29H349.67v1h-.83v.79h13.92v-.79h-.82Zm0-7.56H349.67v6h-.83v.79h13.92v-.79h-.82Zm-9.65,6h-1.13V94.92a.56.56,0,0,1,.56-.56.57.57,0,0,1,.57.56Zm3,0h-1.13V94.92a.57.57,0,0,1,1.13,0Zm2.23,0h-1.12V94.92a.56.56,0,0,1,1.12,0Zm3,0h-1.13V94.92a.56.56,0,0,1,.56-.56.57.57,0,0,1,.57.56Zm1.49-8.54H349.67v1h-.83v.78h13.92v-.78h-.82Zm0-5.18H349.67V87h-.83v.79h13.92V87h-.82ZM352.29,87h-1.13V84.86a.56.56,0,0,1,.56-.56.57.57,0,0,1,.57.56Zm3,0h-1.13V84.86a.57.57,0,0,1,1.13,0Zm2.23,0h-1.12V84.86a.56.56,0,0,1,1.12,0Zm3,0h-1.13V84.86a.56.56,0,0,1,.56-.56.57.57,0,0,1,.57.56ZM334.87,57.42A1.09,1.09,0,1,0,336,58.5,1.08,1.08,0,0,0,334.87,57.42Zm85.39,22.93V74.1h1.11V72.91h-1.11v-3.1h.43v-.7h-.43l-1.94-3.89V62.36h.86v-.72h-.86v-1h-.72v1h-.87v.72h.87v2.86l-1.94,3.89h-.05l-1.95-7.18V54.55h.87v-.72h-.87v-1h-.72v1h-.86v.72h.86v7.38L411,69.11H411l-2-3.93V62.36h.87v-.72H409v-1h-.72v1h-.86v.72h.86v2.91l-1.92,3.84h-.49v.7h.49v3.1h-1.1V74.1h1.1v2.6H393.71v-.93a.84.84,0,0,0-1.67,0v.93H384.9v-2a.83.83,0,0,0-1.66,0v2h-7.15v-.93a.84.84,0,0,0-.84-.83.83.83,0,0,0-.83.83v.93H362.76V74.1h1.11V72.91h-1.11v-3.1h.43v-.7h-.43l-1.94-3.89V62.36h.86v-.72h-.86v-1h-.72v1h-.87v.72h.87v2.86l-1.94,3.89h-.05l-1.95-7.18V54.55H357v-.72h-.87v-1h-.72v1h-.86v.72h.86v7.38l-1.94,7.18h-.05l-2-3.93V62.36h.87v-.72h-.87v-1h-.72v1h-.86v.72h.86v2.91l-1.92,3.84h-.49v.7h.49v3.1h-1.1V74.1h1.1v4l-.08,0a45.79,45.79,0,0,1-7,12.76V82.6h1V81.3h-1V79.52h1v-1.3h-1V70.34h.3a.72.72,0,0,0,.72-.72V68h1.52V49h-2.56V44.88a.72.72,0,0,0-.72-.72H339.7l-1.7-3.9V36.62l-1.67-3c-.47.42-.93.85-1.38,1.28L333.78,36q-.61.61-1.23,1.26c-.4.42-.8.86-1.19,1.29v1.71l-1.7,3.9h-1a.72.72,0,0,0-.72.72V49H325.4V68h1.52v1.65a.72.72,0,0,0,.72.72h.3v7.88h-1v1.3h1V81.3h-1v1.3h1v9.52h-1v1.3h1V95.2h-1v1.3h1v6.55a69.48,69.48,0,0,1-9.16,4.66c.13.35.27.7.41,1.05.88-.38,1.76-.75,2.61-1.15v1.72h-2.38l.25.57c.09.2.18.38.26.58h8v.79h-1V112h-6.29l.27.58h6v10c.37.51.74,1,1.13,1.51l.11.17a67,67,0,0,0,14.66,14V112.6H347v5.67h17.65v-7.79h39.82v1.18h0v6.61h17.63V112.6h19.3l.27-.58H422.13v-1.54H442.4c.17-.39.35-.76.51-1.15h0v-3.44c.37.2.76.38,1.14.58a.42.42,0,0,1,0-.1c.11-.32.21-.64.32-1C432.79,99.45,424.69,91.06,420.26,80.35Zm-95,29h-2.78v-2c.94-.46,1.87-.93,2.78-1.41Zm2.69-2.15h-1v1.31h1v.84h-2v-3.8c.69-.38,1.35-.78,2-1.17Zm8.45-54.49a5.91,5.91,0,0,1,1.87.86l-1,1.45a4.45,4.45,0,0,0-1.33-.6Zm2.72,5.81a4.14,4.14,0,0,0-.26-1.45l1.66-.6a5.94,5.94,0,0,1,.37,2Zm1.71.83a6.17,6.17,0,0,1-.63,2l-1.56-.82a4.29,4.29,0,0,0,.44-1.38Zm-2.2-2.81a4.21,4.21,0,0,0-.9-1.15l1.19-1.3a6.07,6.07,0,0,1,1.27,1.62Zm-7.1,2a3.35,3.35,0,1,1,3.35,3.35A3.35,3.35,0,0,1,331.52,58.5Zm3.28,4.24,0,1.77a6.15,6.15,0,0,1-2-.39l.62-1.65A4.27,4.27,0,0,0,334.8,62.74ZM330.65,59l-1.76.18q0-.3,0-.63a6.07,6.07,0,0,1,.18-1.42l1.71.41a4.24,4.24,0,0,0-.13,1A3.4,3.4,0,0,0,330.65,59Zm.1.57a4.25,4.25,0,0,0,.59,1.34l-1.47,1A6,6,0,0,1,329,60Zm.18-2.58-1.64-.65a6,6,0,0,1,1.08-1.76l1.32,1.17A4.14,4.14,0,0,0,330.93,56.94Zm3.94-4.45a5.36,5.36,0,0,1,.7,0l-.2,1.75a4.19,4.19,0,0,0-.5,0,4.35,4.35,0,0,0-1,.11l-.39-1.72A5.94,5.94,0,0,1,334.87,52.49Zm-2.15.4.64,1.65a4,4,0,0,0-1.25.75L331,54A6,6,0,0,1,332.72,52.89ZM328,51.59h3.28A7.86,7.86,0,0,0,328,54.87Zm0,13.82V62.14a7.84,7.84,0,0,0,3.28,3.27Zm3.38,45.86h-1.71v-.79h1.71Zm0-1.94h-1.71v-.84h1.71Zm0-2.15h-1.71v-3.87c.58-.37,1.15-.76,1.71-1.15Zm0-6.37q-.84.6-1.71,1.17V96.5h1.71Zm0-5.61h-1.71V93.42h1.71Zm0-3.08h-1.71V82.6h1.71Zm0-10.82h-1.71V79.52h1.71Zm0-3.08h-1.71V70.34h1.71Zm-1-15.73,1.32-1.17a4.57,4.57,0,0,0,1.14.91L332,63.78A6.31,6.31,0,0,1,330.38,62.49Zm3,48.78h-1.19v-.79h1.19Zm0-1.94h-.59v-.84h.59Zm0-2.15h-.59v-6.05c.21-.15.39-.32.59-.47Zm0-7.93-1.19.92V96.5h1.19Zm0-4h-1.19V93.42h1.19Zm0-3.08h-1.19V82.6h1.19Zm0-10.82h-1.19V79.52h1.19Zm0-3.08h-1.19V70.34h1.19Zm2.07,33.05h-1.2v-.79h1.2Zm0-1.94h-1.2v-.84h1.2Zm0-2.15h-1.2V100c.4-.31.81-.62,1.2-.94Zm0-9.64c-.4.34-.79.69-1.2,1V96.5h1.2Zm0-2.34h-1.2V93.42h1.2Zm0-3.08h-1.2V82.6h1.2Zm0-10.82h-1.2V79.52h1.2Zm0-3.08h-1.2V70.34h1.2Zm2.06,33.05h-1.19v-.79h1.19Zm0-1.94h-1.19v-.84h1.19Zm0-2.15h-1.19v-8.9c.4-.35.8-.72,1.19-1.08Zm-1.19-10.4V96.5h.29Zm1.19-1.58h-1.19V93.42h1.19Zm0-3.08h-1.19V82.6h1.19Zm0-10.82h-1.19V79.52h1.19Zm0-3.08h-1.19V70.34h1.19ZM335.6,64.46l-.21-1.75a4.4,4.4,0,0,0,1.39-.42l.79,1.57A5.79,5.79,0,0,1,335.6,64.46ZM337.28,62a4.38,4.38,0,0,0,1-1l1.43,1a5.92,5.92,0,0,1-1.47,1.44Zm1.12,45.19V96.5H339v10.68Zm.64,1.31v.84h-.64v-.84Zm-.64-13.71V93.42h1.24C339.23,93.88,338.83,94.34,338.4,94.78Zm1.71,16.49H338.4v-.79h1.71Zm0-1.94h-.4v-.84h.4Zm0-2.15h-.4V96.5h.4Zm0-12h-.4V95l.4-.45Zm0-3.08H338.4V82.6h1.71Zm0-10.82H338.4V79.52h1.71Zm0-3.08H338.4V70.34h1.71Zm1.67-12.81H338.5a7.84,7.84,0,0,0,3.28-3.27Zm0-10.54a7.86,7.86,0,0,0-3.28-3.28h3.28Zm73.09,15.38h.79v2.66h-.79Zm0,3.85h.79v3h-.79Zm-1.32-3.85h.82v2.66h-.82Zm0,3.85h.82v3h-.82Zm-1.32-3.85h.82v2.66h-.82Zm0,3.85h.82v3h-.82ZM411,70.25h.79v2.66H411Zm0,3.85h.79v3H411Zm-17.24,3.27h12.63v.73H393.71Zm0,1.4h12.63v2.36H393.71Zm-7.15-1.4H392v.73h-5.48Zm0,1.4H392v2.36h-5.48Zm-1.66-1.4h1v.73h-1Zm0,1.4h1v2.36h-1Zm-2.76-1.4h1.1v.73h-1.1Zm0,1.4h1.1v2.36h-1.1Zm-6.05-1.4h5.36v.73h-5.36Zm0,1.4h5.36v2.36h-5.36Zm-13.33-1.4h11.66v.73H362.76Zm0,1.4h11.66v2.36H362.76Zm-5.39-8.52h.79v2.66h-.79Zm0,3.85h.79v3h-.79Zm-1.32-3.85h.82v2.66h-.82Zm0,3.85h.82v3h-.82Zm-1.32-3.85h.83v2.66h-.83Zm0,3.85h.83v3h-.83Zm-1.28-3.85h.79v2.66h-.79Zm0,3.85h.79v3h-.79Zm-11,17.69v.33h-.27Zm-.69,1.63h.69V95.2h-.69Zm0,3.08h.69v10.68h-.69Zm0,12h.69v.84h-.69ZM347,112h-4.18v-.75h-1v-.79H347Zm78-2.69h-5.54v-2.86H407.17v2.86H361.94v-2.86H349.67v2.86h-6.51V90.91a46.25,46.25,0,0,0,5.68-10v1.68h71.21A46.38,46.38,0,0,0,425,90.91Zm3.45,0h-2.78V91.79c.88,1.11,1.8,2.19,2.78,3.23Zm3.45,0H429.1V95.72c.89.9,1.81,1.78,2.78,2.63Zm3.45,0h-2.78V98.93c.89.75,1.82,1.49,2.78,2.2Zm3.45,0H436v-7.71c.9.64,1.83,1.27,2.78,1.87Zm3.45,0h-2.78v-5.42c.9.56,1.83,1.1,2.78,1.62Zm-22.79-8.14H407.17v3.75h-.83v.79h13.92v-.79h-.82Zm-9.65,3.73h-1.13v-2.11a.57.57,0,0,1,.56-.57.58.58,0,0,1,.57.57Zm3,0h-1.13v-2.11a.57.57,0,1,1,1.13,0Zm2.23,0h-1.12v-2.11a.56.56,0,1,1,1.12,0Zm3,0h-1.13v-2.11a.57.57,0,0,1,.56-.57.58.58,0,0,1,.57.57Zm1.49-6.29H407.17v1h-.83v.79h13.92v-.79h-.82Zm0-7.56H407.17v6h-.83v.79h13.92v-.79h-.82Zm-9.65,6h-1.13V94.92a.56.56,0,0,1,.56-.56.57.57,0,0,1,.57.56Zm3,0h-1.13V94.92a.57.57,0,0,1,1.13,0ZM415,97h-1.12V94.92a.56.56,0,0,1,1.12,0Zm3,0h-1.13V94.92a.56.56,0,0,1,.56-.56.57.57,0,0,1,.57.56Zm1.49-8.54H407.17v1h-.83v.78h13.92v-.78h-.82Zm0-5.18H407.17V87h-.83v.79h13.92V87h-.82ZM409.79,87h-1.13V84.86a.56.56,0,0,1,.56-.56.57.57,0,0,1,.57.56Zm3,0h-1.13V84.86a.57.57,0,0,1,1.13,0ZM415,87h-1.12V84.86a.56.56,0,0,1,1.12,0Zm3,0h-1.13V84.86a.56.56,0,0,1,.56-.56.57.57,0,0,1,.57.56Zm-56,14.22H349.67v3.75h-.83v.79h13.92v-.79h-.82Zm-9.65,3.73h-1.13v-2.11a.57.57,0,0,1,.56-.57.58.58,0,0,1,.57.57Zm3,0h-1.13v-2.11a.57.57,0,1,1,1.13,0Zm2.23,0h-1.12v-2.11a.56.56,0,1,1,1.12,0Zm3,0h-1.13v-2.11a.57.57,0,0,1,.56-.57.58.58,0,0,1,.57.57Zm1.49-6.29H349.67v1h-.83v.79h13.92v-.79h-.82Zm0-7.56H349.67v6h-.83v.79h13.92v-.79h-.82Zm-9.65,6h-1.13V94.92a.56.56,0,0,1,.56-.56.57.57,0,0,1,.57.56Zm3,0h-1.13V94.92a.57.57,0,0,1,1.13,0Zm2.23,0h-1.12V94.92a.56.56,0,0,1,1.12,0Zm3,0h-1.13V94.92a.56.56,0,0,1,.56-.56.57.57,0,0,1,.57.56Zm1.49-8.54H349.67v1h-.83v.78h13.92v-.78h-.82Zm0-5.18H349.67V87h-.83v.79h13.92V87h-.82ZM352.29,87h-1.13V84.86a.56.56,0,0,1,.56-.56.57.57,0,0,1,.57.56Zm3,0h-1.13V84.86a.57.57,0,0,1,1.13,0Zm2.23,0h-1.12V84.86a.56.56,0,0,1,1.12,0Zm3,0h-1.13V84.86a.56.56,0,0,1,.56-.56.57.57,0,0,1,.57.56ZM336,58.5a1.09,1.09,0,0,0-2.17,0,1.09,1.09,0,1,0,2.17,0Z">
          </path>
          <rect class="cls-9" x="352.83" y="30.25" width="58.09" height="45.02"></rect>
          <path class="cls-10"
            d="M376.58,44.94V32.83H359.79Zm-21,13.1v9.63L369,58Zm31.55-25.21V44.94L404,32.83Zm-31.55,5v9.63H369Zm21,34.84V60.58l-16.79,12.1Zm10.58,0H404l-16.79-12.1Zm7.61-25.21h13.37V37.84Zm13.37,20.2V58H394.77Z">
          </path>
          <path class="cls-11"
            d="M355.61,70.16v2.52h.73L377.39,57.5v-.26h-3.84Zm29.53-37.33H378.6V49.49h-23V56h23V72.68h6.54V56h23V49.49h-23Zm1.21,24.41v.26l21.06,15.18h.73V70.16L390.2,57.24Zm-9-9V48L356.34,32.83h-.73v2.52l17.94,12.93Zm30-15.45L386.35,48v.27h3.85l17.94-12.93V32.83Z">
          </path>
          <rect class="cls-12" x="340.5" y="142.01" width="82.74" height="8.3"></rect>
          <path class="cls-13"
            d="M377.51,87.47a14.86,14.86,0,0,1,3,1.14c-.1-2.3-.49-4.64-1.79-4.82a6.41,6.41,0,0,0-1.65.11l-.87.22h0a.6.6,0,0,1,.38.13C377.14,84.76,377.4,86.05,377.51,87.47Z">
          </path>
          <rect class="cls-14" x="339.01" y="89.77" width="39.45" height="55.15"></rect>
          <rect class="cls-15" x="339.01" y="88.83" width="39.45" height="55.15"></rect>
          <polygon class="cls-10" points="378.46 143.97 339.48 143.5 339.01 88.83 378.46 88.83 378.46 143.97"></polygon>
          <polygon class="cls-16" points="378.46 143.97 342.66 143.5 340.5 142.01 378.46 141.07 378.46 143.97">
          </polygon>
          <rect class="cls-10" x="378.46" y="139.78" width="3.42" height="5.14"></rect>
          <path class="cls-16" d="M378.46,143.77a6.19,6.19,0,0,1,3.41-.68v-3.31h-3.41Z"></path>
          <path class="cls-17" d="M378.46,142.61a6.26,6.26,0,0,1,3.41-.69v-3.3h-3.41Z"></path>
          <path class="cls-14" d="M381.87,145.39a17.6,17.6,0,0,1-3.41-.47V144a11.67,11.67,0,0,0,3.41.47Z"></path>
          <rect class="cls-14" x="385.29" y="89.77" width="39.45" height="55.15"></rect>
          <rect class="cls-10" x="385.29" y="88.83" width="39.45" height="55.15"></rect>
          <rect class="cls-16" x="385.29" y="88.83" width="39.45" height="55.15"></rect>
          <rect class="cls-10" x="381.87" y="139.78" width="3.42" height="5.14"></rect>
          <path class="cls-16" d="M385.29,143.77a6.23,6.23,0,0,0-3.42-.68v-3.31h3.42Z"></path>
          <path class="cls-17" d="M385.29,142.61a6.3,6.3,0,0,0-3.42-.69v-3.3h3.42Z"></path>
          <path class="cls-14" d="M381.87,145.39a17.76,17.76,0,0,0,3.42-.47V144a11.71,11.71,0,0,1-3.42.47Z"></path>
          <path class="cls-18" d="M381.89,130.12v11c2,0,3.56.41,3.56.92h37.83V130.12Z"></path>
          <path class="cls-19"
            d="M387.17,139.4c-1.85,0-4.2.16-5.28,1.21v.52h0c.62-.93,2.32-1.37,5.25-1.37h31.22a23.2,23.2,0,0,0,4.89-.35v-.36a23.15,23.15,0,0,1-4.89.35Z">
          </path>
          <path class="cls-19"
            d="M387.17,140.24c-1.65,0-3.69.12-4.88.89l.68,0a11.21,11.21,0,0,1,4.2-.58h31.22a48.86,48.86,0,0,0,4.89-.17v-.36a46.16,46.16,0,0,1-4.89.18Z">
          </path>
          <path class="cls-19"
            d="M384.07,141.32a5.05,5.05,0,0,1,.81.23,19.22,19.22,0,0,1,2.29-.12h36.11v-.36H387.17A16.34,16.34,0,0,0,384.07,141.32Z">
          </path>
          <path class="cls-19"
            d="M418.39,136.07H387.17c-1.85,0-4.2.15-5.28,1.2v.56c.59-1,2.3-1.41,5.28-1.41h31.22c1.55,0,3.8,0,4.89-.88V135C422.45,136.06,419.92,136.07,418.39,136.07Z">
          </path>
          <path class="cls-19"
            d="M387.17,136.9c-1.85,0-4.2.15-5.28,1.21v.56c.59-1,2.3-1.41,5.28-1.41h31.22c1.58,0,3.7,0,4.89-.78V136c-1,.86-3.34.86-4.89.86Z">
          </path>
          <path class="cls-19"
            d="M387.17,137.74c-1.85,0-4.2.15-5.28,1.2v.56c.59-1,2.3-1.41,5.28-1.41h31.22a12,12,0,0,0,4.89-.66V137c-1.23.69-3.25.7-4.89.7Z">
          </path>
          <path class="cls-19"
            d="M387.17,138.57c-1.85,0-4.2.15-5.28,1.21v.56c.59-1,2.3-1.41,5.28-1.41h31.22a15.84,15.84,0,0,0,4.89-.51V138a14.8,14.8,0,0,1-4.89.53Z">
          </path>
          <path class="cls-20"
            d="M417.27,84.41H387.5c-3.11,0-5.63,1.52-5.63,3.4l0,49.53c.23-1.75,2.65-2.19,5.61-2.19h30.75c1.7,0,4.23,0,5-1.18V83.23C422.06,84.47,419,84.41,417.27,84.41Z">
          </path>
          <path class="cls-21" d="M381.87,87.78l0,49.56,3.21-52.6C383.2,85.28,381.89,86.44,381.87,87.78Z"></path>
          <path class="cls-22" d="M408.06,84.41h9.17c1.7,0,4.79.06,6-1.18V134l-1.76-47.82Z"></path>
          <path class="cls-18" d="M381.89,130.12v11c-2,0-3.56.41-3.56.92H340.5V130.12Z"></path>
          <path class="cls-19"
            d="M376.61,139.4c1.86,0,4.2.16,5.28,1.21v.52h0c-.62-.93-2.31-1.37-5.25-1.37H345.4a23.34,23.34,0,0,1-4.9-.35v-.36a23.2,23.2,0,0,0,4.9.35Z">
          </path>
          <path class="cls-19"
            d="M376.61,140.24c1.65,0,3.69.12,4.88.89l-.67,0a11.27,11.27,0,0,0-4.21-.58H345.4c-1.64,0-3.07,0-4.9-.17v-.36a46.34,46.34,0,0,0,4.9.18Z">
          </path>
          <path class="cls-19"
            d="M379.71,141.32a4.91,4.91,0,0,0-.8.23,19.28,19.28,0,0,0-2.3-.12H340.5v-.36h36.11A16.21,16.21,0,0,1,379.71,141.32Z">
          </path>
          <path class="cls-19"
            d="M345.4,136.07h31.21c1.86,0,4.2.15,5.28,1.2v.56c-.59-1-2.29-1.41-5.28-1.41H345.4c-1.55,0-3.8,0-4.9-.88V135C341.34,136.06,343.86,136.07,345.4,136.07Z">
          </path>
          <path class="cls-19"
            d="M376.61,136.9c1.86,0,4.2.15,5.28,1.21v.56c-.59-1-2.29-1.41-5.28-1.41H345.4c-1.59,0-3.71,0-4.9-.78V136c1,.86,3.35.86,4.9.86Z">
          </path>
          <path class="cls-19"
            d="M376.61,137.74c1.86,0,4.2.15,5.28,1.2v.56c-.59-1-2.29-1.41-5.28-1.41H345.4a12,12,0,0,1-4.9-.66V137c1.23.69,3.26.7,4.9.7Z">
          </path>
          <path class="cls-19"
            d="M376.61,138.57c1.86,0,4.2.15,5.28,1.21v.56c-.59-1-2.29-1.41-5.28-1.41H345.4a15.87,15.87,0,0,1-4.9-.51V138a14.89,14.89,0,0,0,4.9.53Z">
          </path>
          <path class="cls-23"
            d="M346.51,84.41h29.78c3.11,0,5.62,1.52,5.62,3.4l0,49.53c-.23-1.75-2.64-2.19-5.6-2.19H345.53c-1.7,0-4.23,0-5-1.18V83.23C341.73,84.47,344.81,84.41,346.51,84.41Z">
          </path>
          <path class="cls-21" d="M355.68,84.41h-9.17c-1.7,0-4.78.06-6-1.18V134l1.77-47.82Z"></path>
          <g class="cls-24">
            <rect class="cls-25" x="387.67" y="88.62" width="30.8" height="0.23"></rect>
            <rect class="cls-25" x="387.67" y="91.19" width="30.8" height="0.23"></rect>
            <rect class="cls-25" x="387.67" y="93.75" width="30.8" height="0.23"></rect>
            <rect class="cls-25" x="387.67" y="96.31" width="30.8" height="0.23"></rect>
            <path class="cls-26" d="M387.67,99h0Z"></path>
            <rect class="cls-25" x="387.67" y="98.89" width="17.34" height="0.21"></rect>
            <path class="cls-26" d="M387.67,101.55h0Z"></path>
            <rect class="cls-25" x="387.67" y="101.45" width="17.34" height="0.21"></rect>
            <path class="cls-26" d="M387.67,104.12h0Z"></path>
            <rect class="cls-25" x="387.67" y="104" width="17.34" height="0.24"></rect>
            <path class="cls-26" d="M387.67,106.68h0Z"></path>
            <rect class="cls-25" x="387.67" y="106.56" width="17.34" height="0.24"></rect>
            <path class="cls-26" d="M387.67,109.24h0Z"></path>
            <rect class="cls-25" x="387.67" y="109.12" width="17.34" height="0.24"></rect>
            <path class="cls-26" d="M387.67,111.8h0Z"></path>
            <rect class="cls-25" x="387.67" y="111.7" width="17.34" height="0.21"></rect>
            <rect class="cls-25" x="387.67" y="114.26" width="30.8" height="0.21"></rect>
            <rect class="cls-25" x="387.67" y="116.81" width="30.8" height="0.24"></rect>
            <rect class="cls-25" x="387.67" y="119.38" width="30.8" height="0.24"></rect>
            <rect class="cls-25" x="387.67" y="121.94" width="30.8" height="0.24"></rect>
            <rect class="cls-25" x="387.67" y="124.51" width="30.8" height="0.21"></rect>
            <rect class="cls-25" x="387.67" y="127.08" width="30.8" height="0.21"></rect>
            <rect class="cls-25" x="387.67" y="129.64" width="30.8" height="0.21"></rect>
            <rect class="cls-10" x="405.78" y="98.01" width="12.32" height="15.39"></rect>
          </g>
          <g class="cls-27">
            <rect class="cls-25" x="359.48" y="88.51" width="16.91" height="0.47"></rect>
            <rect class="cls-25" x="359.48" y="91.07" width="16.91" height="0.47"></rect>
            <rect class="cls-25" x="359.48" y="93.63" width="16.91" height="0.47"></rect>
            <rect class="cls-25" x="359.48" y="96.19" width="16.91" height="0.47"></rect>
            <rect class="cls-25" x="359.48" y="98.78" width="16.91" height="0.42"></rect>
            <rect class="cls-25" x="359.48" y="101.34" width="16.91" height="0.42"></rect>
            <rect class="cls-25" x="345.59" y="103.88" width="30.8" height="0.47"></rect>
            <rect class="cls-25" x="345.59" y="106.44" width="30.8" height="0.47"></rect>
            <rect class="cls-25" x="345.59" y="109.01" width="30.8" height="0.47"></rect>
            <rect class="cls-25" x="345.59" y="111.59" width="30.8" height="0.42"></rect>
            <rect class="cls-25" x="345.59" y="114.16" width="30.8" height="0.42"></rect>
            <rect class="cls-25" x="345.59" y="116.69" width="30.8" height="0.47"></rect>
            <rect class="cls-25" x="345.59" y="119.26" width="11.16" height="0.47"></rect>
            <rect class="cls-25" x="345.59" y="121.82" width="11.16" height="0.47"></rect>
            <rect class="cls-25" x="345.59" y="124.41" width="11.16" height="0.42"></rect>
            <rect class="cls-25" x="345.59" y="126.97" width="11.16" height="0.42"></rect>
            <rect class="cls-25" x="345.59" y="129.53" width="11.16" height="0.42"></rect>
            <rect class="cls-10" x="357.54" y="119.56" width="18.99" height="10.26"></rect>
            <rect class="cls-10" x="345.74" y="88.77" width="12.32" height="12.83"></rect>
          </g>
          <path class="cls-21"
            d="M375.19,113.79v.28c0,5.91,0,10.18,1.55,15.76l.89-2,2,1.51c-1.47-5.32-1.47-9.27-1.47-15.25v-.28a60.72,60.72,0,0,1,.26-6.22,45.6,45.6,0,0,0,.22-4.57c0-2.42-.15-4.45-.28-6.41-.12-1.66-.23-3.22-.23-4.8,0-.37,0-.76,0-1.16a22.46,22.46,0,0,1,.95-5.77,8.4,8.4,0,0,0-2.78-.45H376a20.36,20.36,0,0,0-.83,6.19c0,.42,0,.81,0,1.19,0,1.64.11,3.24.23,4.93.13,1.93.27,3.93.27,6.28a42.93,42.93,0,0,1-.21,4.4C375.34,108.84,375.19,110.48,375.19,113.79Z">
          </path>
          <path class="cls-28"
            d="M379,83.87h0c-.28-.08-.57-.16-.86-.22a7,7,0,0,0-1.65-.12c-1.75.25-1.86,4.41-1.82,7.11,0,.4,0,.79,0,1.16,0,1.58-.11,3.14-.22,4.8-.14,2-.28,4-.28,6.41,0,2.11.1,3.3.21,4.57a59.91,59.91,0,0,1,.27,6.22v.28c0,6,0,9.93-1.48,15.25l2-1.51.9,2c1.54-5.58,1.54-9.85,1.54-15.76v-.28a62.22,62.22,0,0,0-.27-6.39,42.93,42.93,0,0,1-.21-4.4c0-2.35.14-4.35.28-6.28.11-1.69.22-3.29.22-4.93,0-.38,0-.77,0-1.19,0-2.13-.08-5.69,1.05-6.6A.54.54,0,0,1,379,83.87Z">
          </path>
          <path class="cls-29"
            d="M375,85.54a18,18,0,0,0-.36,3.62c1-.28,2-.58,2.95-.83a16.64,16.64,0,0,1,.23-2.54C376.9,85.72,375.94,85.67,375,85.54Zm2.21,20.8c-.07-.9-.12-1.9-.12-3.34,0-1.08,0-2.09.08-3-1-.07-2-.12-2.95-.11,0,1-.07,2-.07,3.15,0,1.78.07,2.91.16,4C375.28,106.74,376.24,106.5,377.21,106.34Zm-2.58,8.15c0,.5,0,1,0,1.44,1,.26,2,.52,2.94.83,0-.73,0-1.47,0-2.25C376.59,114.45,375.61,114.46,374.63,114.49Zm-1,12.8c1.07-.48,2.16-.9,3.24-1.33.14-.8.26-1.59.34-2.38a15.37,15.37,0,0,0-2.86-.85A36.18,36.18,0,0,1,373.65,127.29Z">
          </path>
          <path class="cls-5"
            d="M360.33,124.31l-17.67-2.56C340.6,113.06,331.2,107.41,321,109c-10.61,1.66-18,10.58-16.57,19.92s11.25,15.58,21.86,13.92c8.62-1.35,15.13-7.48,16.49-14.75Z">
          </path>
          <path class="cls-30"
            d="M360,122.67,343,117.42c-.69-8.91-9.11-15.94-19.4-15.94-10.74,0-19.44,7.66-19.44,17.12s8.7,17.13,19.44,17.13c8.72,0,16.1-5.06,18.57-12Z">
          </path>
          <path class="cls-9"
            d="M315.88,115.3l-1.09-1.8-2.67.54-.29,2.08-1.2.24,1.19-7.54,1.24-.25,4,6.49Zm-1.59-2.72-1-1.77c-.07-.12-.18-.3-.32-.56s-.24-.45-.29-.57a11.77,11.77,0,0,1-.12,1.36l-.26,1.95Z">
          </path>
          <path class="cls-9"
            d="M321.2,114.23l-.37-.69h0a2.15,2.15,0,0,1-.64.82,2.55,2.55,0,0,1-.95.37,1.69,1.69,0,0,1-1.3-.17,1.59,1.59,0,0,1-.68-1.1,1.43,1.43,0,0,1,.36-1.36,3.57,3.57,0,0,1,1.75-.83l.91-.21-.06-.28a1.09,1.09,0,0,0-.39-.71.94.94,0,0,0-.78-.1,2.55,2.55,0,0,0-.76.27,5.74,5.74,0,0,0-.66.43l-.52-.73a4.21,4.21,0,0,1,.87-.53,4.3,4.3,0,0,1,.94-.31,2.27,2.27,0,0,1,1.61.13,1.77,1.77,0,0,1,.8,1.27l.71,3.56Zm-1.82-.43a1.41,1.41,0,0,0,.91-.54,1.24,1.24,0,0,0,.17-1l-.09-.46-.67.16a2.45,2.45,0,0,0-1.1.5.82.82,0,0,0-.21.8.67.67,0,0,0,.32.5A.9.9,0,0,0,319.38,113.8Z">
          </path>
          <path class="cls-9"
            d="M313.15,119.52l-.22-.45-.82.17,0,.49-.74.15.31-2.68.9-.18,1.34,2.35Zm-.47-1-.2-.39c0-.08-.09-.2-.16-.33s-.11-.24-.13-.3,0,.16,0,.3,0,.42,0,.83Z">
          </path>
          <path class="cls-9"
            d="M315.29,119.12a.61.61,0,0,1-.27,0,.66.66,0,0,1-.27-.13h0a1,1,0,0,1,.08.25l.16.78-.67.13-.56-2.78.54-.11.15.22h0a.62.62,0,0,1,1-.22,1.24,1.24,0,0,1,.33.69,1.32,1.32,0,0,1,0,.78A.63.63,0,0,1,315.29,119.12Zm-.52-1.44a.23.23,0,0,0-.19.15.84.84,0,0,0,0,.32v0a.78.78,0,0,0,.14.35.23.23,0,0,0,.24.07.2.2,0,0,0,.16-.15.78.78,0,0,0,0-.37,1,1,0,0,0-.13-.35A.21.21,0,0,0,314.77,117.68Z">
          </path>
          <path class="cls-9"
            d="M317.55,118.66a.83.83,0,0,1-.27,0,.82.82,0,0,1-.27-.13h0a1.21,1.21,0,0,1,.08.25l.16.78-.67.14-.56-2.79.54-.11.15.23h0a.61.61,0,0,1,.46-.39.62.62,0,0,1,.56.17,1.24,1.24,0,0,1,.33.7,1.33,1.33,0,0,1,0,.78A.62.62,0,0,1,317.55,118.66Zm-.52-1.44a.23.23,0,0,0-.19.15.85.85,0,0,0,0,.32v.06a.9.9,0,0,0,.14.35.25.25,0,0,0,.24.06.18.18,0,0,0,.16-.14.82.82,0,0,0,0-.38.84.84,0,0,0-.14-.35A.2.2,0,0,0,317,117.22Z">
          </path>
          <path class="cls-9" d="M319.31,118.27l-.67.14-.54-2.67.67-.14Z"></path>
          <path class="cls-9"
            d="M320.72,118a1,1,0,0,1-.81-.11,1,1,0,0,1-.41-.68,1.05,1.05,0,0,1,.09-.8,1.13,1.13,0,0,1,1.38-.32.88.88,0,0,1,.38.61l.06.3-1.2.25a.36.36,0,0,0,.17.23.56.56,0,0,0,.32,0,2,2,0,0,0,.32-.1,1.19,1.19,0,0,0,.3-.18l.1.48a1.59,1.59,0,0,1-.3.18A2.49,2.49,0,0,1,320.72,118Zm-.35-1.55a.35.35,0,0,0-.19.12.33.33,0,0,0,0,.25l.57-.12a.37.37,0,0,0-.12-.21A.28.28,0,0,0,320.37,116.47Z">
          </path>
          <path class="cls-31"
            d="M331.93,111.83a3.15,3.15,0,0,0-1.66,1.14,2.67,2.67,0,0,0-.39,1.08l-.09-.44-.41.08.72,2.4h0l-.05-1.21a3,3,0,0,0,1.47-1.08A3.17,3.17,0,0,0,331.93,111.83Z">
          </path>
          <path class="cls-32"
            d="M332.69,114.18a4.24,4.24,0,0,0-2.59,1.91,4.25,4.25,0,0,0-3.14-.75c-3.17.64-3.64,4.84-1.79,8.08,1.35,2.36,3.63,3.57,5.39,3.21a3.16,3.16,0,0,0,1.51-.77,3.12,3.12,0,0,0,1.69.12c1.76-.35,3.4-2.35,3.72-5C337.93,117.22,335.86,113.54,332.69,114.18Z">
          </path>
          <path class="cls-9"
            d="M326.52,116.57a1,1,0,1,0,1.15.77A1,1,0,0,0,326.52,116.57Zm-.85,2.68a.39.39,0,0,0-.3.46.39.39,0,0,0,.46.3.4.4,0,0,0,.3-.46A.4.4,0,0,0,325.67,119.25Z">
          </path>
          <path class="cls-31"
            d="M319.44,121.78a2.27,2.27,0,0,1,1.42.29,1.88,1.88,0,0,1,.56.61l-.06-.31.3-.06.19,1.79h0l-.3-.81a2.22,2.22,0,0,1-1.29-.31A2.26,2.26,0,0,1,319.44,121.78Z">
          </path>
          <path class="cls-33"
            d="M319.59,123.56a3.05,3.05,0,0,1,2.26.54,3,3,0,0,1,1.88-1.37c2.29-.47,3.78,2.19,3.46,4.87-.24,2-1.42,3.39-2.69,3.65a2.39,2.39,0,0,1-1.22-.09,2.26,2.26,0,0,1-1.09.55c-1.27.26-2.92-.61-3.89-2.31C317,127.06,317.3,124,319.59,123.56Z">
          </path>
          <path class="cls-9"
            d="M319.27,124.45a.71.71,0,1,0,.83.55A.7.7,0,0,0,319.27,124.45Zm-.61,1.94a.28.28,0,0,0-.22.33.28.28,0,0,0,.33.21.28.28,0,1,0-.11-.54Z">
          </path>
          <path class="cls-5"
            d="M454.27,104.74a18.08,18.08,0,0,0-25.13,4.61c-.22.32-.41.66-.6,1l-14.48-2.45,12.35,7.71a18.06,18.06,0,1,0,27.86-10.85Z">
          </path>
          <path class="cls-34"
            d="M452.14,94.6A18.07,18.07,0,0,0,429,105.46c-.13.37-.23.74-.34,1.11l-14.62,1.32,13.91,4.3A18.06,18.06,0,1,0,452.14,94.6Z">
          </path>
          <path class="cls-9"
            d="M447.14,98.5a1.12,1.12,0,0,0-1.07.33,2.54,2.54,0,0,0-.62,1.35c-.23,1.24.13,2,1.08,2.13a2.76,2.76,0,0,0,.86,0c.28,0,.57-.08.86-.14l-.27,1.48a4.53,4.53,0,0,1-1.91,0,2.93,2.93,0,0,1-2.09-1.27,3.55,3.55,0,0,1-.32-2.61,4,4,0,0,1,.7-1.7,2.84,2.84,0,0,1,1.31-1,3.43,3.43,0,0,1,1.76-.1,4.71,4.71,0,0,1,1.92.83l-.79,1.28a6.68,6.68,0,0,0-.67-.41A2.3,2.3,0,0,0,447.14,98.5Z">
          </path>
          <path class="cls-9"
            d="M450.91,104.61a2.52,2.52,0,0,1-1.75-1,3.2,3.2,0,0,1,.77-3.85,2.69,2.69,0,0,1,2.08-.32,3.75,3.75,0,0,1,1.58.69l-.75,1.19a5.63,5.63,0,0,0-.54-.33,2,2,0,0,0-.54-.19.76.76,0,0,0-.71.21,1.65,1.65,0,0,0-.41.88c-.15.81.08,1.27.67,1.38a2.87,2.87,0,0,0,1.55-.17l-.26,1.38A2.88,2.88,0,0,1,450.91,104.61Z">
          </path>
          <path class="cls-9"
            d="M445.32,106.08a.52.52,0,0,0-.46.14,1.16,1.16,0,0,0-.26.57c-.1.53.06.83.46.91a1.45,1.45,0,0,0,.36,0l.37-.06-.12.63a2,2,0,0,1-.81,0,1.27,1.27,0,0,1-.88-.54,1.51,1.51,0,0,1-.14-1.1,1.57,1.57,0,0,1,.3-.72,1.08,1.08,0,0,1,.56-.41,1.4,1.4,0,0,1,.74,0,1.94,1.94,0,0,1,.81.35l-.33.54a2.29,2.29,0,0,0-.29-.18A1,1,0,0,0,445.32,106.08Z">
          </path>
          <path class="cls-9"
            d="M447.53,108.75l-.09-.31h0a1,1,0,0,1-.35.19,1,1,0,0,1-.41,0,.6.6,0,0,1-.44-.26.7.7,0,0,1-.08-.54.6.6,0,0,1,.33-.47,1.35,1.35,0,0,1,.72-.06l.36.06v0a.23.23,0,0,0-.21-.31,1.58,1.58,0,0,0-.62,0l-.12-.53a2,2,0,0,1,1,0,.9.9,0,0,1,.6.32.75.75,0,0,1,.12.6l-.26,1.4Zm-.46-.59a.32.32,0,0,0,.25,0,.26.26,0,0,0,.13-.2l0-.17-.17,0c-.24,0-.38,0-.41.2A.18.18,0,0,0,447.07,108.16Z">
          </path>
          <path class="cls-9"
            d="M449.68,108.58a1.14,1.14,0,0,0,.37,0l-.1.53a1.13,1.13,0,0,1-.3,0l-.32,0a.72.72,0,0,1-.5-.28.8.8,0,0,1-.06-.59l.16-.87-.25,0,.05-.3.37-.17.27-.41.49.09-.08.42.52.1-.1.55-.53-.1-.15.83A.18.18,0,0,0,449.68,108.58Z">
          </path>
          <path id="Evil_Cat" data-name="Evil Cat" class="cls-35"
            d="M440.42,108.52h0Zm-1.54,4.76.76-.38a1.47,1.47,0,0,0,.47-.39,3.12,3.12,0,0,0,.5-1.77,9.09,9.09,0,0,0-.19-2.21h0c-.07-.14-.14-.29-.22-.43a11.77,11.77,0,0,0-3.54,7.26,2.66,2.66,0,0,1,.61-1.1A5.17,5.17,0,0,1,438.88,113.28Zm14.87,5.82a4.87,4.87,0,0,0-.32-1.19,4.43,4.43,0,0,0-.91-1.2,11.72,11.72,0,0,1-.95-1.16,2.16,2.16,0,0,1-.19-1.74,5.48,5.48,0,0,1,.78-1.68,6.36,6.36,0,0,1,.5-.66l.2-.25a18.36,18.36,0,0,0-3.36,4,5.37,5.37,0,0,1-.47.73s.22-.76.17-.77a5.88,5.88,0,0,1-3.22-1.71,5.91,5.91,0,0,1-3.68.31c-.05,0-.17.85-.21.83a5.8,5.8,0,0,1,0-.94,18.28,18.28,0,0,0-1.52-5c0,.11.07.24.09.31a7.19,7.19,0,0,1,.2.8,5.46,5.46,0,0,1,.08,1.85,2.21,2.21,0,0,1-.86,1.53,11.24,11.24,0,0,1-1.33.7,4.55,4.55,0,0,0-1.3.75,5.51,5.51,0,0,0-.76,1,7.64,7.64,0,0,0,2.11,5.9l-1.74.78,1.87-.54a5.37,5.37,0,0,1,1-.24c.07,0-.66.44-.6.49s.35.28.54.42l-1.55.7,1.69-.5a9.68,9.68,0,0,1,1.06-.38c.08,0-.68.52-.61.56.25.14.5.28.77.4l-1.63.74,2-.58a6.62,6.62,0,0,1,1-.35c.08,0-.61.51-.53.54a13.29,13.29,0,0,0,1.84.51,12.24,12.24,0,0,0,2.4.25l1.6,1.3-1.2-1.29c-.06-.07-.58-.63-.5-.63s.91.59,1,.58l.75-.1,1.46,1.18-1.12-1.21c-.05,0-.63-.55-.56-.58s.9.45,1,.43a6.17,6.17,0,0,0,.61-.19l1.58,1.29-1.24-1.34s-.67-.59-.62-.63.89.42,1,.39A7.72,7.72,0,0,0,453.75,119.1Zm-13.11-3.29a4.83,4.83,0,0,1,1.73.73,5.57,5.57,0,0,0,.24,2,10,10,0,0,0,.55-1.32,6.52,6.52,0,0,1,1.17,2.26C441.74,119.12,440.34,117.42,440.64,115.81Zm3.6,6.28-.72-1.13a1.52,1.52,0,0,0,.87.39,1.62,1.62,0,0,0,1,0Zm.92-2.41a6.68,6.68,0,0,1,2-1.62,9.46,9.46,0,0,0,0,1.43,5.62,5.62,0,0,0,1-1.79,4.9,4.9,0,0,1,1.87,0C449.66,119.3,447.7,120.33,445.16,119.68Zm7.87-8.61h0Zm.38-.31-.38.31h0a9.64,9.64,0,0,0-1,2,3.13,3.13,0,0,0-.23,1.83,1.57,1.57,0,0,0,.29.54l.55.65a5,5,0,0,1,1.1,1.52,2.65,2.65,0,0,1,.14,1.25A11.76,11.76,0,0,0,453.41,110.76Z">
          </path>
          <path class="cls-5"
            d="M433.72,69c3.78-7.64-2.14-16.63-13.22-20.09s-23.14-.08-26.92,7.55c-3.34,6.74.88,14.53,9.53,18.65l-11.34,30.4,18-28.2C420,79.41,430.27,76,433.72,69Z">
          </path>
          <path class="cls-9"
            d="M427.72,63c2.71-8.7-4.07-18.56-15.16-22s-22.27.79-25,9.48c-2.4,7.68,2.6,16.25,11.42,20.54l-7.23,34.5,13.89-32.29C415.72,75.19,425.24,71,427.72,63Z">
          </path>
          <path class="cls-35"
            d="M394.58,46.53l2.23.46a4.34,4.34,0,0,1,2.14.91,1.63,1.63,0,0,1,.4,1.57,1.81,1.81,0,0,1-.57,1,1.57,1.57,0,0,1-1.09.35v0a1.9,1.9,0,0,1,1,.82,1.84,1.84,0,0,1,.13,1.27,2,2,0,0,1-1,1.43,3.14,3.14,0,0,1-2.08.17L393,54Zm.38,4.34-.49,2.37,1.3.27a1.94,1.94,0,0,0,1.22,0,1.12,1.12,0,0,0,.59-.85,1,1,0,0,0-.22-1,2.17,2.17,0,0,0-1.16-.54Zm.21-1,1.18.24a2.05,2.05,0,0,0,1.17,0,1,1,0,0,0,.52-.76.83.83,0,0,0-.22-.84,2.48,2.48,0,0,0-1.16-.49l-1.06-.21Z">
          </path>
          <path class="cls-35"
            d="M403.4,50.15a2,2,0,0,1,1.49,1.11,3.47,3.47,0,0,1,.14,2.28,3.53,3.53,0,0,1-1,2,2.23,2.23,0,0,1-3.34-.69h-.08l-.36.62-.9-.18,1.65-8,1.2.25-.39,1.9c0,.14-.08.35-.15.62l-.14.52h0A2,2,0,0,1,403.4,50.15Zm-.52.92a1.27,1.27,0,0,0-1.14.21,2.5,2.5,0,0,0-.62,1.36l0,.08a2.7,2.7,0,0,0,0,1.57,1.24,1.24,0,0,0,1,.68,1.11,1.11,0,0,0,1.08-.3,2.77,2.77,0,0,0,.63-1.4C404.07,52,403.76,51.25,402.88,51.07Z">
          </path>
          <path class="cls-35"
            d="M392.8,55.09l.94.2a1.5,1.5,0,0,1,.78.33.56.56,0,0,1,.16.56.7.7,0,0,1-.19.36.52.52,0,0,1-.35.14v0a.63.63,0,0,1,.32.3.73.73,0,0,1,0,.42.69.69,0,0,1-.39.52,1.31,1.31,0,0,1-.8.06l-1.05-.22Zm.4,1.71-.11.57.25.05c.23,0,.36,0,.4-.21a.23.23,0,0,0-.05-.23.39.39,0,0,0-.24-.12Zm.11-.53.22,0a.37.37,0,0,0,.26,0,.2.2,0,0,0,.12-.17c0-.15-.06-.25-.29-.3l-.21,0Z">
          </path>
          <path class="cls-35"
            d="M395.74,58.54a1.13,1.13,0,0,1-.75-.44,1.09,1.09,0,0,1-.13-.85,1.17,1.17,0,0,1,.44-.75,1,1,0,0,1,.82-.13,1.08,1.08,0,0,1,.68.4,1,1,0,0,1,.11.76l-.07.32-1.29-.27a.35.35,0,0,0,.08.3.49.49,0,0,0,.3.17,1.59,1.59,0,0,0,.36,0,1.88,1.88,0,0,0,.37-.06l-.11.52a1.18,1.18,0,0,1-.37.05A1.92,1.92,0,0,1,395.74,58.54Zm.3-1.67a.31.31,0,0,0-.23,0,.46.46,0,0,0-.15.23l.62.13a.33.33,0,0,0,0-.26A.26.26,0,0,0,396,56.87Z">
          </path>
          <path class="cls-35"
            d="M398.07,59a1.14,1.14,0,0,1-.75-.45,1,1,0,0,1-.13-.85,1.17,1.17,0,0,1,.44-.75,1,1,0,0,1,.82-.13,1.08,1.08,0,0,1,.68.4,1,1,0,0,1,.11.76l-.07.32-1.29-.27a.38.38,0,0,0,.07.3.5.5,0,0,0,.31.17,1.59,1.59,0,0,0,.36,0,1.8,1.8,0,0,0,.37,0l-.11.51a1.18,1.18,0,0,1-.37,0A2.58,2.58,0,0,1,398.07,59Zm.3-1.68a.31.31,0,0,0-.23,0,.44.44,0,0,0-.15.23l.62.13a.33.33,0,0,0,0-.26A.29.29,0,0,0,398.37,57.35Z">
          </path>
          <path class="cls-36"
            d="M421.1,66.69c-1.13,2.81-5.3,3.77-9.31,2.15s-6.35-5.19-5.22-8,5.29-3.76,9.3-2.15S422.22,63.89,421.1,66.69Z">
          </path>
          <path class="cls-31" d="M420.91,63.17a7.1,7.1,0,0,0-1.23-1.85l-3.33,8.28a7.34,7.34,0,0,0,2.17-.49Z"></path>
          <path class="cls-31" d="M412.64,69.14a10.9,10.9,0,0,0,1.81.4l3.82-9.5a10.75,10.75,0,0,0-1.58-1Z"></path>
          <path class="cls-31" d="M415,58.4a10.12,10.12,0,0,0-1.81-.39l-3.82,9.5a10.21,10.21,0,0,0,1.58,1Z"></path>
          <path class="cls-31" d="M406.76,64.37A7.1,7.1,0,0,0,408,66.23L411.31,58a7,7,0,0,0-2.16.49Z"></path>
          <path class="cls-37" d="M417.9,53c-.45,1.78-4.7,5-4.7,5s-2.21-4.88-1.76-6.66A3.33,3.33,0,1,1,417.9,53Z">
          </path>
          <path class="cls-37"
            d="M420.54,54.37c-.81,1.65-5.65,3.94-5.65,3.94s-1.14-5.23-.33-6.88a3.33,3.33,0,0,1,6,2.94Z"></path>
          <path class="cls-31"
            d="M409.67,58.61c.13-.12,3.29-2.88,3.61-3.32a1,1,0,0,0-1.65-1.17c-.31.44-1.9,4.32-2,4.48a3.55,3.55,0,0,0-.64-.34,2.61,2.61,0,0,0-.7-.19c.06-.17,1.61-4.06,1.69-4.6a1,1,0,1,0-2-.3c-.08.55.29,4.72.3,4.89a3.34,3.34,0,1,0,1.35.55Z">
          </path>
          <path class="cls-9" d="M409.48,61.6a.87.87,0,1,1-.48-1.14A.88.88,0,0,1,409.48,61.6Z"></path>
          <path class="cls-9" d="M407.82,60.93a.88.88,0,0,1-1.63-.65.88.88,0,1,1,1.63.65Z"></path>
        </g>
      </g>
    </g>
  </g>
</svg>