<svg xmlns="http://www.w3.org/2000/svg"
  viewBox="1707.2322998046875 -63.273712158203125 1128.5423583984375 1128.5423583984375">
  <defs>
    <style>
      .cls-1 {
        fill: #efc032;
      }

      .cls-2 {
        fill: #fcd77c;
      }

      .cls-3 {
        fill: #f8c100;
      }

      .cls-4 {
        fill: #f9535c;
      }

      .cls-5 {
        fill: #00a3b9;
      }

      .cls-6 {
        fill: #56f4cf;
      }

      .cls-7 {
        fill: #505051;
      }

      .cls-8 {
        fill: #ff5966;
      }

      .cls-9 {
        opacity: 0.8;
      }

      .cls-10,
      .cls-19,
      .cls-20 {
        fill: #fff;
      }

      .cls-11 {
        fill: #eaeaea;
      }

      .cls-12 {
        fill: #f53900;
      }

      .cls-13 {
        fill: #f18300;
      }

      .cls-14,
      .cls-15,
      .cls-16,
      .cls-17,
      .cls-18 {
        fill: #0056af;
      }

      .cls-14 {
        opacity: 0.7;
      }

      .cls-15 {
        opacity: 0.5;
      }

      .cls-16 {
        opacity: 0.3;
      }

      .cls-17,
      .cls-19 {
        opacity: 0.2;
      }

      .cls-20 {
        opacity: 0.1;
      }
    </style>
  </defs>
  <g id="Réteg_2" data-name="Réteg 2">
    <g id="Education_Science" data-name="Education &amp; Science">
      <g id="Physics_Lesson" data-name="Physics Lesson">
        <g id="Background">
          <!-- <rect id="Background_1" data-name="Background 1" class="cls-1" width="3000" height="1002" /> -->
          <circle id="Background_2" data-name="Background 2" class="cls-2" cx="2271.5" cy="501" r="399"
            transform="translate(311.05 1752.93) rotate(-45)"></circle>
        </g>
        <g id="Physics_Lesson-2" data-name="Physics Lesson">
          <g id="Scient2">
            <path class="cls-3"
              d="M2201.39,664c-1.5-131.42,31.27-234.75,74.6-235.24s78.44,102.07,79.93,233.49S2324.64,897,2281.31,897.46,2202.88,795.39,2201.39,664Zm145.86-1.65c-1.53-135-38-225.3-71.16-224.92s-67.57,91.47-66,226.47,38,225.3,71.17,224.92S2348.79,797.32,2347.25,662.32Z">
            </path>
            <path class="cls-4"
              d="M2319.44,728.73c-111.63,69.36-217,94.87-239.86,58.07s46.66-120,158.29-189.34,217-94.87,239.86-58.07S2431.07,659.36,2319.44,728.73Zm-77-123.91c-114.67,71.26-173,149.26-155.5,177.41s113.25,10.4,227.93-60.86,173-149.26,155.5-177.41S2357.12,533.56,2242.44,604.82Z">
            </path>
            <path class="cls-5"
              d="M2313.41,594.08c117.38,59.1,194.07,135.72,174.58,174.43s-126.71,22.71-244.09-36.4-194.07-135.73-174.58-174.43S2196,535,2313.41,594.08ZM2247.8,724.37c120.59,60.73,217.55,69.83,232.45,40.23s-50.15-102.06-170.74-162.78S2092,532,2077.06,561.58,2127.21,663.65,2247.8,724.37Z">
            </path>
            <path class="cls-6" d="M2133.47,709.67A21.67,21.67,0,1,1,2111.8,688,21.67,21.67,0,0,1,2133.47,709.67Z">
            </path>
            <path class="cls-6" d="M2406.12,782a21.67,21.67,0,1,1-21.67-21.67A21.67,21.67,0,0,1,2406.12,782Z"></path>
            <path class="cls-6" d="M2257.62,475.37A21.67,21.67,0,1,1,2236,453.7,21.67,21.67,0,0,1,2257.62,475.37Z">
            </path>
          </g>
          <path class="cls-7"
            d="M1987.28,414.39l-4.86,14.06v68.88c0,40.53-30.67,73.38-68.49,73.38h-17.12c-37.83,0-68.49-32.85-68.49-73.38V427.05l-4.87-12.66-31.56,5.95v87.79A100.87,100.87,0,0,0,1892.76,609H1918a100.87,100.87,0,0,0,100.86-100.87V420.34Z">
          </path>
          <path class="cls-8"
            d="M1987.28,414.39v81.85c0,43.08-32.6,78-72.81,78h-18.21c-40.21,0-72.81-34.93-72.81-78V414.39h-38.72v93.33A107.24,107.24,0,0,0,1892,615h26.81A107.24,107.24,0,0,0,2026,507.72V414.39Z">
          </path>
          <g class="cls-9">
            <rect class="cls-10" x="1784.73" y="414.39" width="38.72" height="22.84"></rect>
            <rect class="cls-10" x="1987.28" y="414.39" width="38.72" height="22.84"></rect>
          </g>
          <rect class="cls-11" x="1802.07" y="375" width="1.55" height="31.77"></rect>
          <rect class="cls-11" x="1780.72" y="377.13" width="1.55" height="31.77"
            transform="translate(41.87 942.47) rotate(-29.97)"></rect>
          <rect class="cls-11" x="1809.44" y="392.24" width="31.77" height="1.55"
            transform="translate(573.04 1777.96) rotate(-60.03)"></rect>
          <rect class="cls-11" x="2002.19" y="374.81" width="1.55" height="31.77"></rect>
          <rect class="cls-11" x="1980.84" y="376.93" width="1.55" height="31.77"
            transform="translate(68.58 1041.98) rotate(-29.96)"></rect>
          <rect class="cls-11" x="2009.55" y="392.05" width="31.77" height="1.55"
            transform="translate(673.71 1951.52) rotate(-60.04)"></rect>
          <g id="Scient1">
            <rect class="cls-3" x="2225.2" y="172.46" width="12.16" height="142.01"
              transform="translate(1417.18 2335.15) rotate(-74.96)"></rect>
            <rect class="cls-3" x="2136.04" y="142.73" width="142.02" height="12.16"
              transform="translate(452 1495.3) rotate(-41.35)"></rect>
            <rect class="cls-3" x="2273.53" y="107.23" width="12.16" height="142.02"
              transform="translate(23.54 550.45) rotate(-13.84)"></rect>
            <path class="cls-12" d="M2148.89,179.78a38.91,38.91,0,1,1-47.67,27.48A38.91,38.91,0,0,1,2148.89,179.78Z">
            </path>
            <path class="cls-12" d="M2307.3,234.2a27.47,27.47,0,1,1-33.65,19.39A27.46,27.46,0,0,1,2307.3,234.2Z"></path>
            <path class="cls-12" d="M2263.63,85.05a22.86,22.86,0,1,1-28,16.15A22.86,22.86,0,0,1,2263.63,85.05Z"></path>
            <rect class="cls-3" x="2387.82" y="232" width="7.56" height="88.24"></rect>
            <rect class="cls-3" x="2440.71" y="202.19" width="7.55" height="88.23"
              transform="translate(887.17 2146.56) rotate(-56.42)"></rect>
            <rect class="cls-3" x="2394.41" y="290.82" width="88.23" height="7.55"
              transform="translate(161.1 1214.67) rotate(-28.89)"></rect>
            <path class="cls-12" d="M2416.53,216.41a24.18,24.18,0,1,1-24.17-24.18A24.17,24.17,0,0,1,2416.53,216.41Z">
            </path>
            <path class="cls-12" d="M2409.42,320.23a17.07,17.07,0,1,1-17.06-17.07A17.06,17.06,0,0,1,2409.42,320.23Z">
            </path>
            <path class="cls-12" d="M2491.87,270a14.21,14.21,0,1,1-14.21-14.2A14.21,14.21,0,0,1,2491.87,270Z"></path>
            <rect class="cls-3" x="2242.07" y="372.04" width="3.99" height="46.6"></rect>
            <rect class="cls-3" x="2270" y="356.31" width="3.99" height="46.6"
              transform="translate(698.28 2061.71) rotate(-56.39)"></rect>
            <rect class="cls-3" x="2245.55" y="403.11" width="46.6" height="3.99"
              transform="translate(86.68 1146.68) rotate(-28.89)"></rect>
            <path class="cls-12" d="M2257.23,363.81A12.77,12.77,0,1,1,2244.46,351,12.77,12.77,0,0,1,2257.23,363.81Z">
            </path>
            <path class="cls-12" d="M2253.47,418.64a9,9,0,1,1-9-9A9,9,0,0,1,2253.47,418.64Z"></path>
            <path class="cls-12" d="M2297,392.11a7.5,7.5,0,1,1-7.5-7.51A7.49,7.49,0,0,1,2297,392.11Z"></path>
          </g>
          <g id="Momentum">
            <polygon class="cls-13"
              points="2729.5 590.54 2624.48 440.23 2535.5 514.3 2533.21 511.54 2625.19 434.97 2729.95 584.93 2794.82 518.02 2797.4 520.52 2729.5 590.54">
            </polygon>
            <rect class="cls-3" x="2528.38" y="310.85" width="11.95" height="297.69"></rect>
            <rect class="cls-3" x="2528.38" y="588.22" width="267.73" height="20.32"></rect>
            <path class="cls-14" d="M2629.24,466.62a13.51,13.51,0,1,1-5.5-18.51A13.66,13.66,0,0,1,2629.24,466.62Z">
            </path>
            <path class="cls-15" d="M2621.74,480.83a13.51,13.51,0,1,1-5.5-18.52A13.66,13.66,0,0,1,2621.74,480.83Z">
            </path>
            <path class="cls-16" d="M2614.43,494.69a13.51,13.51,0,1,1-5.49-18.52A13.67,13.67,0,0,1,2614.43,494.69Z">
            </path>
            <path class="cls-17" d="M2611,501.19a13.51,13.51,0,1,1-5.49-18.52A13.66,13.66,0,0,1,2611,501.19Z"></path>
            <path class="cls-18" d="M2636.78,452.33a13.51,13.51,0,1,1-5.5-18.51A13.66,13.66,0,0,1,2636.78,452.33Z">
            </path>
            <path class="cls-19" d="M2634.31,447.93a3.22,3.22,0,1,1-1.31-4.41A3.25,3.25,0,0,1,2634.31,447.93Z"></path>
            <path class="cls-20"
              d="M2613.13,439.31a13.25,13.25,0,0,0,2.9,2.07,13.64,13.64,0,0,0,18.15-5.49,13.25,13.25,0,0,0-2.9-2.07A13.63,13.63,0,0,0,2613.13,439.31Z">
            </path>
            <path class="cls-14" d="M2709.94,567.23a13.51,13.51,0,1,1,18.61,5.17A13.65,13.65,0,0,1,2709.94,567.23Z">
            </path>
            <path class="cls-15" d="M2701.88,553.33a13.51,13.51,0,1,1,18.61,5.17A13.66,13.66,0,0,1,2701.88,553.33Z">
            </path>
            <path class="cls-16" d="M2694,539.79a13.51,13.51,0,1,1,18.61,5.17A13.67,13.67,0,0,1,2694,539.79Z"></path>
            <path class="cls-17" d="M2690.33,533.43a13.51,13.51,0,1,1,18.61,5.17A13.65,13.65,0,0,1,2690.33,533.43Z">
            </path>
            <path class="cls-18" d="M2718,581.21a13.51,13.51,0,1,1,18.61,5.17A13.67,13.67,0,0,1,2718,581.21Z"></path>
            <path class="cls-19" d="M2723.08,581.45a3.22,3.22,0,1,1,4.44,1.24A3.26,3.26,0,0,1,2723.08,581.45Z"></path>
            <path class="cls-20"
              d="M2741.64,568.08a13.22,13.22,0,0,0-3.3,1.36,13.65,13.65,0,0,0-5,18.3,13.48,13.48,0,0,0,8.28-19.66Z">
            </path>
          </g>
        </g>
      </g>
    </g>
  </g>
</svg>