<svg xmlns="http://www.w3.org/2000/svg"
  viewBox="1428.3804931640625 -52.9383659362793 944.2137451171875 944.2138061523438">
  <defs>
    <style>
      .cls-1 {
        fill: #f3cd3e;
      }

      .cls-2 {
        fill: #f8e07c;
      }

      .cls-3 {
        fill: #494f5b;
      }

      .cls-10,
      .cls-11,
      .cls-12,
      .cls-13,
      .cls-14,
      .cls-16,
      .cls-17,
      .cls-18,
      .cls-19,
      .cls-20,
      .cls-3,
      .cls-4,
      .cls-5,
      .cls-6,
      .cls-7,
      .cls-8,
      .cls-9 {
        fill-rule: evenodd;
      }

      .cls-4 {
        fill: #bbbdbf;
      }

      .cls-5 {
        fill: #363f48;
      }

      .cls-6 {
        fill: #e5e6e7;
      }

      .cls-7 {
        fill: #3dd4e9;
      }

      .cls-8 {
        fill: #7dc983;
      }

      .cls-21,
      .cls-9 {
        fill: #fff;
      }

      .cls-10 {
        fill: #d0d2d4;
      }

      .cls-11 {
        fill: #a6a9ab;
      }

      .cls-12 {
        fill: #fed9b1;
      }

      .cls-13 {
        fill: #feebd6;
      }

      .cls-14 {
        fill: #ef5160;
      }

      .cls-15,
      .cls-16 {
        fill: #fefefe;
      }

      .cls-17 {
        fill: #353f49;
      }

      .cls-18,
      .cls-23 {
        fill: #f77b55;
      }

      .cls-19 {
        fill: #76d0de;
      }

      .cls-20 {
        fill: #ffdb79;
      }

      .cls-22 {
        fill: #bae4e9;
      }

      .cls-24 {
        fill: #808184;
      }

      .cls-25 {
        fill: #08c6a2;
      }

      .cls-26 {
        fill: #fbbe61;
      }
    </style>
  </defs>
  <g id="Réteg_2" data-name="Réteg 2">
    <g id="Sport_Awards" data-name="Sport &amp; Awards">
      <g id="Wiki_Encyclopedia" data-name="Wiki Encyclopedia">
        <g id="Background">
          <!-- <rect id="Background_1" data-name="Background 1" class="cls-1" width="2510" height="838.34" /> -->
          <circle id="Background_2" data-name="Background 2" class="cls-2" cx="1900.49" cy="419.17" r="333.83"
            transform="translate(260.24 1466.62) rotate(-45)"></circle>
        </g>
        <g id="Wiki_Encyclopedia-2" data-name="Wiki Encyclopedia">
          <path class="cls-3"
            d="M1700.88,482h476.27a8.79,8.79,0,0,1,8.77,8.77V667.27a8.79,8.79,0,0,1-8.77,8.77H1700.88a8.77,8.77,0,0,1-8.71-8.77V490.72a8.77,8.77,0,0,1,8.71-8.77Z">
          </path>
          <path class="cls-4"
            d="M1720.13,501h32.07v32.07h-32.07Zm408.09,122.73h32.07v32.07h-32.07Zm-40.79,0h32.07v32.07h-32.07Zm-40.83,0h32.07v32.07H2046.6Zm-244.85,0h236.14v32.07H1801.75Zm-40.79,0H1793v32.07H1761Zm-40.83,0h32.07v32.07h-32.07Zm408.09-40.33h32.07v32.07h-32.07Zm-40.79,0h32.07v32.07h-32.07Zm-81.61,0h72.85v32.07h-72.85Zm-40.84,0h32.07v32.07H1965Zm-40.78,0h32.07v32.07H1924.2Zm-40.84,0h32.07v32.07h-32.07Zm-40.78,0h32.07v32.07h-32.07Zm-40.83,0h32.07v32.07h-32.07Zm-40.79,0H1793v32.07H1761Zm-40.83,0h32.07v32.07h-32.07Zm408.09-41.51h32.07v32.07h-32.07Zm-81.62,0h72.9v32.07h-72.9Zm-40.78,0h32.07v32.07h-32.07Zm-40.84,0h32.07v32.07H1965Zm-40.78,0h32.07v32.07H1924.2Zm-40.84,0h32.07v32.07h-32.07Zm-40.78,0h32.07v32.07h-32.07Zm-40.83,0h32.07v32.07h-32.07Zm-40.79,0H1793v32.07H1761Zm-40.83,0h32.07v32.07h-32.07ZM2128.22,501h32.07v32.07h-32.07Zm-40.79,0h32.07v32.07h-32.07Zm-40.83,0h32.07v32.07H2046.6Zm-40.78,0h32.07v32.07h-32.07ZM1965,501h32.07v32.07H1965Zm-40.78,0h32.07v32.07H1924.2Zm-40.84,0h32.07v32.07h-32.07Zm-40.78,0h32.07v32.07h-32.07Zm-40.83,0h32.07v32.07h-32.07ZM1761,501H1793v32.07H1761Z">
          </path>
          <path class="cls-3"
            d="M1861.06,466.19h141.32c3.66,0,6.77-1.83,6.88-4.05l.28-6.54H1854l.27,6.54c.06,2.22,3.17,4.05,6.83,4.05Z">
          </path>
          <path class="cls-5"
            d="M1859.39,458.54H2004c3.61,0,6-1.61,5.44-3.5L1996.05,411c-.61-1.89-4-3.44-7.6-3.44H1875c-3.56,0-7,1.55-7.55,3.44L1854,455c-.56,1.89,1.88,3.5,5.43,3.5Z">
          </path>
          <path class="cls-3"
            d="M1698.21,181.39h467c11.55,0,19.48,7.66,17.59,17.09l-43.44,217.66c-1.89,9.44-12.87,17.1-24.47,17.1H1748.54c-11.54,0-22.53-7.66-24.42-17.1l-43.5-217.66c-1.88-9.43,6.05-17.09,17.59-17.09Z">
          </path>
          <path class="cls-6"
            d="M1719.8,202.7h423.9c6.54,0,11,6,10,13.37L2128.94,385.8c-1.06,7.32-7.33,13.31-13.87,13.31H1748.43c-6.61,0-12.88-6-13.93-13.31l-24.75-169.73c-1-7.38,3.44-13.37,10-13.37Z">
          </path>
          <path class="cls-4"
            d="M1896.18,414.48h71.08c2.83,0,4.1,2.28,2.88,5.11h0a8.87,8.87,0,0,1-7.38,5.1h-62.08c-2.83,0-6.11-2.27-7.38-5.1h0c-1.22-2.83,0-5.11,2.88-5.11Z">
          </path>
          <path class="cls-5" d="M1684.17,186.61,1700,169h463.35l15.87,17.59c-197.08,5.6-298,5.6-495.09,0Z"></path>
          <path class="cls-7"
            d="M2136.32,309.23c69,0,125.22-56.26,125.22-125.29S2205.28,58.71,2136.32,58.71,2011,115,2011,183.94s56.25,125.29,125.28,125.29Z">
          </path>
          <path class="cls-8"
            d="M2259.44,206.91a124.66,124.66,0,0,1-10.82,32.52h-99.71a16.31,16.31,0,0,1-16.25-16.26h0a16.32,16.32,0,0,1,16.25-16.26Zm-9.88-76.45a124.32,124.32,0,0,1,12,53.48c0,2.06-.05,4.11-.16,6.11a30.5,30.5,0,0,1-11.49,2.22h-83.67a31,31,0,0,1-30.9-30.91h0a31,31,0,0,1,30.9-30.9Zm-230.2,98.48a124.24,124.24,0,0,1-8.27-43.22h40.45a8.92,8.92,0,0,1,8.93,8.93h0a9.12,9.12,0,0,1-.78,3.72h23.08A15.33,15.33,0,0,1,2098,213.63v.05a15.33,15.33,0,0,1-15.27,15.26Zm8.93-108.41a128,128,0,0,1,17-22.59h48.16a11.32,11.32,0,0,1,11.32,11.27h0a11.37,11.37,0,0,1-11.32,11.32Z">
          </path>
          <path class="cls-9"
            d="M2193.85,214.07a17.1,17.1,0,0,0,16-11,15,15,0,0,0,4.71-10.93h0a15,15,0,0,0-15-15H2189.2a21.07,21.07,0,1,0-39.4-10.38,2.32,2.32,0,0,0,0,.56,11.51,11.51,0,0,0-3.88-.67,12.4,12.4,0,0,0-12.2,10.49H2126a15,15,0,0,0-15,15h0a15,15,0,0,0,15,15h12.15a17.06,17.06,0,0,0,30.79,0h11.21a17,17,0,0,0,13.7,6.93Zm23-126a130.12,130.12,0,0,1,19.09,20h-55.88a7.79,7.79,0,0,1-5.54,2.33,7.32,7.32,0,0,1-2.5-.39.65.65,0,0,1,.06.33,13.38,13.38,0,0,1-26.75,0,13.8,13.8,0,0,1,1.72-6.55h-6.54a9.57,9.57,0,0,1-9.55-9.54h0a9.54,9.54,0,0,1,3-6.93,10.85,10.85,0,0,1,18.86-2.61h7.1a10.82,10.82,0,0,1,19.53,0h7.72a9.36,9.36,0,0,1,7.21,3.33Zm-178.16,35.78a15,15,0,0,1,6.27,1.39,14.71,14.71,0,0,1,5.49-1.39,10.65,10.65,0,0,1-.5-3.27c0-6.49,5.83-11.76,13-11.76s13,5.27,13,11.76a10.9,10.9,0,0,1-2.16,6.55c4.16,1.16,7.16,4.44,7.16,8.26a7.54,7.54,0,0,1-1.55,4.56c5.82,1.1,9.59,2.88,9.59,4.82,0,3.39-11.26,6.11-25.19,6.11a87.43,87.43,0,0,1-15.31-1.23,14.78,14.78,0,1,1-9.82-25.8Z">
          </path>
          <path class="cls-6"
            d="M2262.16,537h0a43.17,43.17,0,0,1,43.05,43.06V629A43.16,43.16,0,0,1,2262.16,672h0A43.16,43.16,0,0,1,2219.1,629V580.05A43.17,43.17,0,0,1,2262.16,537Z">
          </path>
          <path class="cls-10" d="M2259.55,605.51l-40.45-7.1V580.05a43.16,43.16,0,0,1,40.45-42.95Z"></path>
          <path class="cls-10" d="M2264.76,605.51l40.45-7.1V580.05a43.16,43.16,0,0,0-40.45-42.95Z"></path>
          <path class="cls-11"
            d="M2262.16,559h0a5.21,5.21,0,0,1,5.21,5.21v14.54a5.25,5.25,0,0,1-5.21,5.22h0a5.25,5.25,0,0,1-5.22-5.22V564.23a5.21,5.21,0,0,1,5.22-5.21Z">
          </path>
          <path class="cls-12"
            d="M1788.54,734.13c.22.27.39.55.61.78H1852V669.54a9.29,9.29,0,0,0,4.55-1.88h0q19.89-16,39.89-32c9.54-7.6,8.43-16.2-5.72-16.59-10.76,1.5-20.8,6.21-30.74,11.32V549.09a9.07,9.07,0,0,0-9-9h0a9.07,9.07,0,0,0-9,9V610h-3.05V537.32a9.05,9.05,0,0,0-9-9h0a9,9,0,0,0-9,9V610h-3V554a9.07,9.07,0,0,0-9-9h0a9.07,9.07,0,0,0-9,9v56h-3V576.77a9,9,0,0,0-9-9h0a9,9,0,0,0-9,9V610h0v50.61c0,4.27,6,8.65,9.93,9.59Z">
          </path>
          <path class="cls-13"
            d="M1902.34,628.15c-.72,2.39-2.72,5.05-5.88,7.55l-8.82,7a12.07,12.07,0,0,1-.28-2.55c0-6.71,5.88-12.15,13.15-12.15.61,0,1.22.06,1.83.11Zm-42.95-82.23a9,9,0,0,0-8.43-5.82h0a9,9,0,0,0-8.32,5.55c.61,6,4.1,10.59,8.38,10.59s7.71-4.49,8.37-10.32ZM1838,533.44a9,9,0,0,0-8.16-5.16h0a9,9,0,0,0-8.6,6.44c.78,5.66,4.22,9.93,8.32,9.93,4.39,0,8-4.94,8.44-11.21Zm-21.09,16.7a9,9,0,0,0-8.15-5.16h0a9,9,0,0,0-8.6,6.27c.83,5.61,4.21,9.82,8.32,9.82,4.33,0,7.93-4.77,8.43-10.93ZM1796,573.34a9.07,9.07,0,0,0-8.38-5.61h0a9.06,9.06,0,0,0-8.38,5.77c.67,5.88,4.16,10.32,8.38,10.32s7.71-4.55,8.38-10.48Z">
          </path>
          <path class="cls-9"
            d="M1787.71,695.29h65.19a4.67,4.67,0,0,1,4.61,4.6V705H1783.1v-5.11a4.64,4.64,0,0,1,4.61-4.6Z"></path>
          <path class="cls-14"
            d="M1780.94,705h78.68a5.85,5.85,0,0,1,5.88,5.88v62.86a5.89,5.89,0,0,1-5.88,5.89h-78.68a5.88,5.88,0,0,1-5.83-5.89V710.88a5.84,5.84,0,0,1,5.83-5.88Z">
          </path>
          <path class="cls-12"
            d="M2114.18,734.13c-.22.27-.39.55-.61.78h-62.92V669.54a9.2,9.2,0,0,1-4.49-1.88h0c-13.32-10.66-26.58-21.31-39.9-32-9.54-7.6-8.43-16.2,5.72-16.59,10.76,1.5,20.8,6.21,30.74,11.32V549.09a9.07,9.07,0,0,1,9-9h0a9.07,9.07,0,0,1,9,9V610h3V537.32a9,9,0,0,1,9-9h0a9,9,0,0,1,9,9V610h3.05V554a9.07,9.07,0,0,1,9-9h0a9.07,9.07,0,0,1,9.05,9v56h3V576.77a9,9,0,0,1,9-9h0a9,9,0,0,1,9,9V610h0v50.61c0,4.27-6,8.65-9.93,9.59Z">
          </path>
          <path class="cls-13"
            d="M2000.38,628.15c.72,2.39,2.72,5.05,5.88,7.55l8.83,7a12.78,12.78,0,0,0,.27-2.55c0-6.71-5.88-12.15-13.15-12.15-.61,0-1.22.06-1.83.11Zm42.94-82.23a9,9,0,0,1,8.44-5.82h0a9,9,0,0,1,8.32,5.55c-.61,6-4.1,10.59-8.38,10.59s-7.71-4.49-8.38-10.32Zm21.42-12.48a9,9,0,0,1,8.1-5.16h0a9,9,0,0,1,8.66,6.44c-.78,5.66-4.22,9.93-8.32,9.93-4.39,0-8-4.94-8.44-11.21Zm21.09,16.7A9,9,0,0,1,2094,545h0a9,9,0,0,1,8.6,6.27c-.83,5.61-4.22,9.82-8.32,9.82-4.33,0-7.93-4.77-8.43-10.93Zm20.91,23.2a9.06,9.06,0,0,1,8.33-5.61h0a9.07,9.07,0,0,1,8.43,5.77c-.66,5.88-4.16,10.32-8.38,10.32s-7.71-4.55-8.38-10.48Z">
          </path>
          <path class="cls-9"
            d="M2115,695.29h-65.19a4.67,4.67,0,0,0-4.61,4.6V705h74.41v-5.11a4.64,4.64,0,0,0-4.61-4.6Z"></path>
          <path class="cls-14"
            d="M2121.78,705H2043.1a5.85,5.85,0,0,0-5.88,5.88v62.86a5.89,5.89,0,0,0,5.88,5.89h78.68a5.88,5.88,0,0,0,5.83-5.89V710.88a5.84,5.84,0,0,0-5.83-5.88Z">
          </path>
          <path class="cls-15"
            d="M1646.22,603.35a5.86,5.86,0,1,1,4.11-11l-2.33-.89,2.16.83,2.17.78,2.22.83,2.16.78h.06a5.87,5.87,0,0,1-3.83,11.09l-.11,0-2.28-.78-2.22-.83,2.22.83-2.22-.83ZM1680,613.78a5.88,5.88,0,0,1,3.17-11.32l.72.23,2.33.61,2.33.66,2.39.61,2.32.61,1.11.28a5.87,5.87,0,1,1-2.88,11.38l-1.16-.28L1688,616l-2.44-.67-2.39-.61-2.38-.67Zm46.22,10.82a5.87,5.87,0,0,1,2.17-11.54l1.22.22,2.44.45,2.5.44,2.49.45,2.5.44.28.05a5.88,5.88,0,0,1-1.89,11.6l-.39-.06-2.55-.44-2.5-.44-2.55-.5-2.55-.45Zm46.89,7.1a5.88,5.88,0,0,1,1.27-11.7l.84.11,2.6.27,2.61.28,2.61.28,2.61.22.33.06a5.87,5.87,0,1,1-1,11.7l-.39,0-2.67-.28-2.66-.28-2.61-.27-2.66-.28Zm47.27,3.61a5.92,5.92,0,0,1-5.66-6.1,5.85,5.85,0,0,1,6.1-5.66l2.05.05,2.67.11,2.72.11,2.72.06,1.49.06a5.85,5.85,0,1,1-.27,11.7h-1.55l-2.73-.11-2.77,0-2.72-.11Zm47.38.28a5.89,5.89,0,1,1-.39-11.77l1.95-.05,2.77-.11,2.78-.06,2.77-.11,1.39-.11a5.89,5.89,0,1,1,.55,11.76l-1.44.06-2.83.11-2.83.11-2.77.11Zm47.22-2.94a5.85,5.85,0,0,1-1.11-11.65l.22-.06,2.83-.28,2.78-.28,2.83-.27,2.77-.34h.17a5.87,5.87,0,0,1,1.33,11.66l-.22.05-2.83.28-2.83.33-2.83.28-2.89.28Zm47-6a5.87,5.87,0,1,1-1.89-11.59l1-.17,2.66-.44,2.72-.5,2.72-.44,2.39-.45a5.94,5.94,0,0,1,6.82,4.72,5.87,5.87,0,0,1-4.77,6.82l-2.39.45-2.77.5-2.72.44-2.77.5Zm46.44-9.26a5.85,5.85,0,0,1-7-4.33,6,6,0,0,1,4.38-7.1l.5-.11,2.61-.61,2.55-.61L2014,604l2.55-.61.45-.11a5.88,5.88,0,0,1,2.94,11.38l-.5.11-2.61.66-2.61.61-2.66.67-2.61.61Zm45.77-12.49a5.87,5.87,0,1,1-3.55-11.2l1.22-.39,2.5-.78,2.44-.78,2.44-.77,2.44-.83h0a5.86,5.86,0,1,1,3.77,11.09l-.05.06-2.5.83-2.49.78-2.5.83-2.5.78ZM2098.87,589a5.89,5.89,0,0,1-4.39-10.93l.45-.17,2.33-.94,2.27-1,2.33-.94,2.28-1,1.05-.44a5.87,5.87,0,0,1,4.66,10.77l-1.16.49-2.34,1-2.32.95-2.39.94-2.33,1Zm43.27-19.48a5.9,5.9,0,0,1-7.88-2.6,5.8,5.8,0,0,1,2.61-7.88l.39-.23,2.11-1.05,2.11-1.11,2.11-1.06,2.11-1.1,1.44-.78a5.88,5.88,0,1,1,5.55,10.37l-1.5.78L2149,566l-2.16,1.17-2.16,1.11-2.17,1.05Zm41.4-23.3a5.86,5.86,0,1,1-6.22-9.93l.61-.39,1.94-1.22,1.89-1.22,1.89-1.22,1.88-1.23,1.5-1a5.86,5.86,0,1,1,6.49,9.76l-1.5,1.06-1.94,1.22-1.94,1.27-2,1.28-1.94,1.22Zm38.94-27.36a5.88,5.88,0,0,1-7.32-9.21l.78-.61,1.72-1.33,1.66-1.39L2221,505l1.61-1.38,1.55-1.28a5.87,5.87,0,0,1,7.55,9l-1.56,1.33-1.72,1.39-1.72,1.44-1.72,1.39-1.72,1.38ZM2258,487a5.87,5.87,0,1,1-8.44-8.16l.56-.55,1.44-1.5,1.39-1.44,1.38-1.5,1.34-1.44,1.38-1.5.39-.44a5.88,5.88,0,0,1,8.77,7.82l-.5.55-1.39,1.56-1.44,1.5-1.45,1.49L2260,485l-1.44,1.5Zm30.73-36.68a5.86,5.86,0,1,1-9.6-6.71l1.06-1.55,1.11-1.56,1-1.55,1.06-1.55,1.05-1.61,1-1.56.05-.11a5.93,5.93,0,0,1,8.16-1.83,5.85,5.85,0,0,1,1.78,8.1l-.11.23-1.06,1.6-1.11,1.67-1.11,1.61-1.11,1.66-1.11,1.61Zm24-41.55a5.87,5.87,0,0,1-10.71-4.83l.12-.22.72-1.61.72-1.67.72-1.61.66-1.66.67-1.66.67-1.67.16-.39A5.82,5.82,0,0,1,2314,390a5.94,5.94,0,0,1,3.44,7.61l-.22.49-.73,1.78-.66,1.72-.72,1.72-.72,1.77-.78,1.72-.78,1.72Zm14.76-45.94a5.88,5.88,0,0,1-11.54-2.22v-.23l.33-1.66.28-1.72.33-1.66.23-1.72.27-1.72.23-1.67.11-.83a5.87,5.87,0,1,1,11.65,1.44l-.11.89-.28,1.83-.22,1.83-.34,1.78-.27,1.83-.34,1.83-.33,1.77Zm2.94-48.33a5.92,5.92,0,0,1-5.44,6.32,5.84,5.84,0,0,1-6.26-5.43l-.12-1.33-.11-1.72-.16-1.72-.17-1.72-.22-1.73-.22-1.71-.17-1.39a5.88,5.88,0,0,1,11.65-1.61l.17,1.5.22,1.83.22,1.83.17,1.83.17,1.89.16,1.83Zm-9.65-47.38a5.88,5.88,0,0,1-11.1,3.88l-.22-.72-.55-1.61-.62-1.61-.61-1.61-.61-1.61-.61-1.61-.66-1.61-.11-.27a5.86,5.86,0,1,1,10.81-4.55l.17.33.67,1.72.66,1.72.67,1.72.67,1.72.61,1.72.61,1.72Zm-21.09-43.39a5.79,5.79,0,0,1-1.77,8.1,5.86,5.86,0,0,1-8.1-1.78l-.28-.39-.94-1.49-1-1.5-1-1.5-1-1.5-1.05-1.44-1-1.5-.11-.11a5.92,5.92,0,0,1,1.27-8.21,5.86,5.86,0,0,1,8.21,1.33l.17.17,1.05,1.55,1.12,1.55,1.05,1.56,1,1.55,1.06,1.61,1,1.55Z">
          </path>
          <polygon class="cls-16"
            points="1470.56 467.41 1571.21 495.55 1671.8 523.62 1617.65 574.06 1563.44 624.49 1517 545.92 1470.56 467.41">
          </polygon>
          <polygon class="cls-10"
            points="1470.56 467.41 1549.02 516.13 1627.47 564.9 1621.81 594.25 1607.77 583.26 1539.19 525.34 1470.56 467.41">
          </polygon>
          <path class="cls-9"
            d="M1546.52,86.4H1959a10.45,10.45,0,0,1,10.38,10.43v234.7A10.4,10.4,0,0,1,1959,341.91H1546.52a10.4,10.4,0,0,1-10.38-10.38V96.83a10.45,10.45,0,0,1,10.38-10.43Z">
          </path>
          <path class="cls-17"
            d="M1545.24,86.4h415a9.16,9.16,0,0,1,9.1,9.16v28.07a.75.75,0,0,1-.73.78h-432.5V95.56a9.16,9.16,0,0,1,9.1-9.16Z">
          </path>
          <path class="cls-18" d="M1557.56,113.31a8.33,8.33,0,1,0-8-8.32,8.12,8.12,0,0,0,8,8.32Z"></path>
          <path class="cls-19" d="M1579.81,113.31a8.33,8.33,0,1,0-8-8.32,8.12,8.12,0,0,0,8,8.32Z"></path>
          <path class="cls-20" d="M1602,113.31a8.33,8.33,0,1,0-7.93-8.32,8.17,8.17,0,0,0,7.93,8.32Z"></path>
          <rect class="cls-21" x="1622.03" y="98" width="335.02" height="15.76"></rect>
          <path class="cls-22" d="M1897.07,141.55a51.06,51.06,0,1,1-36,14.93,50.86,50.86,0,0,1,36-14.93Z"></path>
          <path class="cls-23"
            d="M1871.88,141.55a51,51,0,1,1-36.07,14.93,50.86,50.86,0,0,1,36.07-14.93Zm11.21,4.16v16.15h16.64v-8.6a48.57,48.57,0,0,0-16.64-7.55Zm19.47,9.72v6.43H1909c-.94-1.16-2-2.27-3-3.38s-2.22-2.06-3.39-3Zm8.6,9.26h-8.6v16.7h16.2a47.19,47.19,0,0,0-7.6-16.7Zm8.16,19.53h-16.76v16.7h16.76a46.55,46.55,0,0,0,.72-8.38,45.89,45.89,0,0,0-.72-8.32Zm-.56,19.53h-16.2V220.4h8.6a47.35,47.35,0,0,0,7.6-16.65ZM1909,223.23h-6.44v6.43a42.61,42.61,0,0,0,3.39-3,44.5,44.5,0,0,0,3-3.38Zm-9.27,8.6v-8.6h-16.64v16.2a47.39,47.39,0,0,0,16.64-7.6ZM1880.26,240V223.23h-16.7V240a45.89,45.89,0,0,0,8.32.73,46.55,46.55,0,0,0,8.38-.73Zm-19.53-.55v-16.2H1844v8.6a47,47,0,0,0,16.7,7.6Zm-19.53-9.77v-6.43h-6.44c1,1.16,2,2.33,3,3.38s2.22,2.11,3.39,3Zm-8.6-9.26h8.6V203.75h-16.15a48.16,48.16,0,0,0,7.55,16.65Zm-8.16-19.48h16.76v-16.7h-16.76a52,52,0,0,0-.72,8.32,52.74,52.74,0,0,0,.72,8.38Zm.61-19.53h16.15v-16.7h-8.6a48,48,0,0,0-7.55,16.7Zm9.71-19.53h6.44v-6.43c-1.17,1-2.28,2-3.39,3s-2,2.22-3,3.38Zm9.27-8.6v8.6h16.7V145.71a48.18,48.18,0,0,0-16.7,7.55Zm19.53-8.15v16.75h16.7V145.11a51.6,51.6,0,0,0-8.38-.73,50.86,50.86,0,0,0-8.32.73ZM1844,164.69v16.7h16.7v-16.7Zm0,19.53v16.7h16.7v-16.7Zm0,19.53V220.4h16.7V203.75Zm19.53,16.65h16.7V203.75h-16.7Zm19.53,0h16.64V203.75h-16.64Zm16.64-55.71h-16.64v16.7h16.64Zm-19.47,0h-16.7v16.7h16.7Zm19.47,19.53h-16.64v16.7h16.64Zm-19.47,0h-16.7v16.7h16.7Z">
          </path>
          <rect class="cls-24" x="1569.49" y="261.46" width="223.66" height="6.49"></rect>
          <rect class="cls-24" x="1712.03" y="279.32" width="81.12" height="6.55"></rect>
          <rect class="cls-24" x="1708.59" y="297.24" width="84.56" height="6.49"></rect>
          <rect class="cls-24" x="1569.49" y="315.11" width="223.66" height="6.55"></rect>
          <rect class="cls-24" x="1569.49" y="279.32" width="125.89" height="6.55"></rect>
          <rect class="cls-24" x="1569.49" y="297.24" width="42.22" height="6.49"></rect>
          <rect class="cls-24" x="1630.35" y="297.24" width="59.31" height="6.49"></rect>
          <rect class="cls-25" x="1813.95" y="261.18" width="290.35" height="60.42"></rect>
          <path class="cls-16"
            d="M2069.29,274.61a12.8,12.8,0,0,0,9.43,23.69l6.39,12.59,4.21-2.11-6.43-12.65a12.78,12.78,0,0,0-13.6-21.52Zm2.06,4.05a8.22,8.22,0,1,0,11,3.6,8.21,8.21,0,0,0-11-3.6Z">
          </path>
          <path class="cls-16"
            d="M1860.73,306.34a1.49,1.49,0,0,0,2.88,0l7.71-26.91a1.79,1.79,0,0,0,.11-.55,1.5,1.5,0,0,0-2.94-.39L1862.11,301l-6.21-22.53a1.5,1.5,0,0,0-2.89,0L1846.8,301l-6.38-22.53a1.46,1.46,0,0,0-1.44-1.11,1.49,1.49,0,0,0-1.5,1.5,1.79,1.79,0,0,0,.11.55l7.71,26.91a1.48,1.48,0,0,0,1.44,1.11,1.44,1.44,0,0,0,1.45-1.11l6.27-22.19Zm23-19.64a6.3,6.3,0,0,0-5.77,3.05V277.44a1.39,1.39,0,0,0-2.78,0v28.62a1.39,1.39,0,0,0,2.78,0V295.3c0-3.49,1.5-6.1,5.77-6.1s5.27,2.33,5.27,5.77v11.09a1.39,1.39,0,1,0,2.77,0V294.41c0-3.71-1.33-7.71-8-7.71Zm20.58,2.61c3.16,0,5.11,1.83,5.11,4.83v1.16h-6.11c-4.71,0-7.65,2.28-7.65,6.16s2.94,6.21,7.54,6.21c2.61,0,5.16-1.11,6.22-3.16v1.61a1.36,1.36,0,0,0,2.72,0v-12c0-4.5-2.78-7.44-7.83-7.44-3.66,0-6,1.5-7.27,3.44a1.6,1.6,0,0,0-.22.72,1.26,1.26,0,0,0,1.28,1.28,1.28,1.28,0,0,0,1.11-.61,6.21,6.21,0,0,1,5.1-2.22Zm-.83,15.81c-3.44,0-5-1.44-5-3.66,0-2.55,1.94-3.72,4.82-3.72h6.11v1.83c0,3.72-2.89,5.55-5.94,5.55Zm15-17.81h-1.72a1.31,1.31,0,0,0,0,2.61h1.72v12c0,3.16,1.89,5.49,5.33,5.49a1.31,1.31,0,1,0,0-2.61c-1.5,0-2.55-1-2.55-2.88v-12H1924a1.31,1.31,0,1,0,0-2.61h-2.83v-4.6a1.41,1.41,0,0,0-1.39-1.39,1.45,1.45,0,0,0-1.39,1.39Zm24.19,1.06a1.39,1.39,0,1,0-2.77,0v17.69a1.39,1.39,0,1,0,2.77,0Zm-1.39-5.5a1.52,1.52,0,0,0,1.67-1.66c0-1.28-.61-1.78-1.67-1.78s-1.66.5-1.66,1.78a1.52,1.52,0,0,0,1.66,1.66Zm13.27,6.55a6.21,6.21,0,0,1,4.77,1.83,1.22,1.22,0,0,0,.89.39,1.29,1.29,0,0,0,1.27-1.28,1.14,1.14,0,0,0-.33-.83c-1.33-1.77-3.66-2.77-6.6-2.77-3.72,0-6.66,1.66-6.66,5.27,0,7.16,11.43,5.32,11.43,9.82,0,2.27-2.11,3.11-4.61,3.11a7.55,7.55,0,0,1-5.55-2.11,1.14,1.14,0,0,0-.94-.45,1.26,1.26,0,0,0-1.28,1.28,1.4,1.4,0,0,0,.34.83,9.91,9.91,0,0,0,7.43,3.11c4.16,0,7.44-1.78,7.44-5.77,0-6.94-11.49-5.27-11.49-9.82,0-2,1.94-2.61,3.89-2.61Zm23.3,18a1.82,1.82,0,0,0,2-2.05,2,2,0,1,0-4,0,1.81,1.81,0,0,0,2,2.05Zm11.82,0a1.82,1.82,0,0,0,2.05-2.05,2,2,0,1,0-4.05,0,1.81,1.81,0,0,0,2,2.05Zm11.87,0a1.82,1.82,0,0,0,2-2.05,2.05,2.05,0,1,0-4.1,0,1.82,1.82,0,0,0,2,2.05Z">
          </path>
          <rect class="cls-26" x="1569.49" y="143.66" width="223.66" height="101.76"></rect>
          <path class="cls-16"
            d="M1660.15,186.44l4,22.36h6.22l5.77-32.9h-4.11l-4.77,28-4.66-28H1658l-4.66,28-5-28h-4.55l5.77,32.9H1656ZM1680,175.9v32.9h4.71V175.9Zm25.8,32.9h4.83l-11-17.92,10.66-15h-4.77l-11.21,15.87V175.9h-4.72v32.9h4.72v-11l2.44-3.27Zm8.43-32.9v32.9h4.72V175.9Z">
          </path>
        </g>
      </g>
    </g>
  </g>
</svg>