<svg xmlns="http://www.w3.org/2000/svg"
  viewBox="1707.2322998046875 -63.273712158203125 1128.5423583984375 1128.5423583984375">
  <defs>
    <style>
      .cls-1 {
        fill: #c1c1c1;
      }

      .cls-2 {
        fill: #e5e5e5;
      }

      .cls-3 {
        fill: #006c73;
      }

      .cls-4 {
        opacity: 0.5;
      }

      .cls-5 {
        fill: #0061b2;
      }

      .cls-11,
      .cls-6 {
        fill: #e0e0e0;
      }

      .cls-7 {
        opacity: 0.2;
      }

      .cls-8 {
        fill: #d27647;
      }

      .cls-9 {
        fill: #000c3b;
      }

      .cls-10,
      .cls-40,
      .cls-63 {
        opacity: 0.1;
      }

      .cls-11 {
        opacity: 0.8;
      }

      .cls-12 {
        fill: #2bc5ff;
      }

      .cls-13 {
        fill: #3eb0f7;
      }

      .cls-14 {
        fill: #1b94ef;
      }

      .cls-15 {
        fill: #0078e7;
      }

      .cls-16 {
        fill: #f2815f;
      }

      .cls-17 {
        fill: #ef5d29;
      }

      .cls-18 {
        fill: #eb4300;
      }

      .cls-19 {
        fill: #ff214f;
      }

      .cls-20 {
        fill: #ea1b4c;
      }

      .cls-21 {
        fill: #ce174c;
      }

      .cls-22 {
        fill: #d74800;
      }

      .cls-23 {
        fill: #ffa117;
      }

      .cls-24 {
        fill: #e8e5e2;
      }

      .cls-25 {
        fill: #00e44d;
      }

      .cls-26 {
        fill: #0995ff;
      }

      .cls-27 {
        fill: #00c67b;
      }

      .cls-28 {
        fill: #00ac98;
      }

      .cls-29 {
        fill: #b65e00;
      }

      .cls-30 {
        fill: #ffa30d;
      }

      .cls-31,
      .cls-48 {
        fill: #fff;
      }

      .cls-31 {
        opacity: 0.3;
      }

      .cls-32 {
        fill: #f4b147;
      }

      .cls-33 {
        fill: #f45858;
      }

      .cls-34 {
        fill: #007698;
      }

      .cls-35 {
        fill: #ff4f54;
      }

      .cls-36 {
        fill: #66003f;
      }

      .cls-37 {
        fill: #00336d;
      }

      .cls-37,
      .cls-39,
      .cls-40,
      .cls-41,
      .cls-44,
      .cls-47 {
        fill-rule: evenodd;
      }

      .cls-38 {
        fill: #d3d3d3;
      }

      .cls-39 {
        fill: #ff811d;
      }

      .cls-41 {
        fill: #032a3d;
      }

      .cls-42 {
        fill: #a1bc00;
      }

      .cls-43 {
        fill: #0084af;
      }

      .cls-44 {
        fill: #e6e6e6;
      }

      .cls-45 {
        fill: #1e2f47;
      }

      .cls-46 {
        fill: #718cc7;
      }

      .cls-47 {
        fill: #fc0;
      }

      .cls-49 {
        fill: #0e4a7c;
      }

      .cls-50 {
        fill: #f4b545;
      }

      .cls-51 {
        fill: #f24952;
      }

      .cls-52 {
        fill: #d87819;
      }

      .cls-53 {
        fill: #ffa438;
      }

      .cls-54 {
        fill: #223666;
      }

      .cls-55 {
        fill: #e2e2e2;
      }

      .cls-56 {
        fill: #ffb945;
      }

      .cls-57 {
        fill: #383838;
      }

      .cls-58 {
        fill: #595959;
      }

      .cls-59 {
        fill: #353535;
      }

      .cls-60 {
        fill: #00b98b;
      }

      .cls-61 {
        fill: #00659b;
      }

      .cls-62 {
        fill: #00c5cd;
      }

      .cls-63 {
        fill: #231f20;
      }
    </style>
  </defs>
  <g id="Réteg_2" data-name="Réteg 2">
    <g id="Education_Science" data-name="Education &amp; Science">
      <g id="Bookcase">
        <g id="Background">
          <!-- <rect id="Background_1" data-name="Background 1" class="cls-1" width="3000" height="1002" /> -->
          <circle id="Background_2" data-name="Background 2" class="cls-2" cx="2271.5" cy="501" r="399"
            transform="translate(311.05 1752.93) rotate(-45)"></circle>
        </g>
        <g id="Bookcase-2" data-name="Bookcase">
          <g id="Cupboard">
            <rect class="cls-3" x="1826.25" y="346.2" width="907.13" height="471.49"></rect>
            <rect class="cls-3" x="2082.34" y="209.96" width="394.94" height="607.74"></rect>
            <rect class="cls-4" x="1846.73" y="372.03" width="235.62" height="190.72"></rect>
            <rect class="cls-4" x="1846.73" y="596.73" width="235.62" height="190.72"></rect>
            <rect class="cls-4" x="2477.29" y="374.24" width="235.61" height="190.72"></rect>
            <rect class="cls-4" x="2477.29" y="598.94" width="235.61" height="190.72"></rect>
            <rect class="cls-4" x="2105.36" y="231.48" width="166.14" height="114.72"></rect>
            <rect class="cls-4" x="2288.22" y="231.48" width="166.14" height="114.72"></rect>
            <rect class="cls-4" x="2105.32" y="372.03" width="166.13" height="190.72"></rect>
            <rect class="cls-4" x="2288.18" y="372.03" width="166.14" height="190.72"></rect>
            <rect class="cls-4" x="2105.32" y="596.73" width="166.13" height="86.04"></rect>
            <rect class="cls-4" x="2288.18" y="596.73" width="166.14" height="86.04"></rect>
            <rect class="cls-4" x="2105.32" y="701.42" width="166.13" height="86.04"></rect>
            <rect class="cls-4" x="2288.18" y="701.42" width="166.14" height="86.04"></rect>
          </g>
          <g id="Teleskop">
            <path class="cls-5" d="M2592.57,471.7c-.09-6-3.76-10.92-8.42-11s-8.58,4.57-9,10.58Z"></path>
            <rect class="cls-6" x="2561.13" y="434.02" width="20.81" height="31.03"
              transform="translate(2055.47 3008.55) rotate(-88.51)"></rect>
            <rect class="cls-7" x="2576.35" y="448.99" width="20.81" height="1.89"
              transform="translate(2069.89 3024.15) rotate(-88.51)"></rect>
            <rect class="cls-8" x="2646.32" y="447.1" width="26.69" height="9.44"
              transform="translate(2138.96 3098.86) rotate(-88.51)"></rect>
            <rect class="cls-6" x="2592.39" y="434.04" width="21.89" height="32.64"
              transform="translate(2085.6 3041.13) rotate(-88.51)"></rect>
            <rect class="cls-7" x="2608.4" y="449.78" width="21.89" height="1.98"
              transform="translate(2101.61 3057.7) rotate(-88.53)"></rect>
            <rect class="cls-6" x="2625.29" y="433.48" width="23.81" height="35.52"
              transform="translate(2117.59 3075.81) rotate(-88.51)"></rect>
            <path class="cls-7"
              d="M2664,465.28l.61-23.45c-9.66,2-74.05,14.85-108.77,12.8l-.12,4.9,29.78.77,1.21,0,0,.53,31.33.82,1.1,0,0,1,35.51.92,0,1.44Z">
            </path>
            <path class="cls-9" d="M2589.42,460.73a5.27,5.27,0,1,1-5.13-5.41A5.27,5.27,0,0,1,2589.42,460.73Z"></path>
            <path class="cls-6" d="M2586.91,460.66a2.76,2.76,0,1,1-2.69-2.82A2.76,2.76,0,0,1,2586.91,460.66Z"></path>
            <polygon class="cls-6" points="2534.67 452.17 2538.25 454.01 2538.53 443.34 2534.86 444.92 2534.67 452.17">
            </polygon>
            <rect class="cls-5" x="2533.78" y="551.65" width="5.42" height="3.67"
              transform="translate(1916.97 3074.67) rotate(-88.5)"></rect>
            <rect class="cls-5" x="2621.69" y="553.59" width="5.42" height="3.67"
              transform="translate(2001.36 3164.59) rotate(-88.52)"></rect>
            <rect class="cls-5" x="2577.42" y="560.95" width="5.42" height="3.67"
              transform="translate(1952.18 3127.83) rotate(-88.55)"></rect>
            <rect class="cls-9" x="2539.08" y="439.92" width="16.27" height="17.64"
              transform="translate(2032.48 2983.44) rotate(-88.51)"></rect>
            <path class="cls-6"
              d="M2539,552.17a2.75,2.75,0,0,1-3.79.91h0a2.75,2.75,0,0,1-.91-3.79l45.72-74.66a2.77,2.77,0,0,1,3.8-.91h0a2.77,2.77,0,0,1,.91,3.79Z">
            </path>
            <path class="cls-6"
              d="M2621.82,554.32a2.77,2.77,0,0,0,3.74,1.11h0a2.76,2.76,0,0,0,1.11-3.74l-41.79-76.93a2.76,2.76,0,0,0-3.74-1.11h0a2.76,2.76,0,0,0-1.11,3.74Z">
            </path>
            <path class="cls-10"
              d="M2583.84,473.72h0l-48.61,79.36h0a2.76,2.76,0,0,0,3.8-.91l45.72-74.66A2.75,2.75,0,0,0,2583.84,473.72Z">
            </path>
            <path class="cls-10"
              d="M2581.14,473.67h0l44.42,81.78h0a2.76,2.76,0,0,0,1.11-3.74l-41.79-76.93A2.77,2.77,0,0,0,2581.14,473.67Z">
            </path>
            <rect class="cls-6" x="2582.28" y="455.6" width="3.76" height="35.52"
              transform="translate(2044.02 3044.39) rotate(-88.52)"></rect>
            <path class="cls-6"
              d="M2582.91,561.78a2.75,2.75,0,0,1-2.83,2.69h0a2.76,2.76,0,0,1-2.68-2.83l2.27-87.52a2.77,2.77,0,0,1,2.83-2.69h0a2.76,2.76,0,0,1,2.68,2.83Z">
            </path>
            <path class="cls-10"
              d="M2582.5,471.43h0l-2.42,93h0a2.75,2.75,0,0,0,2.83-2.69l2.27-87.52A2.76,2.76,0,0,0,2582.5,471.43Z">
            </path>
          </g>
          <g id="Chemistry">
            <path class="cls-11"
              d="M2140.47,299.82V265.4h.79a3.47,3.47,0,1,0,0-6.93h-9.79a3.47,3.47,0,0,0,0,6.93h.79v34.42a23.29,23.29,0,1,0,8.21,0Z">
            </path>
            <path class="cls-12" d="M2130.71,307.41a1.46,1.46,0,1,1-1.46-1.46A1.46,1.46,0,0,1,2130.71,307.41Z"></path>
            <path class="cls-12" d="M2123.44,315.23a2.67,2.67,0,1,1-2.67-2.66A2.66,2.66,0,0,1,2123.44,315.23Z"></path>
            <path class="cls-12" d="M2140.43,312.57a2,2,0,1,1-2-2A2,2,0,0,1,2140.43,312.57Z"></path>
            <path class="cls-12" d="M2153.8,312.09a2,2,0,1,1-2-2A2,2,0,0,1,2153.8,312.09Z"></path>
            <path class="cls-12" d="M2145.93,306a1.21,1.21,0,1,1-1.2-1.21A1.2,1.2,0,0,1,2145.93,306Z"></path>
            <path class="cls-12" d="M2139.25,295.55a2,2,0,1,1-2-2A2,2,0,0,1,2139.25,295.55Z"></path>
            <path class="cls-12" d="M2140,286.72a3.65,3.65,0,1,1-3.65-3.65A3.64,3.64,0,0,1,2140,286.72Z"></path>
            <path class="cls-12" d="M2139.77,273.1a1.38,1.38,0,0,1-2.75,0,1.38,1.38,0,1,1,2.75,0Z"></path>
            <path class="cls-12" d="M2137.22,267.43a2,2,0,1,1-2-2A2,2,0,0,1,2137.22,267.43Z"></path>
            <path class="cls-13"
              d="M2130.41,320.3c-5.62,2.95-12.69,2-17.27.86q-.06.78-.06,1.59a23.29,23.29,0,1,0,46.57,0,23,23,0,0,0-.88-6.36C2147.11,312.07,2137.76,316.43,2130.41,320.3Z">
            </path>
            <path class="cls-14"
              d="M2132.31,323a30.13,30.13,0,0,1-19.22.5,23.29,23.29,0,0,0,46.56-.71c0-.6,0-1.19-.07-1.78C2152.08,318.86,2142.62,319.46,2132.31,323Z">
            </path>
            <path class="cls-15"
              d="M2132.31,326.91a30.31,30.31,0,0,1-18.73.65,23.29,23.29,0,0,0,46-2.65C2152.05,322.81,2142.61,323.4,2132.31,326.91Z">
            </path>
            <path class="cls-11"
              d="M2182.47,310.41V283.87h.6a2.67,2.67,0,0,0,0-5.34h-7.55a2.67,2.67,0,0,0,0,5.34h.61v26.54a18,18,0,1,0,6.34,0Z">
            </path>
            <circle class="cls-16" cx="2173.82" cy="316.26" r="1.13"></circle>
            <path class="cls-16" d="M2169.34,322.29a2.06,2.06,0,1,1-2.06-2.05A2.06,2.06,0,0,1,2169.34,322.29Z"></path>
            <path class="cls-16" d="M2182.43,320.24a1.57,1.57,0,1,1-1.57-1.57A1.56,1.56,0,0,1,2182.43,320.24Z"></path>
            <path class="cls-16" d="M2192.74,319.87a1.57,1.57,0,1,1-1.57-1.57A1.56,1.56,0,0,1,2192.74,319.87Z"></path>
            <path class="cls-16" d="M2186.67,315.19a.93.93,0,1,1-.93-.94A.93.93,0,0,1,2186.67,315.19Z"></path>
            <path class="cls-16" d="M2181.52,307.12a1.57,1.57,0,1,1-1.57-1.57A1.57,1.57,0,0,1,2181.52,307.12Z"></path>
            <path class="cls-16" d="M2182.12,300.31a2.82,2.82,0,1,1-2.82-2.81A2.82,2.82,0,0,1,2182.12,300.31Z"></path>
            <path class="cls-16" d="M2181.92,289.81a1.06,1.06,0,1,1-1.06-1.06A1.06,1.06,0,0,1,2181.92,289.81Z"></path>
            <path class="cls-16" d="M2180,285.44a1.57,1.57,0,1,1-1.56-1.57A1.56,1.56,0,0,1,2180,285.44Z"></path>
            <path class="cls-16"
              d="M2174.71,326.2c-4.33,2.27-9.79,1.54-13.32.66,0,.4,0,.81,0,1.22a18,18,0,1,0,35.22-4.9C2187.58,319.85,2180.38,323.21,2174.71,326.2Z">
            </path>
            <path class="cls-17"
              d="M2176.17,328.25a23.21,23.21,0,0,1-14.81.38,17.95,17.95,0,0,0,35.89-.55c0-.46,0-.91-.05-1.37C2191.41,325.09,2184.12,325.55,2176.17,328.25Z">
            </path>
            <path class="cls-18"
              d="M2176.17,331.29a23.34,23.34,0,0,1-14.44.5,18,18,0,0,0,35.44-2C2191.39,328.13,2184.11,328.59,2176.17,331.29Z">
            </path>
            <path class="cls-11"
              d="M2222.54,313.24V288.82h.56a2.46,2.46,0,1,0,0-4.92h-6.95a2.46,2.46,0,0,0,0,4.92h.56v24.42a16.53,16.53,0,1,0,5.83,0Z">
            </path>
            <path class="cls-19" d="M2215.62,318.63a1,1,0,1,1-1-1A1,1,0,0,1,2215.62,318.63Z"></path>
            <path class="cls-19" d="M2210.46,324.18a1.9,1.9,0,1,1-1.89-1.89A1.89,1.89,0,0,1,2210.46,324.18Z"></path>
            <path class="cls-19" d="M2222.51,322.29a1.44,1.44,0,1,1-1.44-1.44A1.44,1.44,0,0,1,2222.51,322.29Z"></path>
            <path class="cls-19" d="M2232,322a1.44,1.44,0,1,1-1.44-1.44A1.44,1.44,0,0,1,2232,322Z"></path>
            <path class="cls-19" d="M2226.42,317.64a.86.86,0,1,1-.86-.86A.86.86,0,0,1,2226.42,317.64Z"></path>
            <path class="cls-19" d="M2221.67,310.22a1.44,1.44,0,1,1-1.44-1.44A1.44,1.44,0,0,1,2221.67,310.22Z"></path>
            <path class="cls-19" d="M2222.22,304a2.59,2.59,0,1,1-2.59-2.59A2.59,2.59,0,0,1,2222.22,304Z"></path>
            <path class="cls-19" d="M2222,294.28a1,1,0,1,1-1-1A1,1,0,0,1,2222,294.28Z"></path>
            <path class="cls-19" d="M2220.23,290.26a1.44,1.44,0,1,1-1.44-1.44A1.44,1.44,0,0,1,2220.23,290.26Z"></path>
            <path class="cls-19"
              d="M2215.4,327.77c-4,2.1-9,1.43-12.25.61,0,.38-.05.75-.05,1.13a16.53,16.53,0,1,0,32.43-4.51C2227.25,321.94,2220.62,325,2215.4,327.77Z">
            </path>
            <path class="cls-20"
              d="M2216.75,329.67a21.42,21.42,0,0,1-13.64.35,16.52,16.52,0,0,0,33-.51c0-.42,0-.84-.05-1.26C2230.78,326.76,2224.07,327.18,2216.75,329.67Z">
            </path>
            <path class="cls-21"
              d="M2216.75,332.46a21.44,21.44,0,0,1-13.29.46,16.52,16.52,0,0,0,32.62-1.88C2230.76,329.55,2224.06,330,2216.75,332.46Z">
            </path>
          </g>
          <g id="Books">
            <rect class="cls-22" x="1863.13" y="428.09" width="23.11" height="134.66"></rect>
            <rect class="cls-22" x="1890.22" y="428.09" width="23.11" height="134.66"></rect>
            <rect class="cls-22" x="1917.32" y="428.09" width="23.11" height="134.66"></rect>
            <rect class="cls-23" x="1945.01" y="428.09" width="23.11" height="134.66"></rect>
            <rect class="cls-23" x="1972.1" y="428.09" width="23.11" height="134.66"></rect>
            <rect class="cls-23" x="1999.19" y="428.09" width="23.11" height="134.66"></rect>
            <polygon class="cls-22" points="2345.57 562.96 2327.18 562.96 2288.18 440.94 2306.57 440.94 2345.57 562.96">
            </polygon>
            <polygon class="cls-22" points="2367.13 562.96 2348.74 562.96 2309.74 440.94 2328.13 440.94 2367.13 562.96">
            </polygon>
            <polygon class="cls-22" points="2388.68 562.96 2370.3 562.96 2331.3 440.94 2349.68 440.94 2388.68 562.96">
            </polygon>
            <polygon class="cls-23" points="2410.72 562.96 2392.33 562.96 2353.33 440.94 2371.72 440.94 2410.72 562.96">
            </polygon>
            <polygon class="cls-23" points="2432.28 562.96 2413.89 562.96 2374.89 440.94 2393.27 440.94 2432.28 562.96">
            </polygon>
            <polygon class="cls-23" points="2453.84 562.96 2435.45 562.96 2396.45 440.94 2414.83 440.94 2453.84 562.96">
            </polygon>
            <rect class="cls-22" x="1865.42" y="652.79" width="23.11" height="134.66"></rect>
            <rect class="cls-22" x="1892.52" y="713.35" width="23.11" height="74.1"></rect>
            <rect class="cls-22" x="1919.61" y="668.33" width="23.11" height="119.12"></rect>
            <rect class="cls-23" x="1947.3" y="688.65" width="23.11" height="98.8"></rect>
            <rect class="cls-23" x="1974.39" y="668.33" width="23.11" height="119.12"></rect>
            <rect class="cls-23" x="2001.48" y="668.33" width="23.11" height="119.12"></rect>
            <rect class="cls-23" x="1869.81" y="661.76" width="14.34" height="11.35"></rect>
            <rect class="cls-23" x="1896.9" y="720.12" width="14.34" height="11.35"></rect>
            <rect class="cls-23" x="1923.99" y="673.11" width="14.34" height="11.36"></rect>
            <rect class="cls-24" x="1951.68" y="692.83" width="14.34" height="11.35"></rect>
            <rect class="cls-24" x="1978.77" y="673.11" width="14.34" height="11.36"></rect>
            <rect class="cls-24" x="2005.86" y="673.11" width="14.34" height="11.36"></rect>
            <rect class="cls-25" x="2107.61" y="428.09" width="23.11" height="134.66"></rect>
            <rect class="cls-26" x="2134.7" y="488.65" width="23.11" height="74.1"></rect>
            <rect class="cls-22" x="2161.79" y="443.63" width="23.11" height="119.12"></rect>
            <rect class="cls-23" x="2189.48" y="463.95" width="23.11" height="98.8"></rect>
            <rect class="cls-23" x="2216.57" y="443.63" width="23.11" height="119.12"></rect>
            <rect class="cls-27" x="2243.67" y="443.63" width="23.11" height="119.12"></rect>
            <rect class="cls-23" x="2111.99" y="437.06" width="14.34" height="11.36"></rect>
            <rect class="cls-23" x="2139.08" y="495.42" width="14.34" height="11.36"></rect>
            <rect class="cls-23" x="2166.18" y="448.41" width="14.34" height="11.35"></rect>
            <rect class="cls-24" x="2193.86" y="468.13" width="14.34" height="11.35"></rect>
            <rect class="cls-24" x="2220.96" y="448.41" width="14.34" height="11.35"></rect>
            <rect class="cls-24" x="2248.05" y="448.41" width="14.34" height="11.35"></rect>
            <rect class="cls-28" x="2490.37" y="654.72" width="23.11" height="134.66"></rect>
            <rect class="cls-28" x="2517.46" y="654.72" width="23.11" height="134.66"></rect>
            <rect class="cls-28" x="2544.55" y="654.72" width="23.11" height="134.66"></rect>
            <rect class="cls-29" x="2572.24" y="654.72" width="23.11" height="134.66"></rect>
            <rect class="cls-29" x="2599.33" y="654.72" width="23.11" height="134.66"></rect>
            <rect class="cls-29" x="2626.42" y="654.72" width="23.11" height="134.66"></rect>
            <rect class="cls-30" x="2660.72" y="654.72" width="23.11" height="134.66"
              transform="translate(-75.22 384.91) rotate(-8.12)"></rect>
            <rect class="cls-31" x="2493.59" y="654.72" width="4.18" height="134.66"></rect>
            <rect class="cls-31" x="2523.27" y="653.76" width="4.18" height="134.66"></rect>
            <rect class="cls-31" x="2549.16" y="653.76" width="4.18" height="134.66"></rect>
            <rect class="cls-31" x="2579.61" y="654.72" width="4.18" height="134.66"></rect>
            <rect class="cls-31" x="2606.7" y="654.72" width="4.18" height="134.66"></rect>
            <rect class="cls-32" x="2081.8" y="739.24" width="77.37" height="19.34"
              transform="translate(1367.48 2867.95) rotate(-89.89)"></rect>
            <rect class="cls-33" x="2110.88" y="717.16" width="19.35" height="4.01"></rect>
            <rect class="cls-33" x="2110.88" y="722.66" width="19.33" height="1.37"></rect>
            <rect class="cls-34" x="2114.64" y="736.59" width="10.82" height="33.59"></rect>
            <rect class="cls-33" x="2110.74" y="778.64" width="19.35" height="1.49"></rect>
            <rect class="cls-33" x="2110.75" y="781.88" width="19.34" height="3.36"></rect>
            <rect class="cls-10" x="2076.59" y="744.44" width="77.37" height="8.92"
              transform="matrix(0, -1, 1, 0, 1361.97, 2862.61)"></rect>
            <rect class="cls-35" x="2121.66" y="755.94" width="49.56" height="12.39"
              transform="translate(1380.13 2907.08) rotate(-89.89)"></rect>
            <rect class="cls-36" x="2140.29" y="741.79" width="12.4" height="2.57"></rect>
            <rect class="cls-36" x="2140.28" y="745.31" width="12.39" height="0.88"></rect>
            <rect class="cls-36" x="2140.2" y="781.18" width="12.4" height="0.96"></rect>
            <path class="cls-37" d="M2150.88,759.94a4.48,4.48,0,1,1-4.48-4.49A4.48,4.48,0,0,1,2150.88,759.94Z"></path>
            <rect class="cls-36" x="2140.21" y="783.25" width="12.39" height="2.15"></rect>
            <rect class="cls-10" x="2118.33" y="759.27" width="49.56" height="5.71"
              transform="translate(1376.93 2903.79) rotate(-89.89)"></rect>
            <polygon class="cls-37" points="2166.77 737.32 2170.91 786.71 2174.66 786.41 2170.52 737.03 2166.77 737.32">
            </polygon>
            <rect class="cls-38" x="2167.24" y="741.59" width="3.77" height="2.57"
              transform="translate(-54.88 185.39) rotate(-4.83)"></rect>
            <rect class="cls-38" x="2167.46" y="745.11" width="3.76" height="0.88"
              transform="matrix(1, -0.08, 0.08, 1, -55.01, 185.08)"></rect>
            <rect class="cls-38" x="2170.46" y="780.84" width="3.77" height="0.96"
              transform="translate(-57.98 185.36) rotate(-4.82)"></rect>
            <path class="cls-39"
              d="M2171.87,759.57c.21,2.46-.23,4.51-1,4.58s-1.52-1.89-1.73-4.35.23-4.52,1-4.59S2171.66,757.1,2171.87,759.57Z">
            </path>
            <rect class="cls-38" x="2170.69" y="782.91" width="3.76" height="2.15"
              transform="translate(-58.23 185.48) rotate(-4.82)"></rect>
            <polygon class="cls-40" points="2168.5 737.18 2166.77 737.32 2170.91 786.71 2172.64 786.57 2168.5 737.18">
            </polygon>
            <polygon class="cls-41" points="2134.88 734.82 2134.7 786.88 2138.46 786.92 2138.64 734.86 2134.88 734.82">
            </polygon>
            <rect class="cls-38" x="2135.39" y="738.97" width="2.7" height="3.77"
              transform="translate(1389.26 2875.28) rotate(-89.82)"></rect>
            <rect class="cls-38" x="2136.27" y="741.78" width="0.92" height="3.76"
              transform="translate(1386.42 2878.07) rotate(-89.82)"></rect>
            <rect class="cls-38" x="2136.1" y="779.49" width="1" height="3.77"
              transform="translate(1348.59 2915.54) rotate(-89.82)"></rect>
            <path class="cls-39"
              d="M2138,758.57c0,2.6-.62,4.7-1.37,4.7s-1.36-2.11-1.35-4.71.62-4.71,1.38-4.71S2138,756,2138,758.57Z">
            </path>
            <rect class="cls-38" x="2135.46" y="782.3" width="2.26" height="3.76"
              transform="translate(1345.77 2918.32) rotate(-89.82)"></rect>
            <polygon class="cls-40" points="2136.61 734.84 2134.88 734.82 2134.7 786.88 2136.44 786.9 2136.61 734.84">
            </polygon>
            <rect class="cls-42" x="2126.79" y="747.02" width="66.7" height="12.39"
              transform="translate(1402.7 2911.88) rotate(-89.89)"></rect>
            <rect class="cls-43" x="2154.01" y="721.28" width="12.38" height="2.57"></rect>
            <rect class="cls-43" x="2154.01" y="724.81" width="12.36" height="0.88"></rect>
            <rect class="cls-43" x="2153.89" y="780.83" width="12.4" height="0.96"></rect>
            <path class="cls-37"
              d="M2164.57,752.58c0,6.35-2,11.49-4.49,11.49s-4.48-5.14-4.48-11.49,2-11.48,4.48-11.48S2164.57,746.24,2164.57,752.58Z">
            </path>
            <rect class="cls-43" x="2153.89" y="782.9" width="12.48" height="2.15"></rect>
            <rect class="cls-10" x="2123.46" y="750.35" width="66.7" height="5.71"
              transform="translate(1399.19 2908.47) rotate(-89.88)"></rect>
            <g id="Books-2" data-name="Books">
              <rect class="cls-32" x="2324.47" y="635.36" width="58.15" height="18.13"></rect>
              <rect class="cls-33" x="2330.51" y="621.46" width="46.06" height="13.76"></rect>
              <path class="cls-44"
                d="M2340.23,606.78h29.69s-5.17,2.26-5,6.61,5,7.16,5,7.16h-29.69c-3,0-5.51-3.09-5.51-6.89h0c0-3.78,2.48-6.88,5.51-6.88Z">
              </path>
              <path class="cls-45"
                d="M2340.23,605.91h29.91v1.75h-29.91a4.42,4.42,0,0,0-3.4,1.76,6.84,6.84,0,0,0-1.41,4.24h0a6.82,6.82,0,0,0,1.41,4.25,4.4,4.4,0,0,0,3.4,1.77h29.91v1.75h-29.91a5.7,5.7,0,0,1-4.39-2.28,8.85,8.85,0,0,1-1.82-5.49h0a8.79,8.79,0,0,1,1.82-5.47,5.67,5.67,0,0,1,4.39-2.28Z">
              </path>
              <rect class="cls-46" x="2338.88" y="610.44" width="23.2" height="0.27"></rect>
              <rect class="cls-46" x="2337.08" y="612.44" width="23.2" height="0.27"></rect>
              <rect class="cls-46" x="2339.23" y="614.46" width="23.2" height="0.28"></rect>
              <polygon class="cls-7" points="2344.92 610.72 2358.3 619.68 2346.66 619.68 2341.61 618.07 2344.92 610.72">
              </polygon>
              <rect class="cls-46" x="2339.45" y="616.81" width="24.19" height="0.27"></rect>
              <polygon class="cls-47"
                points="2341.61 610.72 2344.92 610.72 2344.92 618.07 2343.3 616.81 2341.61 618.07 2341.61 610.72">
              </polygon>
              <path class="cls-40" d="M2341.61,612a6.18,6.18,0,0,1,3.31.31v-1.62h-3.31Z"></path>
              <rect class="cls-10" x="2330.51" y="628.34" width="46.06" height="6.88"></rect>
              <rect class="cls-10" x="2324.47" y="645.13" width="58.15" height="8.37"></rect>
            </g>
            <path class="cls-48" d="M2400.93,655.6h-84.11a10.85,10.85,0,0,0,0,21.7h84.11Z"></path>
            <path class="cls-7"
              d="M2318.54,657.71l-2.84-2.05a10.9,10.9,0,0,0-3.58,20.53,22.31,22.31,0,0,0-.91-2.38C2305.68,661.25,2318.54,657.71,2318.54,657.71Z">
            </path>
            <path class="cls-49"
              d="M2402.61,675.19H2317a8.74,8.74,0,0,1,0-17.48h85.6v-4.22H2317a13,13,0,0,0,0,25.92h85.6Z"></path>
            <path class="cls-48" d="M2209.56,629.62h-84.1a10.85,10.85,0,0,0,0,21.7h84.1Z"></path>
            <path class="cls-7"
              d="M2127.17,631.73l-2.84-2.05a10.9,10.9,0,0,0-3.58,20.53,22.31,22.31,0,0,0-.91-2.38C2114.31,635.27,2127.17,631.73,2127.17,631.73Z">
            </path>
            <path class="cls-50"
              d="M2211.24,649.21h-85.59a8.74,8.74,0,1,1,0-17.48h85.59v-4.22h-85.59a13,13,0,0,0,0,25.92h85.59Z"></path>
            <path class="cls-48" d="M2209.56,657.48h-84.1a10.85,10.85,0,0,0,0,21.7h84.1Z"></path>
            <path class="cls-7"
              d="M2127.17,659.59l-2.84-2.05a10.9,10.9,0,0,0-3.58,20.53,23.15,23.15,0,0,0-.91-2.38C2114.31,663.13,2127.17,659.59,2127.17,659.59Z">
            </path>
            <path class="cls-51"
              d="M2211.24,677.07h-85.59a8.74,8.74,0,1,1,0-17.48h85.59v-4.22h-85.59a13,13,0,0,0,0,25.92h85.59Z"></path>
            <path class="cls-48" d="M2414.73,733.78h-84.11a10.85,10.85,0,0,0,0,21.7h84.11Z"></path>
            <path class="cls-7"
              d="M2332.34,735.89l-2.84-2a10.9,10.9,0,0,0-3.58,20.53A22.66,22.66,0,0,0,2325,752C2319.48,739.43,2332.34,735.89,2332.34,735.89Z">
            </path>
            <path class="cls-50"
              d="M2416.4,753.37h-85.59a8.74,8.74,0,1,1,0-17.48h85.59v-4.22h-85.59a13,13,0,0,0,0,25.92h85.59Z"></path>
            <path class="cls-48" d="M2414.73,761.64h-84.11a10.85,10.85,0,0,0,0,21.7h84.11Z"></path>
            <path class="cls-7"
              d="M2332.34,763.75l-2.84-2a10.9,10.9,0,0,0-3.58,20.53,23.54,23.54,0,0,0-.92-2.38C2319.48,767.29,2332.34,763.75,2332.34,763.75Z">
            </path>
            <path class="cls-51"
              d="M2416.4,781.23h-85.59a8.74,8.74,0,1,1,0-17.48h85.59v-4.22h-85.59a13,13,0,0,0,0,25.92h85.59Z"></path>
          </g>
          <g id="Time">
            <path class="cls-52"
              d="M2377.3,337.91c-5.22-4.62-2.85-15.39-2.85-15.39h-15.58s2.38,10.77-2.85,15.39a18.73,18.73,0,0,1-11.33,4.62v2.59h43.95v-2.59A18.75,18.75,0,0,1,2377.3,337.91Z">
            </path>
            <rect class="cls-31" x="2344.69" y="342.53" width="43.95" height="2.6"></rect>
            <rect class="cls-53" x="2334.83" y="272.43" width="64.58" height="60.69" rx="5.67"></rect>
            <path class="cls-54" d="M2393.31,302.77a26.18,26.18,0,1,1-26.18-26.18A26.19,26.19,0,0,1,2393.31,302.77Z">
            </path>
            <path class="cls-55" d="M2386,302.77a18.86,18.86,0,1,1-18.85-18.85A18.85,18.85,0,0,1,2386,302.77Z"></path>
            <path class="cls-54" d="M2369.24,302.77a2.11,2.11,0,1,1-2.11-2.11A2.12,2.12,0,0,1,2369.24,302.77Z"></path>
            <rect class="cls-56" x="2366.66" y="287.9" width="0.95" height="15.47"></rect>
            <rect class="cls-56" x="2371.34" y="297.74" width="0.95" height="10.27"
              transform="translate(2061.67 2673.75) rotate(-89.82)"></rect>
            <rect class="cls-54" x="2348.9" y="302.77" width="1.89" height="0.59"></rect>
            <rect class="cls-54" x="2366.84" y="284.39" width="0.59" height="1.89"></rect>
            <rect class="cls-54" x="2367.31" y="318.81" width="0.59" height="1.89"></rect>
            <rect class="cls-54" x="2383.4" y="302.59" width="1.89" height="0.59"></rect>
            <path class="cls-10"
              d="M2393.75,272.43h-26.62v60.69h26.62a5.67,5.67,0,0,0,5.67-5.67V278.1A5.67,5.67,0,0,0,2393.75,272.43Z">
            </path>
          </g>
          <g id="Globe">
            <rect class="cls-57" x="2314.49" y="76.8" width="15.18" height="1.8"
              transform="translate(625.47 1665.03) rotate(-45.01)"></rect>
            <rect class="cls-57" x="2243.81" y="155.5" width="15.18" height="1.8"
              transform="translate(734.93 1827.81) rotate(-51.76)"></rect>
            <path class="cls-58"
              d="M2322.22,71h0a57.51,57.51,0,1,1-75.89,86.42h0l-2.64,3h0A61.51,61.51,0,1,0,2324.86,68h0Z"></path>
            <polygon class="cls-58" points="2287.22 175.68 2298.57 195.33 2275.87 195.33 2287.22 175.68"></polygon>
            <rect class="cls-59" x="2255.25" y="195.33" width="63.94" height="7.03"></rect>
            <rect class="cls-60" x="2250.11" y="201.8" width="74.21" height="8.16"></rect>
            <g id="Globe-2" data-name="Globe">
              <path class="cls-61" d="M2336.67,114.1a53,53,0,1,1-53-53A53,53,0,0,1,2336.67,114.1Z"></path>
              <path class="cls-62"
                d="M2314.2,141c-.34,0-.74-.64-1.18-1s-2.77.11-3.33.11a2.4,2.4,0,0,1-1.36-.56c-.51-.31-1.07.07-1.47.16s-.58-.27-.34-.72-.82-.33-1.63-.17-.49.55-1.13.33.75-1,1.22-1.52-.09-1.49-.35-1.58-.79-.9-1.59-1.52-1.41-.16-2.37-.16a2.12,2.12,0,0,1-1.63-.76c-.44-.33-.31-1-2.1-1.94s-1-.43-.91-.6.29-.16-.34-.45-1.14.34-1.76.58a3.06,3.06,0,0,1-1.65.11c-.27-.07-.58-.71-.9-.85a1.88,1.88,0,0,1-.78-.73.47.47,0,0,0-.82.4c0,.58-.32.91-.94,1.16s-.36-.69-.36-1,.56-.58.6-1-.56.42-1.14,1.05-1,0-2.09.16-.59,1.27-.59,1.92-.93.87-1.09.71-.16-.51-.49-.51-.43-.54-.51-.74a1.21,1.21,0,0,0-1.66.4c-.42.81-.87.16-1.38,0s-1.52-2.16-1.3-2.52.23-.51,0-.76-.13-.43.07-.8.73-.74-.34-1.43-2.74-.09-3.64-.18-.18-.74,0-.92a4.45,4.45,0,0,0,.72-1.34c.18-.53-.16-.58.15-1.29s.23-1.21-.49-1.25a1.4,1.4,0,0,0-1.43,1.51c0,1-1.07,1-3.44.81s-2.14-2.06-2.41-3.57.49-2.82.54-3.58,1-1.6,1.87-2.27a3.33,3.33,0,0,1,2.17-.5,14.63,14.63,0,0,0,2.26.32c.53,0,.08-.45.13-1s2.64-.17,3.08-.17.36.35.85.84.4-.49.89-.4.09.4.81,1.57a5.75,5.75,0,0,1,.8,2.54c.22,1,.72.49,1-.31s-.36-3.4-.54-4.74,1-.84,2.19-2.1,2.37-1.34,2.9-2.23,0-2.37.27-1.56.36-.31.4-1.16.5-1.21.72-.72.49.14.67-.71a5.82,5.82,0,0,1,1.29-2.15c.36-.42,1.08,0,2.06,0s0-.17-.25-1.16a1,1,0,0,1,1-1.31,10.69,10.69,0,0,0,2.36-1.1c.36-.22.83-.2,1.46.27s-.58.11-1,.8.58.78,1,.16,1.36-.34,2.16-1.14-.91-.51-1.29-.62-.61-1.06-.58-1.36a2.14,2.14,0,0,0-.64-1.4c-.4-.34-1.44,0-2.34.4s-1.17.7-1.11.27,1.58-1.44,2-1.51a4.73,4.73,0,0,0,2.08-1.14c.53-.6,2.07.1,2.78.17s1.7.47,2.07,0,.67-.5,1.41-.6.87-1.17.37-1.64-1.24-2.18-2.28-2.71-.64-.87-.3-1.31-1.05-1.51-1.5-2.62,0-1.39-.49-1.43-.18.8-.45,1.56-1.38.36-1.56.31a1.93,1.93,0,0,1-.76-1.52c.05-.71.23-1.33,0-1.56s-.71,0-1-.31-.63-1.07-1-1.43-1.29-.13-1.92-.27-1.2.09-1.07.49a6.24,6.24,0,0,1-.18,2.37c-.22,1.43-.67.67-1,1s.23.44.54,1.47a2.11,2.11,0,0,1-.71,2.1,7.36,7.36,0,0,1-2,.76c-.67.22,0,1.07.13,1.79a2.3,2.3,0,0,1-.94,1.87c-.36.14-1.52-1.34-1.61-2.19s.72-1.78.36-2-1.74-.27-3-1.34-2.85-1.65-3.39-3,.54-2.45,1-3.39,1.34-.81,2.77-1.34.54-1,.89-1,1.52-.18,1.79-.54a5,5,0,0,1,1.48-1c.58-.31.71-.94.93-1.3s.85.49,1.57.4.67.14,1.65-.31.13-.71,0-1.21.63-.35.41-.89a2.12,2.12,0,0,0-1.86-1c-.65.09.2.71-.47,1.34s-.53,1-.76,1.12-1.2-.23-1.2-.54.44-.58.62-.71-.13-.81-.22-1-.49.27-.58.71-.58.49-.45.09-.36-.89-.71-1.38.35-.45.76-1.07.27-.9-.27-1.21-1.16.18-1.79.85-.4.62-.18,1.47,0,0,.14.81-1,.71-1,.71a3.91,3.91,0,0,1-.8-.13c-.23-.09,0-.41-.49-.58s-.72.62-.72.62-1.34,0-1.88,0a2.24,2.24,0,0,1-1.42-.49,2,2,0,0,0-1.39-.67c-.58,0-.8.49-.8,1.07s-1,.62-.94.35a7,7,0,0,0-.13-1.2l-.54.31-2-.13c-.49-.05-.31-.67-.31-.67l1-.09.14-.22a1.7,1.7,0,0,0-.54-.36c-.27-.09-1.43-.31-1.43-.31l-.35-.5h-.76c-.23,0-.58.45-.76.45s-.18-.49-.18-.49l.09-.4-.45.22c-.45.22-.62,0-.62,0l.17-.45,0-.49s-.27-.32-.27-.09a.94.94,0,0,1-.85.67c-.4,0-.67.36-1.25.22a3.35,3.35,0,0,0-2.32.81c-.63.53-1,.71-.89.08s-1.75-.53-2.06-.67a10.46,10.46,0,0,0-1.87-.31,1.09,1.09,0,0,1-.94-.71l-.31-1.1a52.72,52.72,0,0,0-10.74,7.73,9.85,9.85,0,0,0,1,1.63.55.55,0,0,0,.62,0,37.28,37.28,0,0,0-3.26,2.62c-2,1.78-1.34,2-1.34,2.65s.41.4.41.4l-2,2.06c-.45.44-1.25,1.07-1.25,1.07l-.81,1,.36.13,4.86-4.07s.3-.07.33-.24a2.15,2.15,0,0,1,.4-.77,4.38,4.38,0,0,0,.54-.73,3.1,3.1,0,0,0,.67-.47c.37-.34.74-.84,1-.87s0,.43-.54.87a7.61,7.61,0,0,0-1.17,1.37s1.77-.94,2.38-1.34.4-1,.63-1,.77.47.94,1,.37-.1,1.27,0,.31.81.64,1.28.34.6,1.21.4-.34,1.88-.34,1.88l-.07.66a3.63,3.63,0,0,1,.34.54c0,.07-.4,1.27-.4,1.27h.67a2.57,2.57,0,0,1-.61.54c-.33.2.07.74.41,1s0,0-.47,1.08,0,.73.53,1.47a18.2,18.2,0,0,0,1.28,1.54c.4.47,0,1.54-.41,1.61s-1.27-.6-1.27-.6c.07,10-.6,3.35-.94,4.22s-.8,1.34-.8,1.87a3.31,3.31,0,0,1-.54,2.08c-.53.74-.06,2.41,0,2.61s.5,1.07.5,1.07v2.75c0,.89,1.6,1.34,2.14,2.1a5.29,5.29,0,0,1,.44,2.48,3.06,3.06,0,0,0,.7,1.14c.31.29.33.78.58,1.23s-.38.29-.45.87.56.6.9.73a.7.7,0,0,1,.49,1c-.18.63-.09.41.24.76s.18.14.36.81.62.38.62.38v.4c0,.11.41.22.41.22l.26-.4s-.2-.09-.2-.16,0-.4,0-.4l-.6-.24a3,3,0,0,1-.09-.47v-.58c0-.09-.23-.16-.23-.16s0-.6,0-1-.58-.69-.6-.85a2.46,2.46,0,0,0-.29-1,3.3,3.3,0,0,1-.74-1.81c0-.76-.18-1.25.11-1.25s.78.74.92.87a5.62,5.62,0,0,0,.58,1.85,20.71,20.71,0,0,1,1.87,2.66c-.14.13-.5.08-.3.59a1.37,1.37,0,0,0,1.05.72c.37.1,1,2.14,1.38,2.81s-.11.67-.2,1.1,0,.67.7,1,.53,1,1.3,1.27,2.28,1.22,2.68,1.3.36.45.9.5a1.43,1.43,0,0,1,.89.4c.27.18,1.21-.18,1.39-.31s.35-.09.84,0,1.93,1.6,2.37,2,.81-.18,1.16,0a3.92,3.92,0,0,0,1.3.54c.27,0,.27-.27.45-.27s0,.36.71,1.21.53,1,.53,1.16.32.8.76.71.9.38.9.38v.74s1.52.09,1.83.18.36.75.49.84.67-.53.58-.89.58-.53.85-.8.62.31.85.58a2.9,2.9,0,0,1,.71,1.47c0,.54,0,1.34,0,2.19s-.67,1.25-1.16,1.83-.94.85-1.16,1.12a2.57,2.57,0,0,0-.32,1.61c.09.49.72,0,.72.62s-.58.27-1.25.81.09.58.31,1-.31.09-.31.63.8.44,1.56.67,1.56,2.19,2,3.21.89,1.92,1.34,2.1.49.58,1.43.81,1.67,1,2.2,1,.51.9.34,1.27,0,.47.11,1.81a19.9,19.9,0,0,1-.45,4.69c-.14.33-.1.27.14.51s-.4,1.32-.42,1.65-.65.54-.78.85.31.32.4.61-.18,1,.09,1.27.51.18.58.6a.71.71,0,0,1-.69.83c-.45,0-.45.47-.25.31a.45.45,0,0,1,.47,0l.36.63c1.09-.11,2.18-.26,3.25-.43.23-.27.43-.49.59-.51.53-.09.27-.63,0-1.74s.76-.18,1.43-.45.45-1.16,1.39-1.3a4,4,0,0,0,2.37-1.6c.4-.63-.18-.94,1.29-.76s2.81-1.7,4-3.08.13-1.84,2.18-3.13,5.39-4.81,5.59-5.92-.37-1.14.8-1.91a9.34,9.34,0,0,0,2.78-3.52C2314.87,141.86,2314.53,141,2314.2,141Z">
              </path>
              <path class="cls-62"
                d="M2302.88,67.47c-1.69,0-2.05,1.7-.53,2s4.64.27,5.18,2.5-1.61,2.86,0,3.93-.36,2.24-.36,3.75A4.43,4.43,0,0,0,2309,83.2c1.07.8,2.14,1.87,2.23,2.5s1.16.44,1.16.44a2.35,2.35,0,0,1,0-.89c.09-.54,1-1.16,1-2.68s.79-1.43,1.42-1.34,1.88-.09,2.24,0,2.5.09,2.68-1-1.43-2.68-1.43-2.68a6.72,6.72,0,0,0,.89-2.18,3.53,3.53,0,0,0-.25-.89,52.94,52.94,0,0,0-14.64-9.25C2304.25,66.09,2304.07,67.47,2302.88,67.47Z">
              </path>
              <path class="cls-55"
                d="M2334.59,111.11c-3.08-2.54-5.09-2.54-5.36-1.87s2.15,3.08,0,6-3.75,4.16-2.94,6.57-3.37,4.55-.21,6.7,2.49,2.14,4.76,2,1.95,3.41,1.79,3.9a53,53,0,0,0,4-20.34c0-.22,0-.44,0-.66A8.61,8.61,0,0,0,2334.59,111.11Z">
              </path>
              <path class="cls-63" d="M2288.58,166.86a53,53,0,0,0,4.3-105C2323.61,74.26,2338.88,149.3,2288.58,166.86Z">
              </path>
            </g>
          </g>
        </g>
      </g>
    </g>
  </g>
</svg>