<svg xmlns="http://www.w3.org/2000/svg"
  viewBox="1707.2322998046875 -63.273712158203125 1128.5423583984375 1128.5423583984375">
  <defs>
    <style>
      .cls-1 {
        fill: #006481;
      }

      .cls-2 {
        fill: #148099;
      }

      .cls-3 {
        fill: #f1a300;
      }

      .cls-4 {
        fill: #0aa386;
      }

      .cls-10,
      .cls-5 {
        opacity: 0.3;
      }

      .cls-14,
      .cls-6 {
        opacity: 0.7;
      }

      .cls-11,
      .cls-16,
      .cls-7 {
        fill: #fff;
      }

      .cls-8 {
        fill: #ff8713;
      }

      .cls-9 {
        fill: #c6c6c6;
      }

      .cls-11,
      .cls-17 {
        opacity: 0.2;
      }

      .cls-12 {
        fill: #ffab10;
      }

      .cls-13 {
        fill: #f9e0bb;
      }

      .cls-15 {
        fill: #ff4321;
      }

      .cls-16,
      .cls-23 {
        opacity: 0.1;
      }

      .cls-18 {
        fill: #ff710d;
      }

      .cls-19 {
        fill: #007ca5;
      }

      .cls-20 {
        fill: #ededed;
      }

      .cls-21 {
        fill: #eaeaea;
      }

      .cls-22 {
        fill: #00693c;
      }

      .cls-24 {
        fill: #fffefe;
      }

      .cls-25 {
        fill: #ff4909;
      }
    </style>
  </defs>
  <g id="Réteg_2" data-name="Réteg 2">
    <g id="Education_Science" data-name="Education &amp; Science">
      <g id="Math_Lesson" data-name="Math Lesson">
        <g id="Background">
          <!-- <rect id="Background_1" data-name="Background 1" class="cls-1" width="3000" height="1002" /> -->
          <circle id="Background_2" data-name="Background 2" class="cls-2" cx="2271.5" cy="501" r="399"
            transform="translate(311.05 1752.93) rotate(-45)"></circle>
        </g>
        <g id="Math_Lesson-2" data-name="Math Lesson">
          <g id="Board">
            <rect class="cls-3" x="2016.47" y="145.72" width="706.89" height="371.63" rx="20.41"></rect>
            <rect class="cls-4" x="2047.34" y="173.66" width="645.16" height="315.76"></rect>
            <polygon class="cls-5"
              points="2057.08 173.47 2047.34 173.47 2047.34 182.24 2047.34 365.91 2057.08 365.91 2057.08 182.24 2070.3 182.24 2692.5 182.24 2692.5 173.47 2057.08 173.47">
            </polygon>
            <g class="cls-6">
              <path class="cls-7"
                d="M2142.51,257.21a9.11,9.11,0,0,1-.77,3.69,17.13,17.13,0,0,1-2,3.51,35.22,35.22,0,0,1-2.87,3.4q-1.59,1.68-3.18,3.27-.91.9-2.1,2.13a30.28,30.28,0,0,0-2.26,2.55,19.83,19.83,0,0,0-1.78,2.55,4.33,4.33,0,0,0-.72,2.13h16.95v4.19h-22.32a4.46,4.46,0,0,1,0-.63v-.59a12.92,12.92,0,0,1,.82-4.65,19.59,19.59,0,0,1,2.15-4.07,29.14,29.14,0,0,1,3-3.61l3.24-3.3c.89-.85,1.73-1.69,2.53-2.52a26.1,26.1,0,0,0,2.12-2.5,12,12,0,0,0,1.49-2.58,7.19,7.19,0,0,0,.56-2.81,6.71,6.71,0,0,0-.5-2.72,5.47,5.47,0,0,0-1.36-1.86,5.58,5.58,0,0,0-2-1.09,8.38,8.38,0,0,0-2.42-.34,9,9,0,0,0-2.82.42,14.2,14.2,0,0,0-2.28,1,9.1,9.1,0,0,0-1.71,1.17l-1.06.93-2.45-3.51a12,12,0,0,1,1.44-1.3,13.31,13.31,0,0,1,2.29-1.47,16.12,16.12,0,0,1,3-1.17,13.09,13.09,0,0,1,3.56-.47c3.87,0,6.76.89,8.7,2.68S2142.51,254,2142.51,257.21Z">
              </path>
              <path class="cls-7" d="M2150.49,266.61h10v-11h4.26v11h10v4.2h-10v11h-4.26v-11h-10Z"></path>
              <path class="cls-7"
                d="M2202.47,257.21a9.28,9.28,0,0,1-.77,3.69,17.13,17.13,0,0,1-2,3.51,36.57,36.57,0,0,1-2.86,3.4q-1.61,1.68-3.19,3.27-.92.9-2.1,2.13a32.16,32.16,0,0,0-2.26,2.55,19.83,19.83,0,0,0-1.78,2.55,4.33,4.33,0,0,0-.72,2.13h17v4.19h-22.33a3.35,3.35,0,0,1,0-.63v-.59a12.92,12.92,0,0,1,.82-4.65,19.59,19.59,0,0,1,2.15-4.07,29.14,29.14,0,0,1,3-3.61l3.24-3.3c.89-.85,1.73-1.69,2.53-2.52a27.63,27.63,0,0,0,2.12-2.5,12,12,0,0,0,1.49-2.58,7.19,7.19,0,0,0,.56-2.81,6.54,6.54,0,0,0-.51-2.72,5.31,5.31,0,0,0-1.35-1.86,5.58,5.58,0,0,0-2-1.09,8.38,8.38,0,0,0-2.42-.34,9,9,0,0,0-2.82.42,14.73,14.73,0,0,0-2.29,1,9.34,9.34,0,0,0-1.7,1.17l-1.06.93-2.44-3.51a11,11,0,0,1,1.43-1.3,13.31,13.31,0,0,1,2.29-1.47,16.12,16.12,0,0,1,3-1.17,13.09,13.09,0,0,1,3.56-.47c3.87,0,6.76.89,8.69,2.68S2202.47,254,2202.47,257.21Z">
              </path>
              <path class="cls-7" d="M2210.45,261h24.34v4.2h-24.34Zm0,11.32h24.34v4.2h-24.34Z"></path>
              <path class="cls-7"
                d="M2247.71,281.76a3.61,3.61,0,0,1-1,2.5,3.71,3.71,0,0,1-5.21,0,3.75,3.75,0,0,1,0-5,3.71,3.71,0,0,1,5.21,0A3.6,3.6,0,0,1,2247.71,281.76Z">
              </path>
              <path class="cls-7"
                d="M2260.78,281.76a3.64,3.64,0,0,1-1,2.5,3.34,3.34,0,0,1-2.61,1.07,3.31,3.31,0,0,1-2.6-1.07,3.72,3.72,0,0,1,0-5,3.31,3.31,0,0,1,2.6-1.07,3.34,3.34,0,0,1,2.61,1.07A3.64,3.64,0,0,1,2260.78,281.76Z">
              </path>
              <path class="cls-7"
                d="M2273.86,281.76a3.61,3.61,0,0,1-1,2.5,3.71,3.71,0,0,1-5.21,0,3.72,3.72,0,0,1,0-5,3.71,3.71,0,0,1,5.21,0A3.6,3.6,0,0,1,2273.86,281.76Z">
              </path>
              <path class="cls-7"
                d="M2142.51,384.78a9.13,9.13,0,0,1-.77,3.7,17.34,17.34,0,0,1-2,3.5,35.31,35.31,0,0,1-2.87,3.41q-1.59,1.67-3.18,3.26l-2.1,2.13a33.78,33.78,0,0,0-2.26,2.55,21.32,21.32,0,0,0-1.78,2.55,4.4,4.4,0,0,0-.72,2.13h16.95v4.2h-22.32a4.6,4.6,0,0,1,0-.64V411a12.94,12.94,0,0,1,.82-4.66,19.26,19.26,0,0,1,2.15-4.06,29.23,29.23,0,0,1,3-3.62q1.65-1.69,3.24-3.29c.89-.85,1.73-1.69,2.53-2.53a24.93,24.93,0,0,0,2.12-2.5,12.23,12.23,0,0,0,1.49-2.57,7.28,7.28,0,0,0,.56-2.82,6.66,6.66,0,0,0-.5-2.71,5.37,5.37,0,0,0-1.36-1.86,5.29,5.29,0,0,0-2-1.09,8.38,8.38,0,0,0-2.42-.35,8.69,8.69,0,0,0-2.82.43,13.36,13.36,0,0,0-2.28,1,9.1,9.1,0,0,0-1.71,1.17l-1.06.93-2.45-3.51a14,14,0,0,1,3.73-2.76,16.12,16.12,0,0,1,3-1.17,12.71,12.71,0,0,1,3.56-.48c3.87,0,6.76.9,8.7,2.69S2142.51,381.52,2142.51,384.78Z">
              </path>
              <path class="cls-7"
                d="M2162.82,375.8a22.85,22.85,0,0,1-.4,4.28c-.27,1.36-.54,2.77-.82,4.22,1.27-.71,2.53-1.4,3.77-2.07a26,26,0,0,1,4-1.75l.32-.11,1.49,4.46-.43.16a17.82,17.82,0,0,1-4.25,1c-1.42.16-2.87.29-4.36.4,1.17,1,2.27,2,3.3,2.89a21.39,21.39,0,0,1,2.87,3.27l.26.38-3.88,2.71-.21-.32a34.14,34.14,0,0,1-2.21-3.8c-.62-1.26-1.25-2.56-1.88-3.91-.64,1.35-1.27,2.65-1.89,3.91a34.14,34.14,0,0,1-2.21,3.8l-.21.32-3.88-2.71.27-.38a20.36,20.36,0,0,1,2.87-3.27c1-.93,2.12-1.9,3.29-2.89-1.49-.11-2.94-.24-4.36-.4a17.94,17.94,0,0,1-4.25-1l-.43-.16,1.5-4.46.31.11a25.61,25.61,0,0,1,4,1.75l3.78,2.07c-.29-1.45-.56-2.86-.83-4.22a22.85,22.85,0,0,1-.4-4.28v-.43h4.79Z">
              </path>
              <path class="cls-7"
                d="M2175.31,399.45a56.51,56.51,0,0,1,2.77-5.45q1.74-3.11,4-6.4t4.73-6.49a68.51,68.51,0,0,1,5.08-5.74h4.73v23.39h4.36v4h-4.36v9.41h-4.78V402.8h-16.48Zm16.48-18.23a49.52,49.52,0,0,0-3.22,3.8q-1.62,2.1-3.16,4.38c-1,1.53-2,3.09-2.9,4.68s-1.71,3.16-2.42,4.68h11.7Z">
              </path>
              <path class="cls-7" d="M2206,388.55h24.35v4.2H2206Zm0,11.33h24.35v4.2H2206Z"></path>
              <path class="cls-7"
                d="M2243.24,409.34a3.64,3.64,0,0,1-.95,2.5,3.37,3.37,0,0,1-2.61,1.06,3.33,3.33,0,0,1-2.6-1.06,3.74,3.74,0,0,1,0-5,3.3,3.3,0,0,1,2.6-1.06,3.33,3.33,0,0,1,2.61,1.06A3.64,3.64,0,0,1,2243.24,409.34Z">
              </path>
              <path class="cls-7"
                d="M2256.32,409.34a3.61,3.61,0,0,1-1,2.5,3.73,3.73,0,0,1-5.21,0,3.76,3.76,0,0,1,0-5,3.73,3.73,0,0,1,5.21,0A3.61,3.61,0,0,1,2256.32,409.34Z">
              </path>
              <path class="cls-7"
                d="M2269.39,409.34a3.6,3.6,0,0,1-.95,2.5,3.37,3.37,0,0,1-2.61,1.06,3.33,3.33,0,0,1-2.6-1.06,3.74,3.74,0,0,1,0-5,3.3,3.3,0,0,1,2.6-1.06,3.33,3.33,0,0,1,2.61,1.06A3.6,3.6,0,0,1,2269.39,409.34Z">
              </path>
            </g>
          </g>
          <g id="Mistar">
            <path class="cls-8"
              d="M2068.33,362.16c-134.15,0-243.49,106.13-248.7,239h75.8a173.18,173.18,0,0,1,345.8,0H2317C2311.81,468.29,2202.47,362.16,2068.33,362.16Z">
            </path>
            <rect class="cls-9" x="1819.63" y="601.16" width="497.38" height="86.29"></rect>
            <g class="cls-10">
              <path
                d="M1847.44,605a3.82,3.82,0,0,0-3.82-3.82h0a3.82,3.82,0,0,0-3.82,3.82v56.8a3.82,3.82,0,0,0,3.82,3.82h0a3.82,3.82,0,0,0,3.82-3.82Z">
              </path>
              <path
                d="M1920.48,661.77a3.82,3.82,0,0,1-3.82,3.83h0a3.83,3.83,0,0,1-3.83-3.83V605a3.83,3.83,0,0,1,3.83-3.82h0a3.82,3.82,0,0,1,3.82,3.82Z">
              </path>
              <path
                d="M1993.52,605a3.82,3.82,0,0,0-3.82-3.82h0a3.82,3.82,0,0,0-3.83,3.82v56.8a3.82,3.82,0,0,0,3.83,3.82h0a3.82,3.82,0,0,0,3.82-3.82Z">
              </path>
              <path
                d="M2066.56,661.77a3.83,3.83,0,0,1-3.83,3.83h0a3.82,3.82,0,0,1-3.82-3.83V605a3.82,3.82,0,0,1,3.82-3.82h0a3.83,3.83,0,0,1,3.83,3.82Z">
              </path>
              <path
                d="M2139.59,605a3.82,3.82,0,0,0-3.82-3.82h0A3.82,3.82,0,0,0,2132,605v56.8a3.82,3.82,0,0,0,3.82,3.82h0a3.82,3.82,0,0,0,3.82-3.82Z">
              </path>
              <path
                d="M2212.63,661.77a3.82,3.82,0,0,1-3.82,3.83h0a3.82,3.82,0,0,1-3.82-3.83V605a3.82,3.82,0,0,1,3.82-3.82h0a3.82,3.82,0,0,1,3.82,3.82Z">
              </path>
              <path
                d="M2285.67,605a3.82,3.82,0,0,0-3.82-3.82h0A3.82,3.82,0,0,0,2278,605v56.8a3.82,3.82,0,0,0,3.83,3.82h0a3.82,3.82,0,0,0,3.82-3.82Z">
              </path>
            </g>
            <rect class="cls-11" x="1819.63" y="665.6" width="497.38" height="21.84"></rect>
          </g>
          <g id="Pencil">
            <path class="cls-12"
              d="M2152.87,501.09c-.23.51-.45,1-.64,1.55L2027.1,844.22a21.14,21.14,0,0,0,39.7,14.54l125.13-341.58c.19-.53.35-1.06.5-1.59l-19.78-7.25Z">
            </path>
            <polygon class="cls-13"
              points="2185.17 474.18 2188.82 494.89 2192.48 515.6 2171.24 513.82 2152.83 501.08 2169 487.63 2185.17 474.18">
            </polygon>
            <polygon class="cls-14"
              points="2185.17 474.18 2178.84 479.44 2179.47 484.48 2182.86 482.9 2184.18 485.76 2186.98 484.46 2185.17 474.18">
            </polygon>
            <path class="cls-15" d="M2026.65,845.63a21.13,21.13,0,0,0,39.58,14.5Z"></path>
            <path class="cls-16"
              d="M2152.87,501.09c-.23.51-.45,1-.64,1.55L2027.1,844.22a22.42,22.42,0,0,0,2.07,19.06l6.77,6.25,132.83-362.61Z">
            </path>
            <path class="cls-17"
              d="M2183.37,514.84l-130.79,357a21.14,21.14,0,0,0,14.22-13.1l125.13-341.58c.19-.53.35-1.06.5-1.59Z"></path>
            <path class="cls-18"
              d="M2222.57,474.09c-.23.51-.45,1-.64,1.55L2096.8,817.22a21.13,21.13,0,1,0,39.69,14.54l125.13-341.58q.28-.8.51-1.59l-19.78-7.25Z">
            </path>
            <polygon class="cls-13"
              points="2254.86 447.18 2258.52 467.89 2262.17 488.6 2240.93 486.82 2222.52 474.08 2238.69 460.63 2254.86 447.18">
            </polygon>
            <polygon class="cls-14"
              points="2254.86 447.18 2248.53 452.44 2249.17 457.48 2252.55 455.9 2253.88 458.76 2256.68 457.46 2254.86 447.18">
            </polygon>
            <path class="cls-15" d="M2096.34,818.63a21.13,21.13,0,0,0,39.59,14.5Z"></path>
            <path class="cls-16"
              d="M2222.57,474.09c-.23.51-.45,1-.64,1.55L2096.8,817.22a22.35,22.35,0,0,0,2.07,19.06l6.76,6.25,132.84-362.61Z">
            </path>
            <path class="cls-17"
              d="M2253.07,487.84l-130.79,357a21.1,21.1,0,0,0,14.21-13.1l125.13-341.58q.28-.8.51-1.59Z"></path>
            <path class="cls-19"
              d="M2295.84,442.88c-.23.5-.45,1-.64,1.54L2170.07,786a21.14,21.14,0,0,0,39.69,14.55L2334.89,459c.2-.52.36-1.06.51-1.59l-19.78-7.24Z">
            </path>
            <polygon class="cls-13"
              points="2328.13 415.96 2331.79 436.68 2335.44 457.39 2314.2 455.61 2295.79 442.87 2311.96 429.42 2328.13 415.96">
            </polygon>
            <polygon class="cls-14"
              points="2328.13 415.96 2321.81 421.23 2322.43 426.26 2325.82 424.69 2327.15 427.55 2329.95 426.25 2328.13 415.96">
            </polygon>
            <path class="cls-15" d="M2169.61,787.42a21.13,21.13,0,0,0,39.59,14.5Z"></path>
            <path class="cls-16"
              d="M2295.84,442.88c-.23.5-.45,1-.64,1.54L2170.07,786a22.38,22.38,0,0,0,2.07,19.07l6.76,6.25,132.84-362.61Z">
            </path>
            <path class="cls-17"
              d="M2326.34,456.62l-130.79,357a21.09,21.09,0,0,0,14.21-13.09L2334.89,459c.2-.52.36-1.06.51-1.59Z"></path>
          </g>
          <g id="Shape">
            <path class="cls-20"
              d="M2670.24,397.12a64.16,64.16,0,0,0-72.84,63.66,65.14,65.14,0,0,0,.77,9.94h9a55.41,55.41,0,0,1,63.1-64.69Z">
            </path>
            <path class="cls-21"
              d="M2636.59,436q0,6.6-3.29,10t-9.76,3.42l-.1-2.5a15.57,15.57,0,0,0,3.64-.39,8,8,0,0,0,2.84-1.23,7.31,7.31,0,0,0,2-2.2,10.23,10.23,0,0,0,1.2-3.3,9.52,9.52,0,0,1-1.89.62,9.35,9.35,0,0,1-2.18.25,8,8,0,0,1-3.21-.57,5.85,5.85,0,0,1-2.15-1.5,5.62,5.62,0,0,1-1.2-2.18,8.91,8.91,0,0,1-.37-2.59,7.85,7.85,0,0,1,.42-2.46,7.32,7.32,0,0,1,1.26-2.35,6.52,6.52,0,0,1,5.28-2.4,7.59,7.59,0,0,1,3.22.64,6.24,6.24,0,0,1,2.34,1.86,8.38,8.38,0,0,1,1.43,3A14.79,14.79,0,0,1,2636.59,436Zm-7.18,2.21a10.2,10.2,0,0,0,2.11-.21,9.27,9.27,0,0,0,1.93-.63q0-.35,0-.69V436a17.4,17.4,0,0,0-.19-2.65,7,7,0,0,0-.69-2.21,4.16,4.16,0,0,0-1.33-1.51,3.7,3.7,0,0,0-2.12-.56,3.41,3.41,0,0,0-1.8.45,4,4,0,0,0-1.21,1.14,4.26,4.26,0,0,0-.69,1.5,6.44,6.44,0,0,0-.21,1.59,4.74,4.74,0,0,0,1,3.32A4,4,0,0,0,2629.41,438.25Z">
            </path>
            <path class="cls-21"
              d="M2640.21,438.25q0-5.58,2-8.6a6.47,6.47,0,0,1,10.93,0c1.32,2,2,4.88,2,8.6s-.65,6.58-2,8.59a6.45,6.45,0,0,1-10.93,0Q2640.21,443.83,2640.21,438.25Zm11.74,0a27.3,27.3,0,0,0-.21-3.47,11.43,11.43,0,0,0-.7-2.85,5.07,5.07,0,0,0-1.33-1.94,3.29,3.29,0,0,0-4.11,0,5,5,0,0,0-1.33,1.94,11,11,0,0,0-.7,2.85,28.69,28.69,0,0,0,0,6.93,11.2,11.2,0,0,0,.7,2.86,5,5,0,0,0,1.33,1.94,3.29,3.29,0,0,0,4.11,0,5.15,5.15,0,0,0,1.33-1.94,11.63,11.63,0,0,0,.7-2.86A27.14,27.14,0,0,0,2652,438.25Z">
            </path>
            <path class="cls-20" d="M2670.24,470.72h-267.5l267.5-267.5Zm-251.94-6.44h245.5V218.77Z"></path>
            <path class="cls-20"
              d="M2657.34,429.93a3.63,3.63,0,1,1,3.62-3.62A3.63,3.63,0,0,1,2657.34,429.93Zm0-6.44a2.82,2.82,0,1,0,2.82,2.82A2.82,2.82,0,0,0,2657.34,423.49Z">
            </path>
            <path class="cls-20" d="M2305.52,287.48l58.3-101,58.31,101Zm58.3-93.37-51.71,89.57h103.43Z"></path>
            <path class="cls-20" d="M2432.93,369.91h-138.2V288.56h138.2Zm-131.76-6.44h125.31V295H2301.17Z"></path>
            <path class="cls-20"
              d="M2442.21,275.67l22.72-81.37h148l-22.72,81.37Zm26.73-76.09-19.78,70.82h137l19.78-70.82Z"></path>
          </g>
          <g id="Books">
            <g id="Book2">
              <path class="cls-22"
                d="M2575.35,790.69H2400.43c-11,0-19.89-8.3-19.89-18.55v-211h.05c0-.43-.05-.87-.05-1.32a20.17,20.17,0,0,1,20-20.35h174.85Z">
              </path>
              <path class="cls-23"
                d="M2395.15,790c-8.42-2.16-14.61-9.35-14.61-17.89v-211h.05c0-.43-.05-.87-.05-1.32a20.31,20.31,0,0,1,14.61-19.6Z">
              </path>
              <path class="cls-24" d="M2573.9,787.41H2401.75c-9.92,0-18-7.57-18-16.91s8-16.92,18-16.92H2573.9Z"></path>
            </g>
            <g id="Book2-2" data-name="Book2">
              <path class="cls-25"
                d="M2664.64,758.47H2489.72c-11,0-19.89-8.31-19.89-18.56v-211h.05c0-.43-.05-.87-.05-1.32a20.16,20.16,0,0,1,20-20.35h174.85Z">
              </path>
              <path class="cls-23"
                d="M2484.44,757.81c-8.42-2.16-14.61-9.35-14.61-17.9v-211h.05c0-.43-.05-.87-.05-1.32a20.31,20.31,0,0,1,14.61-19.6Z">
              </path>
              <path class="cls-24" d="M2663.19,755.19H2491c-9.92,0-18-7.57-18-16.91s8-16.92,18-16.92h172.15Z"></path>
            </g>
          </g>
        </g>
      </g>
    </g>
  </g>
</svg>