<svg xmlns="http://www.w3.org/2000/svg" xmlns:xlink="http://www.w3.org/1999/xlink"
  viewBox="294.6000061035156 12.390000343322754 161.29000854492188 144.4199981689453">
  <defs>
    <style>
      .cls-1 {
        isolation: isolate;
      }

      .cls-2 {
        fill: url(#linear-gradient);
      }

      .cls-3 {
        fill: #62add3;
      }

      .cls-14,
      .cls-27,
      .cls-3,
      .cls-8 {
        opacity: 0.25;
      }

      .cls-14,
      .cls-15,
      .cls-3,
      .cls-8 {
        mix-blend-mode: multiply;
      }

      .cls-29,
      .cls-32,
      .cls-4,
      .cls-5,
      .cls-7 {
        fill: #fff;
      }

      .cls-15,
      .cls-4 {
        opacity: 0.2;
      }

      .cls-31,
      .cls-4,
      .cls-5 {
        mix-blend-mode: overlay;
      }

      .cls-5 {
        opacity: 0.35;
      }

      .cls-6 {
        fill: #3f74b5;
      }

      .cls-15,
      .cls-8 {
        fill: #3aa27f;
      }

      .cls-9 {
        fill: url(#linear-gradient-2);
      }

      .cls-10 {
        fill: #f4511e;
      }

      .cls-11 {
        fill: #4e342e;
      }

      .cls-12 {
        fill: #ffca4d;
      }

      .cls-13 {
        fill: url(#linear-gradient-3);
      }

      .cls-14 {
        fill: #ffaf4d;
      }

      .cls-16 {
        fill: url(#linear-gradient-4);
      }

      .cls-17 {
        fill: #e6faff;
      }

      .cls-18 {
        fill: #7bd0a9;
      }

      .cls-19 {
        fill: #34b67a;
      }

      .cls-20 {
        fill: url(#linear-gradient-5);
      }

      .cls-21 {
        fill: #f2f2f2;
      }

      .cls-22 {
        fill: url(#linear-gradient-6);
      }

      .cls-23 {
        fill: url(#linear-gradient-7);
      }

      .cls-24 {
        fill: #d9fafc;
      }

      .cls-25 {
        fill: url(#linear-gradient-8);
      }

      .cls-26 {
        fill: url(#linear-gradient-9);
      }

      .cls-27,
      .cls-28,
      .cls-30 {
        fill: #efebe9;
      }

      .cls-28,
      .cls-32 {
        opacity: 0.75;
      }

      .cls-29,
      .cls-30,
      .cls-31 {
        opacity: 0.5;
      }

      .cls-33 {
        fill: url(#linear-gradient-10);
      }
    </style>
    <linearGradient id="linear-gradient" y1="83.33" x2="500" y2="83.33" gradientUnits="userSpaceOnUse">
      <stop offset="0" stop-color="#5c6bc0"></stop>
      <stop offset="0.21" stop-color="#5a7bc4"></stop>
      <stop offset="0.62" stop-color="#55a3cf"></stop>
      <stop offset="0.8" stop-color="#53b7d4"></stop>
      <stop offset="0.86" stop-color="#53b4d3"></stop>
      <stop offset="0.9" stop-color="#54abd1"></stop>
      <stop offset="0.94" stop-color="#569bcd"></stop>
      <stop offset="0.97" stop-color="#5985c7"></stop>
      <stop offset="1" stop-color="#5c6bc0"></stop>
    </linearGradient>
    <linearGradient id="linear-gradient-2" x1="396.46" y1="123.79" x2="439.07" y2="123.79"
      gradientTransform="matrix(0.99, 0.17, -0.17, 0.99, 26.91, -68.79)" gradientUnits="userSpaceOnUse">
      <stop offset="0" stop-color="#ff7445"></stop>
      <stop offset="0.11" stop-color="#ff7245"></stop>
      <stop offset="1" stop-color="#ff6947"></stop>
    </linearGradient>
    <linearGradient id="linear-gradient-3" x1="411.03" y1="119.13" x2="427.54" y2="119.13"
      gradientTransform="matrix(1, 0, 0, 1, 0, 0)" xlink:href="#linear-gradient-2"></linearGradient>
    <linearGradient id="linear-gradient-4" x1="349.31" y1="110.95" x2="401.68" y2="110.95"
      gradientTransform="matrix(1, 0, 0, 1, 0, 0)" xlink:href="#linear-gradient-2"></linearGradient>
    <linearGradient id="linear-gradient-5" x1="405.05" y1="52.69" x2="416.45" y2="52.69"
      gradientTransform="matrix(1, 0, 0, 1, 0, 0)" xlink:href="#linear-gradient-2"></linearGradient>
    <linearGradient id="linear-gradient-6" x1="362.34" y1="27.48" x2="370.36" y2="27.48"
      gradientTransform="matrix(1, 0, 0, 1, 0, 0)" xlink:href="#linear-gradient-2"></linearGradient>
    <linearGradient id="linear-gradient-7" x1="362.34" y1="50.85" x2="370.36" y2="50.85"
      gradientTransform="matrix(1, 0, 0, 1, 0, 0)" xlink:href="#linear-gradient-2"></linearGradient>
    <linearGradient id="linear-gradient-8" x1="343.72" y1="36.03" x2="347.62" y2="36.03"
      gradientTransform="matrix(1, 0, 0, 1, 0, 0)" xlink:href="#linear-gradient-2"></linearGradient>
    <linearGradient id="linear-gradient-9" x1="343.72" y1="42.29" x2="347.62" y2="42.29"
      gradientTransform="matrix(1, 0, 0, 1, 0, 0)" xlink:href="#linear-gradient-2"></linearGradient>
    <linearGradient id="linear-gradient-10" x1="331.97" y1="85.87" x2="350.11" y2="85.87"
      gradientTransform="matrix(1, 0, 0, 1, 0, 0)" xlink:href="#linear-gradient-2"></linearGradient>
  </defs>
  <g class="cls-1">
    <g id="Réteg_2" data-name="Réteg 2">
      <g id="Layer_1" data-name="Layer 1">
        <!-- <rect class="cls-2" width="500" height="166.67" /> -->
        <circle class="cls-3" cx="374.78" cy="84.42" r="66.98"></circle>
        <path class="cls-4"
          d="M374.78,13.69a70.73,70.73,0,1,0,70.73,70.73A70.73,70.73,0,0,0,374.78,13.69Zm0,137.71a67,67,0,1,1,67-67A67,67,0,0,1,374.78,151.4Z">
        </path>
        <path class="cls-5"
          d="M374.78,151.4a67,67,0,0,1-67-66.48c0,.17,0,.33,0,.5a67,67,0,0,0,134,0c0-.17,0-.33,0-.5A67,67,0,0,1,374.78,151.4Z">
        </path>
        <path class="cls-3"
          d="M374.78,18.44a67,67,0,0,1,67,66.48c0-.17,0-.33,0-.5a67,67,0,1,0-134,0c0,.17,0,.33,0,.5A67,67,0,0,1,374.78,18.44Z">
        </path>
        <path class="cls-6"
          d="M389,83.37h-6.59V106H389Zm-22.49,0h-6.6V106h6.6ZM393.2,62.29a1.51,1.51,0,0,0-1.52-1.51h-6.8a6.51,6.51,0,0,1,.81-1.45,10.7,10.7,0,0,0,1.4-1.73c.55-1.22-.66-2-.46-3.35.12-.79.6-1.13,1-1.74a4.6,4.6,0,0,0,.36-3.22c-.68-1.44-2.46,1.58-2.68,2.36s0,1.63-.28,2.34a4.75,4.75,0,0,1-1.38,1.63,7.72,7.72,0,0,0-2.45,3.14,5.56,5.56,0,0,0-.24,2h-1.52a25.53,25.53,0,0,0,.51-3.09c.07-1.3.36-2.53-.3-3.64s-.27-2-.27-3.2c0-.44.11-1.59-.51-1.72s-.53,1-.58,1.43c-.08.77,0,3.28-1.16,3s-1.2-3.09-2.37-2.26c-1.16-.83-1.26,2-2.37,2.26s-1.08-2.2-1.16-3c-.05-.45.16-1.59-.57-1.43s-.51,1.28-.51,1.72c0,1.19.34,2.18-.27,3.2s-.37,2.34-.31,3.64a23.71,23.71,0,0,0,.52,3.09h-1.52a6,6,0,0,0-.24-2.1,7.86,7.86,0,0,0-2.45-3.13,4.64,4.64,0,0,1-1.38-1.63c-.3-.71-.07-1.58-.29-2.34s-2-3.8-2.67-2.37a4.68,4.68,0,0,0,.35,3.23c.42.61.9,1,1,1.74.21,1.33-1,2.12-.46,3.34a12,12,0,0,0,1.4,1.74,6.54,6.54,0,0,1,.85,1.52h-5.56a1.5,1.5,0,0,0-1.51,1.51v1.39H393.2Zm29.33,5.35,3.55-3H325.46l2.85,3Zm-.18,3.84V68.63H328.49v2.85ZM403.21,83.37h-6.6V106h6.6Zm-50.85,0h-6.6V106h6.6ZM424,80.29h.87l6.38-6.81H424v-1H326.29v1h-6.71l5.56,6.81h1.15V107h-.72v5.55h99.7v-3.7H424ZM412.68,107h-2.5v0H382.44v1.8h-15.9V107H337.62V82.32h75.06ZM449.74,91.7h.56l4.12-4.41h-4.68v-.68H426.4V93h16v15.92H440.8v0H427.66v3.55h22.89v-2.39h-.81ZM426.4,86h22.27V84.16H426.4Zm0,19h.74V93.68h-.74Zm24.68-23.46H427.46l-1.06,1.13v.81h22.38Zm-19,12.1v14.61h4.26V93.68ZM300.89,86h22.27V84.16H300.89Zm-2.41-4.42,2.3,1.94h22.38v-.81l-1.06-1.13Zm1.34,5.71h-4.68l4.12,4.41h.56v18.43H299v2.39H321.9V109H308.76v0h-1.62V93h16v-6.4H299.82Zm17.71,21V93.68h-4.26v14.61Zm4.9-3.25h.73V93.68h-.73Z">
        </path>
        <path class="cls-7"
          d="M409.74,136.36a2.34,2.34,0,0,1-.35,1.87,2.72,2.72,0,0,1-1.79.94l-1.31.22-.8-4.65,1.46-.25a2.49,2.49,0,0,1,1.87.3A2.23,2.23,0,0,1,409.74,136.36Zm-1,.2c-.17-1-.7-1.42-1.58-1.27l-.53.09.52,3,.43-.07C408.51,138.17,408.89,137.58,408.72,136.56Z">
        </path>
        <path class="cls-7"
          d="M412.33,138.42a1.87,1.87,0,0,1-1.43-.24,1.84,1.84,0,0,1-.71-1.26,2,2,0,0,1,.21-1.46,1.61,1.61,0,0,1,1.15-.7,1.58,1.58,0,0,1,1.25.23,1.62,1.62,0,0,1,.62,1.11l.08.47-2.29.4a1,1,0,0,0,.36.6.84.84,0,0,0,.68.12,2.24,2.24,0,0,0,.59-.17,3.59,3.59,0,0,0,.57-.31l.13.75a2.87,2.87,0,0,1-.52.28A3.77,3.77,0,0,1,412.33,138.42Zm-.65-3a.6.6,0,0,0-.45.28.9.9,0,0,0-.11.59l1.36-.24a.8.8,0,0,0-.28-.52A.62.62,0,0,0,411.68,135.45Z">
        </path>
        <path class="cls-7"
          d="M416.75,137.6l-.21-.43h-.05a.94.94,0,0,1-.38.46,1.37,1.37,0,0,1-.63.25,1.26,1.26,0,0,1-1-.17,1.36,1.36,0,0,1-.48-.91l-.4-2.32,1-.17.36,2.08a1,1,0,0,0,.23.55.53.53,0,0,0,.47.12.67.67,0,0,0,.54-.37,1.75,1.75,0,0,0,0-.94l-.29-1.67,1-.17.61,3.56Z">
        </path>
        <path class="cls-7"
          d="M419.56,136.39a2,2,0,0,0,.59-.22l.13.72a2.24,2.24,0,0,1-.86.32,1.16,1.16,0,0,1-.9-.15,1.34,1.34,0,0,1-.42-.84l-.29-1.71-.47.08-.07-.41.48-.42.15-.8.62-.1.13.75,1-.17.12.73-1,.17.29,1.71a.37.37,0,0,0,.17.29A.48.48,0,0,0,419.56,136.39Z">
        </path>
        <path class="cls-7"
          d="M423,135.44a1,1,0,0,1-.24.9,1.82,1.82,0,0,1-1.09.48,2.81,2.81,0,0,1-.67.06,2.35,2.35,0,0,1-.54-.06l-.13-.81a2.52,2.52,0,0,0,.64.11,2.42,2.42,0,0,0,.61,0c.35-.06.51-.2.48-.4a.27.27,0,0,0-.1-.17,1.18,1.18,0,0,0-.27-.12,4.12,4.12,0,0,0-.5-.14,2.74,2.74,0,0,1-.65-.21.89.89,0,0,1-.34-.29,1.09,1.09,0,0,1-.17-.45.89.89,0,0,1,.24-.8,1.82,1.82,0,0,1,1-.43,2.87,2.87,0,0,1,1.3.06l-.18.75c-.19,0-.36-.08-.53-.1a1.55,1.55,0,0,0-.48,0q-.44.08-.39.3a.27.27,0,0,0,.17.21,5.65,5.65,0,0,0,.66.17,2.63,2.63,0,0,1,.66.22,1,1,0,0,1,.35.28A1.16,1.16,0,0,1,423,135.44Z">
        </path>
        <path class="cls-7"
          d="M425.05,136.24c-1.1.19-1.76-.32-2-1.54a2,2,0,0,1,.22-1.46,1.72,1.72,0,0,1,1.21-.7,2.6,2.6,0,0,1,1.15.05l-.16.8-.45-.08a1.86,1.86,0,0,0-.41,0c-.5.09-.69.49-.57,1.21s.43,1,.94.91a2,2,0,0,0,.5-.16A2.14,2.14,0,0,0,426,135l.14.83a1.67,1.67,0,0,1-.44.29A2.33,2.33,0,0,1,425.05,136.24Z">
        </path>
        <path class="cls-7"
          d="M429.91,135.34l-1,.17-.36-2.08c-.09-.51-.32-.73-.7-.67a.63.63,0,0,0-.54.38,1.71,1.71,0,0,0,0,.93l.28,1.67-1,.17-.85-4.95,1-.17.17,1c0,.08,0,.26.07.56l0,.29h.05a1.14,1.14,0,0,1,.94-.7,1.32,1.32,0,0,1,1,.17,1.4,1.4,0,0,1,.49.92Z">
        </path>
        <polygon class="cls-8"
          points="435.16 144.91 433.91 137.62 433.91 137.62 429.03 109.12 429.03 109.12 427.78 101.83 392.55 107.87 399.93 150.94 427.87 146.15 427.87 146.15 435.16 144.91">
        </polygon>
        <polygon class="cls-8"
          points="402.28 150.54 402.6 152.42 402.6 152.42 403.36 156.81 405.97 153.14 409.66 155.73 408.59 149.46 402.28 150.54">
        </polygon>
        <rect class="cls-9" x="399.9" y="101.94" width="35.74" height="43.7"
          transform="translate(-14.91 72.34) rotate(-9.72)"></rect>
        <rect class="cls-10" x="400.12" y="104.54" width="4.91" height="43.7"
          transform="translate(-15.56 69.82) rotate(-9.72)"></rect>
        <path class="cls-7"
          d="M413.65,133.76a2.34,2.34,0,0,1-.35,1.87,2.76,2.76,0,0,1-1.78.94l-1.32.22-.8-4.65,1.46-.25a2.48,2.48,0,0,1,1.87.3A2.23,2.23,0,0,1,413.65,133.76Zm-1,.2c-.17-1-.7-1.42-1.58-1.27l-.52.09.52,3,.42-.07A1.33,1.33,0,0,0,412.63,134Z">
        </path>
        <path class="cls-7"
          d="M416.24,135.82a1.88,1.88,0,0,1-1.43-.24,1.84,1.84,0,0,1-.71-1.26,2,2,0,0,1,.21-1.46,1.61,1.61,0,0,1,1.15-.7,1.57,1.57,0,0,1,1.25.23,1.62,1.62,0,0,1,.62,1.11l.09.47-2.3.4a1,1,0,0,0,.36.6.85.85,0,0,0,.68.12,2.31,2.31,0,0,0,.6-.17,3.51,3.51,0,0,0,.56-.31l.13.75a3.15,3.15,0,0,1-.51.28A4.15,4.15,0,0,1,416.24,135.82Zm-.65-3a.6.6,0,0,0-.45.28.9.9,0,0,0-.11.59l1.37-.24a.85.85,0,0,0-.29-.52A.62.62,0,0,0,415.59,132.85Z">
        </path>
        <path class="cls-7"
          d="M420.66,135l-.21-.43h-.05a1,1,0,0,1-.37.46,1.47,1.47,0,0,1-.63.25,1.31,1.31,0,0,1-1-.17,1.36,1.36,0,0,1-.48-.91l-.4-2.32,1-.17.36,2.08a.94.94,0,0,0,.24.55.5.5,0,0,0,.46.12.64.64,0,0,0,.54-.37,1.66,1.66,0,0,0,0-.94l-.28-1.67,1-.17.61,3.56Z">
        </path>
        <path class="cls-7"
          d="M423.47,133.79a2.12,2.12,0,0,0,.6-.22l.12.72a2.18,2.18,0,0,1-.86.32,1.16,1.16,0,0,1-.9-.15,1.34,1.34,0,0,1-.42-.84l-.29-1.71-.47.08-.07-.41.48-.42.15-.8.62-.11.13.76,1-.17.12.73-1,.17.29,1.71a.4.4,0,0,0,.17.29A.49.49,0,0,0,423.47,133.79Z">
        </path>
        <path class="cls-7"
          d="M426.9,132.84a1,1,0,0,1-.24.9,1.82,1.82,0,0,1-1.09.48,2.77,2.77,0,0,1-.67.06,2.26,2.26,0,0,1-.53-.06l-.14-.81a3,3,0,0,0,.64.11,2.42,2.42,0,0,0,.61,0c.36-.06.52-.2.48-.4a.27.27,0,0,0-.1-.17,1.18,1.18,0,0,0-.27-.12,4.12,4.12,0,0,0-.5-.14,3.3,3.3,0,0,1-.65-.21.89.89,0,0,1-.34-.29,1.14,1.14,0,0,1-.17-.45.89.89,0,0,1,.24-.8,1.82,1.82,0,0,1,1-.43,2.87,2.87,0,0,1,1.3.06l-.17.75c-.19,0-.37-.08-.53-.1a1.6,1.6,0,0,0-.49,0q-.43.08-.39.3a.27.27,0,0,0,.18.21,4.82,4.82,0,0,0,.65.17,3.22,3.22,0,0,1,.66.21,1,1,0,0,1,.35.29A1.16,1.16,0,0,1,426.9,132.84Z">
        </path>
        <path class="cls-7"
          d="M429,133.64c-1.11.19-1.77-.32-2-1.54a2,2,0,0,1,.22-1.46,1.71,1.71,0,0,1,1.21-.7,2.59,2.59,0,0,1,1.15.05l-.16.8a4.3,4.3,0,0,0-.45-.08,1.41,1.41,0,0,0-.41,0c-.5.09-.69.49-.57,1.21s.43,1,.94.91a2,2,0,0,0,.5-.16,2.14,2.14,0,0,0,.44-.32l.14.83a1.53,1.53,0,0,1-.44.29A2.89,2.89,0,0,1,429,133.64Z">
        </path>
        <path class="cls-7"
          d="M433.82,132.74l-1,.17-.36-2.08c-.09-.51-.32-.73-.7-.67a.66.66,0,0,0-.54.38,1.71,1.71,0,0,0,0,.93l.29,1.67-1,.17-.85-4.95,1-.17.17,1c0,.08,0,.26.07.56l0,.29H431a1.14,1.14,0,0,1,.94-.7,1.31,1.31,0,0,1,1,.17,1.33,1.33,0,0,1,.49.91Z">
        </path>
        <path class="cls-11"
          d="M415.56,138.48l1.29-.22.3,1.76a2.9,2.9,0,0,1-.58.25,3,3,0,0,1-.62.15,1.57,1.57,0,0,1-1.32-.26,1.92,1.92,0,0,1-.66-1.26,1.8,1.8,0,0,1,.26-1.41,1.85,1.85,0,0,1,1.27-.71,2.75,2.75,0,0,1,1.07,0l-.11.52a2,2,0,0,0-.9-.05,1.14,1.14,0,0,0-.82.5,1.4,1.4,0,0,0-.17,1,1.47,1.47,0,0,0,.47.93,1.08,1.08,0,0,0,.9.19,3,3,0,0,0,.59-.18l-.16-.9-.73.12Z">
        </path>
        <path class="cls-11"
          d="M418.89,139.92a1.3,1.3,0,0,1-1-.19,1.45,1.45,0,0,1-.53-.94,1.56,1.56,0,0,1,.15-1.08,1.16,1.16,0,0,1,.83-.53,1.11,1.11,0,0,1,.89.18,1.26,1.26,0,0,1,.46.83l0,.3-1.78.31a.94.94,0,0,0,.32.56.76.76,0,0,0,.59.11,2.7,2.7,0,0,0,.43-.12,2.37,2.37,0,0,0,.41-.22l.08.46a2.48,2.48,0,0,1-.39.21A2.8,2.8,0,0,1,418.89,139.92Zm-.51-2.31a.57.57,0,0,0-.4.25.78.78,0,0,0-.1.53l1.2-.21a.73.73,0,0,0-.24-.47A.56.56,0,0,0,418.38,137.61Z">
        </path>
        <path class="cls-11"
          d="M421.2,136.69l.28,0,0,.54a1.13,1.13,0,0,0-.26,0,.77.77,0,0,0-.51.32.78.78,0,0,0-.11.61l.24,1.39-.57.1-.46-2.66.45-.08.15.46h0a1.07,1.07,0,0,1,.28-.43A.84.84,0,0,1,421.2,136.69Z">
        </path>
        <path class="cls-11"
          d="M424.43,138.92l-.57.1-.28-1.64a.75.75,0,0,0-.19-.44.43.43,0,0,0-.39-.09.56.56,0,0,0-.44.3,1.21,1.21,0,0,0,0,.73l.22,1.33-.56.1-.46-2.67.45-.07.13.34h0a.8.8,0,0,1,.28-.35,1,1,0,0,1,.44-.18.83.83,0,0,1,.89.28h0a.77.77,0,0,1,.28-.36,1,1,0,0,1,.48-.2.94.94,0,0,1,.73.12,1.08,1.08,0,0,1,.34.7l.3,1.73-.56.1-.28-1.64a.86.86,0,0,0-.2-.44.45.45,0,0,0-.39-.08.56.56,0,0,0-.45.28,1.15,1.15,0,0,0,0,.66Z">
        </path>
        <path class="cls-11"
          d="M428.32,138.25l-.18-.34h0a1.24,1.24,0,0,1-.33.4,1.34,1.34,0,0,1-.48.17.86.86,0,0,1-.65-.11.77.77,0,0,1-.32-.56.7.7,0,0,1,.2-.67,1.64,1.64,0,0,1,.89-.39l.45-.09,0-.15a.56.56,0,0,0-.18-.36.5.5,0,0,0-.39-.06,1.28,1.28,0,0,0-.39.13l-.33.2-.26-.37a2.2,2.2,0,0,1,.45-.26,3.1,3.1,0,0,1,.47-.14,1.16,1.16,0,0,1,.81.09.91.91,0,0,1,.38.65l.3,1.8Zm-.91-.24a.72.72,0,0,0,.47-.25.65.65,0,0,0,.1-.52l0-.23-.34.08a1.18,1.18,0,0,0-.56.23.44.44,0,0,0-.12.39.37.37,0,0,0,.16.26A.44.44,0,0,0,427.41,138Z">
        </path>
        <path class="cls-11"
          d="M431.61,137.69l-.57.1-.28-1.64a.79.79,0,0,0-.2-.44.51.51,0,0,0-.42-.08.64.64,0,0,0-.49.3,1.15,1.15,0,0,0,0,.74l.22,1.33-.56.09-.46-2.66.44-.07.14.33h0a.91.91,0,0,1,.29-.36,1.26,1.26,0,0,1,.48-.18.86.86,0,0,1,1.12.81Z">
        </path>
        <path class="cls-7"
          d="M427.2,114.71a9.07,9.07,0,0,0-16.85,6,9.38,9.38,0,0,0,1,2.89,9.07,9.07,0,0,0,15.83-8.85Z"></path>
        <path class="cls-12" d="M427.42,120.53l-15.34,2.63a8.25,8.25,0,0,0,15.34-2.63Z"></path>
        <path class="cls-11" d="M411.15,117.74l15.34-2.63a8.25,8.25,0,0,0-15.34,2.63Z"></path>
        <path class="cls-13"
          d="M411.15,120.53a8.08,8.08,0,0,0,.93,2.63l15.34-2.63a8.17,8.17,0,0,0,0-2.79,8.08,8.08,0,0,0-.93-2.63l-15.34,2.63A8.43,8.43,0,0,0,411.15,120.53Z">
        </path>
        <polygon class="cls-10" points="432.94 106.52 431.69 99.23 424.4 100.48 432.94 106.52"></polygon>
        <polygon class="cls-10" points="431.78 143.55 439.07 142.3 437.82 135.01 431.78 143.55"></polygon>
        <polygon class="cls-12"
          points="413.57 153.13 409.88 150.53 407.27 154.21 406.19 147.94 412.5 146.86 413.57 153.13"></polygon>
        <rect class="cls-14" x="406.31" y="147.38" width="6.4" height="1.9"
          transform="translate(-19.17 71.3) rotate(-9.72)"></rect>
        <rect class="cls-15" x="349.31" y="94.03" width="57.91" height="44.07"></rect>
        <rect class="cls-7" x="346.54" y="88.9" width="57.91" height="44.07"></rect>
        <rect class="cls-11" x="349.31" y="91.48" width="52.36" height="12.98"></rect>
        <rect class="cls-16" x="349.31" y="104.46" width="52.36" height="12.98"></rect>
        <rect class="cls-12" x="349.31" y="117.45" width="52.36" height="12.98"></rect>
        <path class="cls-8"
          d="M422.92,59.64l-5,1.07c.15-.19.28-.37.41-.55l.14-.19c.13-.18.23-.35.34-.52l.12-.19a4.55,4.55,0,0,0,.25-.49l.1-.17a4.94,4.94,0,0,0,.21-.61c0-.19.08-.39.11-.58l0-.37c0-.07,0-.13,0-.2s0-.25,0-.37v-.2c0-.12,0-.25-.05-.37s0-.12,0-.18a3.41,3.41,0,0,0-.1-.46.19.19,0,0,0,0-.08,3.82,3.82,0,0,0-.15-.48s0,0,0-.05-.12-.29-.19-.43l0-.08a5.74,5.74,0,0,0-10.73,1.17,7.8,7.8,0,0,0,.15,3l-3.92-3.23L394.27,57.4l-6.35,26.48,10.27-2.26,8.13,6.68,10.25-2.17,8.15,6.58,6.35-26.48ZM412.11,56a1.91,1.91,0,0,1,2.28-1.4h0a1.88,1.88,0,0,1,1.16.85v0c.05.1.1.2.14.3a.64.64,0,0,0,0,.07c0,.1.06.19.08.29s0,.12,0,.18,0,.12,0,.18a1.58,1.58,0,0,1,0,.38,1.4,1.4,0,0,1-.13.36.83.83,0,0,1-.09.16,1.4,1.4,0,0,1-.1.16,1.81,1.81,0,0,1-.18.21l-.06.06A1.94,1.94,0,0,1,415,58h0a1.88,1.88,0,0,1-1.42.23h0A1.89,1.89,0,0,1,412.11,56Z">
        </path>
        <polygon class="cls-7" points="395.01 75.27 384.74 77.54 391.09 51.06 401.37 48.79 395.01 75.27"></polygon>
        <polygon class="cls-17" points="403.14 81.96 395.01 75.27 401.37 48.79 409.49 55.47 403.14 81.96"></polygon>
        <polygon class="cls-7" points="413.39 79.79 403.14 81.96 409.49 55.47 419.75 53.3 413.39 79.79"></polygon>
        <polygon class="cls-17" points="421.54 86.37 413.39 79.79 419.75 53.3 427.89 59.89 421.54 86.37"></polygon>
        <path class="cls-18"
          d="M400.61,52l.36-1.49L394.12,52h0l-1.66.37-.36,1.49-4.77,19.88L387,75.2l8.51-1.88.36-1.48-2.31.5.94-3.91,2.31-.51.33-1.37-6.85,1.51.95-4,6.85-1.51.33-1.38-6.85,1.52.95-4,6.85-1.51.33-1.38-6.85,1.51.94-3.91Zm-7.67,16.82L392,72.68l-3,.67.94-3.92Z">
        </path>
        <path class="cls-18"
          d="M406.17,69.26l7.23-1.53-.95,4-7.23,1.53-.33,1.37,2.61-.55L406.56,78l-2.61.55L403.6,80l10.25-2.15.36-1.48-6.12,1.28.94-3.91,6.12-1.29.33-1.38-1.5.32.95-4,1.51-.32.33-1.37L406.5,67.88Zm5-7.43.94-3.91L419,56.47l.36-1.49-10.26,2.15-.36,1.49,1.85-.38-.94,3.91-1.85.39-.33,1.38,10.27-2.17.33-1.38Z">
        </path>
        <path class="cls-19"
          d="M424.53,59.17h0L419.34,55,419,56.47l5.19,4.18-.94,3.91-5.18-4.19-.33,1.38L420,63.62l-.95,4-2.31-1.87-.33,1.37,5.18,4.19-.95,4-5.19-4.19-.33,1.38,1,.83-.94,3.91-1-.82-.36,1.48L419,82h0l1.32,1.06,5.49-22.86Zm-4.23,9.4.95-4,1.65,1.34-.95,4Zm-3.84,9.59.94-3.91,2.94,2.38-.94,3.91Z">
        </path>
        <path class="cls-19"
          d="M409.06,57.11,401,50.46,400.61,52l8.09,6.65ZM395.48,73.32,403.57,80l.36-1.48-8.09-6.65Zm12-9.4.33-1.38-8.13-6.68-.33,1.38,1.92,1.57-.95,4-1.92-1.58-.33,1.38,5.46,4.49-.95,4-5.46-4.49-.33,1.37,8.12,6.69.33-1.38L403.78,72l1-4,1.44,1.19.33-1.37-5-4.11,1-4Z">
        </path>
        <path class="cls-20"
          d="M412.06,44.74A5.72,5.72,0,0,0,405.15,49c-.74,3.08,3.05,11.84,3.05,11.84s7.35-6.09,8.09-9.16A5.73,5.73,0,0,0,412.06,44.74Zm-1.73,7.18a1.89,1.89,0,1,1,2.28-1.4A1.91,1.91,0,0,1,410.33,51.92Z">
        </path>
        <path class="cls-10"
          d="M411.23,48.25a1.89,1.89,0,0,1-.88,3.67l-2.13,8.87c.2-.16,7.34-6.11,8.07-9.14a5.73,5.73,0,0,0-4.22-6.91Z">
        </path>
        <path class="cls-12"
          d="M400.84,34.71l-3.37-.85L398.94,28l3.37.85-.26,1-2.12-.53-.32,1.29,2,.49-.25,1-2-.5L399,33.15l2.13.53Z">
        </path>
        <path class="cls-12"
          d="M402.78,35.19l-1.22-.3,1.12-4.48,1.22.31Zm.14-5.95c.1-.39.37-.54.81-.42s.62.36.52.76a.64.64,0,0,1-.28.4.7.7,0,0,1-.54,0C403,29.9,402.82,29.64,402.92,29.24Z">
        </path>
        <path class="cls-12"
          d="M407.78,36.44l-1.23-.3.66-2.61a1.34,1.34,0,0,0,0-.77.64.64,0,0,0-.49-.38.83.83,0,0,0-.82.15,2.25,2.25,0,0,0-.52,1.08l-.52,2.1-1.22-.3,1.12-4.47.93.23,0,.61.07,0a1.35,1.35,0,0,1,.68-.35,2,2,0,0,1,.86,0,1.62,1.62,0,0,1,1.08.72,1.76,1.76,0,0,1,.1,1.32Z">
        </path>
        <path class="cls-12"
          d="M415.14,38.29l-1.41-.35-.91-2.85-.62.24-.52,2.09-1.24-.31,1.46-5.85,1.24.31-.67,2.68.66-.57,2.08-1.59,1.38.35-2.69,2.07Z">
        </path>
        <path class="cls-12"
          d="M418.21,39.06l-.08-.67h0a1.75,1.75,0,0,1-.76.38,2,2,0,0,1-.89-.06,1.43,1.43,0,0,1-.92-.62,1.41,1.41,0,0,1-.11-1.14,1.21,1.21,0,0,1,.76-.93,3,3,0,0,1,1.6,0l.78.17.05-.19a.63.63,0,0,0-.53-.86,3.35,3.35,0,0,0-1.34,0l-.2-.92a3.74,3.74,0,0,1,1.82,0,2.22,2.22,0,0,1,1.28.74,1.52,1.52,0,0,1,.18,1.31l-.75,3Zm.16-2.16-.48-.11a1.57,1.57,0,0,0-.84,0,.61.61,0,0,0-.39.47c-.09.34.07.56.46.66a1,1,0,0,0,.74-.07.91.91,0,0,0,.42-.59Z">
        </path>
        <path class="cls-12"
          d="M423.55,35.55a2,2,0,0,1,.4.14l-.38,1.12a1.73,1.73,0,0,0-.35-.13,1.33,1.33,0,0,0-1,.08,1.08,1.08,0,0,0-.54.75l-.57,2.28-1.22-.31L421,35l.92.23V36l.05,0a1.8,1.8,0,0,1,.72-.47A1.47,1.47,0,0,1,423.55,35.55Z">
        </path>
        <path class="cls-12"
          d="M425.33,39.89a2.74,2.74,0,0,0,.8.06l-.23.9a2.81,2.81,0,0,1-1.17-.07,1.4,1.4,0,0,1-1-.64A1.67,1.67,0,0,1,423.7,39l.54-2.16-.58-.15.13-.51.77-.24.59-.86.78.2-.24,1,1.25.31-.23.92-1.25-.31-.54,2.15a.48.48,0,0,0,.05.42A.6.6,0,0,0,425.33,39.89Z">
        </path>
        <path class="cls-12"
          d="M428.37,41.69a2.39,2.39,0,0,1-1.54-1,2.36,2.36,0,0,1-.19-1.84,2.62,2.62,0,0,1,1-1.6,2.07,2.07,0,0,1,1.71-.22,2,2,0,0,1,1.34.91,2.15,2.15,0,0,1,.16,1.62l-.15.59-2.89-.72a1.24,1.24,0,0,0,.11.89,1.14,1.14,0,0,0,.73.5,3.64,3.64,0,0,0,.79.1,3.49,3.49,0,0,0,.82-.08l-.24,1a3,3,0,0,1-.74.06A4.3,4.3,0,0,1,428.37,41.69Zm.77-3.81a.77.77,0,0,0-.67.09,1.19,1.19,0,0,0-.43.64l1.72.43a1.06,1.06,0,0,0-.06-.76A.84.84,0,0,0,429.14,37.88Z">
        </path>
        <path class="cls-11"
          d="M407.72,41.27l-.11-1.05-1.32-.33-.58.88-.6-.15,2.17-3.15.61.15.43,3.8Zm-.14-1.57-.08-1c0-.06,0-.17,0-.32s0-.25,0-.32a5.65,5.65,0,0,1-.35.59l-.53.82Z">
        </path>
        <path class="cls-11"
          d="M411.7,42.27l-.56-.14.4-1.62a.74.74,0,0,0,0-.47.41.41,0,0,0-.32-.24.57.57,0,0,0-.52.09,1.27,1.27,0,0,0-.32.66l-.33,1.31-.56-.14.66-2.62.43.11v.36h0a.75.75,0,0,1,.39-.21,1,1,0,0,1,.48,0c.41.1.64.3.7.61h0a.83.83,0,0,1,.4-.22,1.1,1.1,0,0,1,.51,0,.94.94,0,0,1,.63.41,1.11,1.11,0,0,1,0,.78l-.43,1.7-.56-.14.41-1.61a.78.78,0,0,0,0-.48.45.45,0,0,0-.32-.24.59.59,0,0,0-.53.09,1.16,1.16,0,0,0-.31.58Z">
        </path>
        <path class="cls-11"
          d="M415.52,43.23l0-.39h0a1,1,0,0,1-.46.23,1.17,1.17,0,0,1-.51,0,.82.82,0,0,1-.55-.36.8.8,0,0,1-.07-.64.7.7,0,0,1,.45-.53,1.75,1.75,0,0,1,1,0l.46.1,0-.14a.56.56,0,0,0,0-.41.5.5,0,0,0-.33-.21,1.09,1.09,0,0,0-.4,0l-.39.05-.08-.44a1.7,1.7,0,0,1,.51,0,1.88,1.88,0,0,1,.49.06,1.12,1.12,0,0,1,.7.41.86.86,0,0,1,.08.74l-.44,1.77Zm-.73-.59a.68.68,0,0,0,.53,0,.61.61,0,0,0,.3-.43l.06-.22-.34-.07a1.14,1.14,0,0,0-.61,0,.4.4,0,0,0-.26.31.38.38,0,0,0,0,.3A.44.44,0,0,0,414.79,42.64Z">
        </path>
        <path class="cls-11"
          d="M417.77,43.84a.94.94,0,0,1-.68-.55h0c0,.23-.06.37-.07.41l-.27,1.08-.56-.14.95-3.79.45.11c0,.06,0,.18,0,.37h0a.9.9,0,0,1,.88-.2.94.94,0,0,1,.68.55,1.64,1.64,0,0,1,0,1.06,1.62,1.62,0,0,1-.53.93A.93.93,0,0,1,417.77,43.84Zm.43-2.29a.59.59,0,0,0-.53.07,1.09,1.09,0,0,0-.31.58l0,.09a1.3,1.3,0,0,0,0,.73.57.57,0,0,0,.44.34.56.56,0,0,0,.51-.13,1.24,1.24,0,0,0,.32-.64,1.11,1.11,0,0,0,0-.7A.5.5,0,0,0,418.2,41.55Z">
        </path>
        <path class="cls-7"
          d="M382.36,43a3.81,3.81,0,0,0,2.8-1.22h.1a2.64,2.64,0,0,0,0-5.27h-.1a3.81,3.81,0,0,0-2.8-1.22h-26l-12.1,3.22h0a.63.63,0,0,0-.62.63.63.63,0,0,0,.62.63h0L356.34,43Z">
        </path>
        <path class="cls-21"
          d="M382.36,43a3.81,3.81,0,0,0,2.8-1.22h.1a2.64,2.64,0,0,0,2.63-2.64h-44.3a.63.63,0,0,0,.62.63h0L356.34,43Z">
        </path>
        <path class="cls-18"
          d="M384,39.16a2.77,2.77,0,0,1-1.76,2.72,2.12,2.12,0,0,0,.62.1,2.62,2.62,0,0,0,2.37-2.82,2.63,2.63,0,0,0-2.37-2.82,2.12,2.12,0,0,0-.62.11A2.76,2.76,0,0,1,384,39.16Z">
        </path>
        <path class="cls-22"
          d="M362.34,28.38v-1.8a14.94,14.94,0,0,1,4-.56,14.7,14.7,0,0,1,4,.56v1.8a15.05,15.05,0,0,1-4,.55A15.31,15.31,0,0,1,362.34,28.38Z">
        </path>
        <path class="cls-23"
          d="M362.34,50v1.8a14.9,14.9,0,0,0,4,.55,15.05,15.05,0,0,0,4-.55V50a15.05,15.05,0,0,0-4-.55A15.31,15.31,0,0,0,362.34,50Z">
        </path>
        <polygon class="cls-24" points="372.82 35.31 363.3 16.8 360.98 16.8 364.84 35.31 372.82 35.31"></polygon>
        <polygon class="cls-7" points="372.82 43.01 363.3 61.52 360.98 61.52 364.84 43.01 372.82 43.01"></polygon>
        <polygon class="cls-25" points="347.62 37.64 344.74 33.53 343.71 33.73 344.21 38.53 347.62 37.64"></polygon>
        <polygon class="cls-26" points="347.62 40.69 344.74 44.79 343.71 44.59 344.21 39.79 347.62 40.69"></polygon>
        <path class="cls-12" d="M352,18.78h-3.47v-6H352v1h-2.19v1.33h2v1h-2v1.56H352Z"></path>
        <path class="cls-12"
          d="M352.69,13c0-.41.23-.61.68-.61s.69.2.69.61a.62.62,0,0,1-.17.46.74.74,0,0,1-.52.16C352.92,13.59,352.69,13.39,352.69,13ZM354,18.78h-1.26V14.16H354Z">
        </path>
        <path class="cls-12"
          d="M359.15,18.78h-1.26v-2.7a1.39,1.39,0,0,0-.17-.75.67.67,0,0,0-.57-.25.84.84,0,0,0-.76.36,2.13,2.13,0,0,0-.24,1.17v2.17H354.9V14.16h1l.17.59h.07a1.29,1.29,0,0,1,.58-.5,2,2,0,0,1,.83-.17,1.63,1.63,0,0,1,1.23.43,1.78,1.78,0,0,1,.41,1.26Z">
        </path>
        <path class="cls-12" d="M327.8,24.78h-1.26v-6H330v1H327.8v1.56h2v1h-2Z"></path>
        <path class="cls-12" d="M331.91,24.78h-1.26V18.36h1.26Z"></path>
        <path class="cls-12"
          d="M336.07,24.78l-.17-.59h-.06a1.33,1.33,0,0,1-.58.49,1.86,1.86,0,0,1-.84.18,1.63,1.63,0,0,1-1.23-.44,1.76,1.76,0,0,1-.41-1.25v-3H334v2.7a1.3,1.3,0,0,0,.18.75.65.65,0,0,0,.56.25.83.83,0,0,0,.76-.36,2.13,2.13,0,0,0,.24-1.17V20.16H337v4.62Z">
        </path>
        <path class="cls-12"
          d="M342,20.16v.64l-.72.19a1.28,1.28,0,0,1,.19.69,1.41,1.41,0,0,1-.51,1.16,2.24,2.24,0,0,1-1.44.41h-.23l-.18,0a.43.43,0,0,0-.2.33c0,.18.23.27.7.27h.78a1.8,1.8,0,0,1,1.16.33,1.17,1.17,0,0,1,.39,1,1.42,1.42,0,0,1-.67,1.25,3.48,3.48,0,0,1-1.94.44,2.71,2.71,0,0,1-1.47-.33,1.07,1.07,0,0,1-.51-.94,1,1,0,0,1,.26-.7,1.45,1.45,0,0,1,.76-.4,1,1,0,0,1-.34-.27.69.69,0,0,1-.14-.4.65.65,0,0,1,.15-.44,1.64,1.64,0,0,1,.44-.34,1.28,1.28,0,0,1-.57-.51,1.53,1.53,0,0,1-.21-.81,1.45,1.45,0,0,1,.49-1.17,2.13,2.13,0,0,1,1.4-.41l.46,0,.34.05Zm-3.56,5.27a.43.43,0,0,0,.25.4,1.35,1.35,0,0,0,.7.15,2.56,2.56,0,0,0,1.06-.18.59.59,0,0,0,.38-.51.36.36,0,0,0-.23-.36,2,2,0,0,0-.7-.1h-.65a1,1,0,0,0-.58.17A.5.5,0,0,0,338.39,25.43Zm.46-3.76a.93.93,0,0,0,.17.6.63.63,0,0,0,.52.22.62.62,0,0,0,.52-.22,1,1,0,0,0,.16-.6c0-.55-.22-.83-.68-.83S338.85,21.12,338.85,21.67Z">
        </path>
        <path class="cls-12" d="M345.49,24.78h-3.64V24l2.14-2.9h-2v-1h3.44V21l-2.08,2.83h2.15Z"></path>
        <path class="cls-12"
          d="M348.07,24.86a2.39,2.39,0,0,1-1.74-.62,2.32,2.32,0,0,1-.63-1.74,2.54,2.54,0,0,1,.58-1.79,2.07,2.07,0,0,1,1.6-.63,2,2,0,0,1,1.52.56,2.07,2.07,0,0,1,.55,1.53v.61h-3a1.23,1.23,0,0,0,.32.84,1.14,1.14,0,0,0,.84.3,3.7,3.7,0,0,0,1.56-.36v1a3.32,3.32,0,0,1-.71.25A4.66,4.66,0,0,1,348.07,24.86ZM347.89,21a.8.8,0,0,0-.63.26A1.24,1.24,0,0,0,347,22h1.77a1.11,1.11,0,0,0-.24-.72A.84.84,0,0,0,347.89,21Z">
        </path>
        <path class="cls-12"
          d="M353.81,24.78l-.17-.59h-.06a1.33,1.33,0,0,1-.58.49,1.86,1.86,0,0,1-.84.18,1.63,1.63,0,0,1-1.23-.44,1.76,1.76,0,0,1-.41-1.25v-3h1.26v2.7a1.3,1.3,0,0,0,.18.75.65.65,0,0,0,.56.25.86.86,0,0,0,.77-.36,2.24,2.24,0,0,0,.23-1.17V20.16h1.26v4.62Z">
        </path>
        <path class="cls-12"
          d="M359.69,20.16v.64L359,21a1.28,1.28,0,0,1,.19.69,1.41,1.41,0,0,1-.51,1.16,2.24,2.24,0,0,1-1.44.41H357l-.18,0a.43.43,0,0,0-.2.33c0,.18.23.27.7.27h.78a1.8,1.8,0,0,1,1.16.33,1.17,1.17,0,0,1,.39,1,1.42,1.42,0,0,1-.67,1.25,3.48,3.48,0,0,1-1.94.44,2.71,2.71,0,0,1-1.47-.33,1.07,1.07,0,0,1-.51-.94,1,1,0,0,1,.26-.7,1.45,1.45,0,0,1,.76-.4,1,1,0,0,1-.34-.27.69.69,0,0,1-.14-.4.65.65,0,0,1,.15-.44,1.64,1.64,0,0,1,.44-.34,1.28,1.28,0,0,1-.57-.51,1.53,1.53,0,0,1-.21-.81,1.45,1.45,0,0,1,.49-1.17,2.13,2.13,0,0,1,1.4-.41l.46,0,.34.05Zm-3.56,5.27a.43.43,0,0,0,.25.4,1.35,1.35,0,0,0,.7.15,2.56,2.56,0,0,0,1.06-.18.59.59,0,0,0,.38-.51.36.36,0,0,0-.23-.36,2,2,0,0,0-.7-.1h-.65a1,1,0,0,0-.58.17A.5.5,0,0,0,356.13,25.43Zm.46-3.76a.93.93,0,0,0,.17.6.63.63,0,0,0,.52.22.62.62,0,0,0,.52-.22,1,1,0,0,0,.16-.6c0-.55-.22-.83-.68-.83S356.59,21.12,356.59,21.67Z">
        </path>
        <path class="cls-11"
          d="M345.65,31.23l-.35-1h-1.37l-.35,1H343l1.33-3.59h.64l1.33,3.59Zm-.51-1.5-.33-1a2.28,2.28,0,0,1-.1-.31,1.74,1.74,0,0,1-.09-.3,5.24,5.24,0,0,1-.2.65l-.32.93Z">
        </path>
        <path class="cls-11"
          d="M348.85,31.28a1,1,0,0,1-.79-.37h0c0,.23,0,.36,0,.41v1.11h-.58v-3.9H348s0,.17.08.36h0a.9.9,0,0,1,.8-.41,1,1,0,0,1,.79.36,1.66,1.66,0,0,1,.28,1,1.63,1.63,0,0,1-.29,1A1,1,0,0,1,348.85,31.28ZM348.71,29a.6.6,0,0,0-.5.2,1.06,1.06,0,0,0-.15.64v.08a1.33,1.33,0,0,0,.15.72.59.59,0,0,0,.51.22.51.51,0,0,0,.46-.25,1.57,1.57,0,0,0,0-1.38A.53.53,0,0,0,348.71,29Z">
        </path>
        <path class="cls-11" d="M350.92,31.23h-.57v-3.8h.57Z"></path>
        <path class="cls-11"
          d="M353.18,31.23l-.11-.38h0a1,1,0,0,1-.4.34,1.21,1.21,0,0,1-.5.09.85.85,0,0,1-.63-.22.82.82,0,0,1-.22-.61.71.71,0,0,1,.31-.63,1.79,1.79,0,0,1,.95-.23H353v-.15a.52.52,0,0,0-.12-.38.46.46,0,0,0-.37-.13,1.29,1.29,0,0,0-.4.06l-.37.14-.18-.41a2.08,2.08,0,0,1,.48-.17,2.18,2.18,0,0,1,.49-.06,1.19,1.19,0,0,1,.78.22.91.91,0,0,1,.26.71v1.82Zm-.85-.39a.71.71,0,0,0,.5-.18.65.65,0,0,0,.19-.49v-.23h-.35a1.18,1.18,0,0,0-.59.14.41.41,0,0,0-.18.37.37.37,0,0,0,.1.28A.52.52,0,0,0,352.33,30.84Z">
        </path>
        <path class="cls-11"
          d="M356.52,31.23h-.58V29.57a.76.76,0,0,0-.12-.47.51.51,0,0,0-.4-.15.66.66,0,0,0-.54.21,1.24,1.24,0,0,0-.16.72v1.35h-.58v-2.7h.45l.08.35h0a.79.79,0,0,1,.35-.3,1.15,1.15,0,0,1,.5-.1.87.87,0,0,1,1,1Z">
        </path>
        <path class="cls-11"
          d="M358.25,31.28a1.3,1.3,0,0,1-1-.37,1.39,1.39,0,0,1-.36-1,1.53,1.53,0,0,1,.33-1,1.13,1.13,0,0,1,.91-.38,1.11,1.11,0,0,1,.84.32,1.25,1.25,0,0,1,.31.9V30H357.5a.81.81,0,0,0,.21.6.73.73,0,0,0,.56.21,2.15,2.15,0,0,0,.45,0,2.55,2.55,0,0,0,.44-.15v.46a1.77,1.77,0,0,1-.42.15A3.6,3.6,0,0,1,358.25,31.28Zm-.11-2.37a.57.57,0,0,0-.44.18.85.85,0,0,0-.2.5h1.23a.78.78,0,0,0-.16-.51A.58.58,0,0,0,358.14,28.91Z">
        </path>
        <path class="cls-12"
          d="M294.81,107.55h1.87a3.69,3.69,0,0,1,1.87.36,1.28,1.28,0,0,1,.58,1.16,1.47,1.47,0,0,1-.26.89,1,1,0,0,1-.67.41v0a1.28,1.28,0,0,1,.82.47,1.59,1.59,0,0,1,.26.94,1.52,1.52,0,0,1-.6,1.28,2.54,2.54,0,0,1-1.62.46h-2.25Zm1.28,2.38h.74a1.31,1.31,0,0,0,.75-.16.58.58,0,0,0,.23-.53.53.53,0,0,0-.25-.5,1.64,1.64,0,0,0-.8-.15h-.67Zm0,1v1.57h.83a1.28,1.28,0,0,0,.78-.2.75.75,0,0,0,.25-.62c0-.5-.36-.75-1.07-.75Z">
        </path>
        <path class="cls-12"
          d="M299.91,107.77c0-.41.23-.61.68-.61s.69.2.69.61a.62.62,0,0,1-.17.46.74.74,0,0,1-.52.16C300.14,108.39,299.91,108.18,299.91,107.77Zm1.31,5.8H300V109h1.26Z">
        </path>
        <path class="cls-12"
          d="M304.2,113.66a2.39,2.39,0,0,1-1.74-.62,2.32,2.32,0,0,1-.63-1.74,2.54,2.54,0,0,1,.59-1.79,2.36,2.36,0,0,1,3.12-.08,2.14,2.14,0,0,1,.54,1.54v.61h-3a1.19,1.19,0,0,0,.32.84,1.11,1.11,0,0,0,.83.3,3.35,3.35,0,0,0,.79-.09,4,4,0,0,0,.77-.27v1a3.23,3.23,0,0,1-.7.25A4.77,4.77,0,0,1,304.2,113.66Zm-.17-3.89a.8.8,0,0,0-.63.26,1.12,1.12,0,0,0-.26.71h1.76a1,1,0,0,0-.24-.71A.83.83,0,0,0,304,109.77Z">
        </path>
        <path class="cls-12"
          d="M309.26,108.88a2.42,2.42,0,0,1,.42,0l-.09,1.18a2,2,0,0,0-.38,0,1.34,1.34,0,0,0-.93.31,1.12,1.12,0,0,0-.34.87v2.34h-1.26V109h1l.18.78h.06a1.85,1.85,0,0,1,.58-.63A1.52,1.52,0,0,1,309.26,108.88Z">
        </path>
        <path class="cls-11"
          d="M294.6,115.09h1.07a2,2,0,0,1,1.06.21.76.76,0,0,1,.33.68.87.87,0,0,1-.16.52.69.69,0,0,1-.47.26v0a.91.91,0,0,1,.56.28.89.89,0,0,1,.17.56,1,1,0,0,1-.33.76,1.48,1.48,0,0,1-.94.27H294.6Zm.59,1.47h.56a1,1,0,0,0,.53-.11.44.44,0,0,0,.17-.4.39.39,0,0,0-.18-.36,1.08,1.08,0,0,0-.58-.11h-.5Zm0,.48v1.13h.62a.93.93,0,0,0,.55-.14.52.52,0,0,0,.19-.45.47.47,0,0,0-.19-.41,1,1,0,0,0-.58-.13Z">
        </path>
        <path class="cls-11"
          d="M298.77,118.71a1.32,1.32,0,0,1-1-.37,1.39,1.39,0,0,1-.36-1,1.53,1.53,0,0,1,.33-1,1.13,1.13,0,0,1,.91-.38,1.11,1.11,0,0,1,.84.32,1.25,1.25,0,0,1,.31.9v.31H298a.86.86,0,0,0,.22.6.73.73,0,0,0,.56.21,2.15,2.15,0,0,0,.45,0,2.55,2.55,0,0,0,.44-.15v.46a1.69,1.69,0,0,1-.43.15A3.34,3.34,0,0,1,298.77,118.71Zm-.1-2.37a.57.57,0,0,0-.44.18.85.85,0,0,0-.2.5h1.23a.73.73,0,0,0-.16-.5A.55.55,0,0,0,298.67,116.34Z">
        </path>
        <path class="cls-11"
          d="M301.41,118.71a1.34,1.34,0,0,1-1-.37,1.39,1.39,0,0,1-.36-1,1.53,1.53,0,0,1,.33-1,1.13,1.13,0,0,1,.91-.38,1.11,1.11,0,0,1,.84.32,1.25,1.25,0,0,1,.31.9v.31h-1.79a.81.81,0,0,0,.21.6.73.73,0,0,0,.56.21,2.15,2.15,0,0,0,.45,0,2.55,2.55,0,0,0,.44-.15v.46a1.77,1.77,0,0,1-.42.15A3.6,3.6,0,0,1,301.41,118.71Zm-.11-2.37a.57.57,0,0,0-.44.18.79.79,0,0,0-.19.5h1.22a.73.73,0,0,0-.16-.5A.54.54,0,0,0,301.3,116.34Z">
        </path>
        <path class="cls-11"
          d="M304.23,115.91l.28,0-.05.54a1.15,1.15,0,0,0-.26,0,.75.75,0,0,0-.56.22.84.84,0,0,0-.21.59v1.41h-.57V116h.45l.07.47h0a1.16,1.16,0,0,1,.35-.38A.89.89,0,0,1,304.23,115.91Z">
        </path>
        <path class="cls-8"
          d="M341.78,110.67H323V114c0,.7-.38,1-.75,1h-.18l-.23,0a8.67,8.67,0,0,1-.88-.31c-.22-.09-.45-.18-.7-.26a5.55,5.55,0,0,0-1.23-.28l-.45,0h0a.74.74,0,0,0-.32.07.74.74,0,0,1,.32-.07c-1.9,0-3.77,7-3.71,13,.05,4.36,1.08,8.27,3.79,8.86a3.55,3.55,0,0,0,.73.08,2.25,2.25,0,0,0,.38,0c1-.13,1.63-.73,2.17-.71a.72.72,0,0,1,.56.34,2.45,2.45,0,0,1,.18.29,7.12,7.12,0,0,1,.25.92,2.67,2.67,0,0,1,.07.66V147.8a2,2,0,0,0,1.9,1.87h17.72c.94,0,1.38-.94,1.38-1.87V110.67Zm-18.78,19c0,2.26-1.47,4.21-4,3.85-3.39-.49-1.67-16.47.22-16.84a3.08,3.08,0,0,1,.74-.06,4,4,0,0,1,2.5,1.1,2.35,2.35,0,0,1,.57,1,1.46,1.46,0,0,1,0,.51Z">
        </path>
        <path class="cls-27"
          d="M340.14,106.18v37.44a1.69,1.69,0,0,1-1.69,1.69H320.73a1.69,1.69,0,0,1-1.69-1.69V106.18Z"></path>
        <path class="cls-28"
          d="M319,106.18v37.44a1.69,1.69,0,0,0,1.69,1.69h17.72a1.69,1.69,0,0,0,1.69-1.69V106.18Zm1.69,37.31H321l.24,0a72.74,72.74,0,0,1,8.37-.52,73.48,73.48,0,0,1,8.38.52l.23,0h.25s1,.55,0,.75-17.1.23-17.72,0S320.73,143.49,320.73,143.49Zm-.84-37.31H339.3V139.4a.85.85,0,0,1-.85.84,32,32,0,0,0-17.72,0,.84.84,0,0,1-.84-.84Z">
        </path>
        <path class="cls-12"
          d="M319.89,111.19v28.2a.85.85,0,0,0,.84.85,32,32,0,0,1,17.72,0,.85.85,0,0,0,.85-.85v-28.2Z"></path>
        <path class="cls-14" d="M335.08,139.39s0,.06,0,.09a30.79,30.79,0,0,1,3.39.76.85.85,0,0,0,.85-.85v-28.2h-4.22Z">
        </path>
        <rect class="cls-29" x="322.64" y="106.18" width="6.14" height="39.21"></rect>
        <path class="cls-30"
          d="M337.61,143.62V106.18h2.53v37.44a1.69,1.69,0,0,1-1.69,1.69h-2.53A1.69,1.69,0,0,0,337.61,143.62Z"></path>
        <path class="cls-7"
          d="M339.3,108.52v2.67H319.89v-2.67s0,1.33,1.89,1.33h15.83C338.7,109.85,339.3,108.52,339.3,108.52Z"></path>
        <path class="cls-7" d="M320.73,140.24s4.12-.4,8.86-.4,8.86.4,8.86.4a32,32,0,0,0-17.72,0Z"></path>
        <g class="cls-31">
          <path class="cls-7" d="M332.83,129.8a.42.42,0,0,0,0,.84A.42.42,0,0,0,332.83,129.8Z"></path>
          <path class="cls-7" d="M331.18,127a.42.42,0,0,0,0,.84A.42.42,0,0,0,331.18,127Z"></path>
          <path class="cls-7" d="M327.52,125.06a.42.42,0,0,0,0,.84A.42.42,0,0,0,327.52,125.06Z"></path>
          <path class="cls-7" d="M331.37,122.91a.42.42,0,0,0,0,.84A.42.42,0,0,0,331.37,122.91Z"></path>
          <path class="cls-7" d="M330.87,120.45a.42.42,0,0,0,0,.84A.42.42,0,0,0,330.87,120.45Z"></path>
          <path class="cls-7" d="M327.9,118.24a.42.42,0,0,0,0,.83A.42.42,0,0,0,327.9,118.24Z"></path>
          <path class="cls-7" d="M331.31,115.64a.42.42,0,0,0,0,.84A.42.42,0,0,0,331.31,115.64Z"></path>
          <path class="cls-7" d="M328.34,112.48a.42.42,0,0,0,0,.84A.42.42,0,0,0,328.34,112.48Z"></path>
          <path class="cls-7" d="M328,136.32a.42.42,0,0,0,0,.83A.42.42,0,0,0,328,136.32Z"></path>
          <path class="cls-7" d="M331.69,137.33a.42.42,0,0,0,0,.84A.42.42,0,0,0,331.69,137.33Z"></path>
          <path class="cls-7" d="M330.05,133.66a.42.42,0,0,0,0,.84A.42.42,0,0,0,330.05,133.66Z"></path>
          <path class="cls-7" d="M324.1,131.7a.42.42,0,0,0,0,.84A.42.42,0,0,0,324.1,131.7Z"></path>
          <path class="cls-7" d="M330.49,129.55a.42.42,0,0,0,0,.84A.42.42,0,0,0,330.49,129.55Z"></path>
          <path class="cls-7" d="M327.14,129.32a.84.84,0,0,0,0,1.68A.84.84,0,0,0,327.14,129.32Z"></path>
          <path class="cls-7" d="M334.91,124.08a.84.84,0,0,0,0,1.67A.84.84,0,0,0,334.91,124.08Z"></path>
          <path class="cls-7" d="M325.68,112.89a.84.84,0,0,0,0,1.67A.84.84,0,0,0,325.68,112.89Z"></path>
        </g>
        <path class="cls-28"
          d="M319,125.47c0,2.27-1.57,4.22-4.12,3.85-3.39-.49-1.73-16.46.17-16.84s4,1.19,4,2.53v-5.16c-.64,2.26-2.13.11-4.63.12-3.38,0-6.64,22,.81,22,2.11,0,2.85-2.4,3.82,1.47Z">
        </path>
        <path class="cls-32"
          d="M315.22,131.11c-2.6,0-3.35-3.77-3.57-6-.66-6.93,1.66-14.06,2.77-14.28a5.85,5.85,0,0,1,2.13.52,4.3,4.3,0,0,0,1.52.4s.13,0,.41.23.32.43-.28.41-1.63-.79-2.53-.79a4.54,4.54,0,0,0-.75.07c-2.32.46-2.86,9.06-2.79,12,.11,4.1,1,6.3,2.67,6.54a6.11,6.11,0,0,0,.73.05c1,0,2.28-1.25,2.67-.94a.81.81,0,0,1,0,1.17c-.28.17-.3-.07-.46-.07a3,3,0,0,0-1.21.36A3,3,0,0,1,315.22,131.11Z">
        </path>
        <path class="cls-29"
          d="M314.41,110c-3.38,0-6.64,22,.81,22C308.83,132,311,110,314.41,110Zm4.63-.12c-.64,2.26-2.13.11-4.63.12C316.91,110,318.4,112.11,319,109.85ZM315.22,132c2.11,0,2.85-2.4,3.82,1.47v-1.69C318.07,127.86,317.33,132,315.22,132Zm-.13-19.47c1.88-.37,4,1.19,4,2.53v-1.29C319,112.89,317,112.11,315.09,112.48Z">
        </path>
        <circle class="cls-8" cx="344" cy="88.9" r="17.77" transform="translate(135.11 376.32) rotate(-68.48)"></circle>
        <circle class="cls-7" cx="341" cy="85.06" r="17.77" transform="translate(72.73 312.1) rotate(-54.25)"></circle>
        <path class="cls-18"
          d="M340.53,74.52a4.24,4.24,0,0,0-1.9,1.91,3.52,3.52,0,0,0-.25,1.52l-.22-.56-.52.21,1.54,3h0L338.81,79a4,4,0,0,0,1.68-1.78A4.2,4.2,0,0,0,340.53,74.52Z">
        </path>
        <path class="cls-19" d="M338.55,79a.7.7,0,0,0,0,.11,3.6,3.6,0,0,0,1.94-4.61l-.06,0Z"></path>
        <path class="cls-33"
          d="M342.12,77.43a5.64,5.64,0,0,0-2.94,3.15,5.64,5.64,0,0,0-4.31-.2c-4,1.62-3.59,7.25-.36,11.06,2.36,2.78,5.66,3.8,7.89,2.89a4.13,4.13,0,0,0,1.79-1.39,4.16,4.16,0,0,0,2.25-.25c2.23-.91,3.89-3.93,3.65-7.57C349.76,80.14,346.13,75.81,342.12,77.43Z">
        </path>
        <path class="cls-7"
          d="M334.59,82.1a1.31,1.31,0,0,0,1,2.43,1.31,1.31,0,1,0-1-2.43Zm-.45,3.74a.51.51,0,1,0,.39,1,.51.51,0,0,0-.39-1Z">
        </path>
        <path class="cls-11"
          d="M317.53,73.5l-.73-.76-1.24.56.08,1-.56.26-.25-3.82.58-.26,2.69,2.72Zm-1.08-1.16-.7-.75-.22-.24-.2-.24a5.93,5.93,0,0,1,.09.68l.09,1Z">
        </path>
        <path class="cls-11"
          d="M320.41,72.2l-.52.24-.68-1.51a.77.77,0,0,0-.31-.38.48.48,0,0,0-.43,0,.61.61,0,0,0-.39.41,1.14,1.14,0,0,0,.14.73l.55,1.22-.53.24-1.1-2.47.41-.18.22.29h0a.91.91,0,0,1,.2-.42,1.13,1.13,0,0,1,.41-.29.86.86,0,0,1,1.29.5Z">
        </path>
        <path class="cls-11"
          d="M323.41,70.86l-.26-.3h0a1,1,0,0,1-.22.47,1.29,1.29,0,0,1-.42.29.87.87,0,0,1-.66.06.83.83,0,0,1-.45-.47.7.7,0,0,1,0-.7,1.87,1.87,0,0,1,.77-.6l.42-.2-.06-.13a.56.56,0,0,0-.27-.31.5.5,0,0,0-.39,0,1.33,1.33,0,0,0-.34.22,3.7,3.7,0,0,0-.28.28l-.33-.3a1.71,1.71,0,0,1,.36-.35,2.24,2.24,0,0,1,.43-.26,1.13,1.13,0,0,1,.8-.11A.86.86,0,0,1,323,69l.74,1.66Zm-.94,0a.69.69,0,0,0,.39-.36.66.66,0,0,0,0-.53l-.1-.21-.31.16a1.24,1.24,0,0,0-.48.36.45.45,0,0,0,.2.63A.46.46,0,0,0,322.47,70.85Z">
        </path>
        <path class="cls-11"
          d="M325.56,70a.94.94,0,0,1-.88,0h0c.11.2.18.32.2.37l.45,1-.52.23L323.18,68l.42-.19s.11.14.23.3h0a.9.9,0,0,1,.57-.71,1,1,0,0,1,.87,0,1.64,1.64,0,0,1,.68.82,1.67,1.67,0,0,1,.16,1.06A1,1,0,0,1,325.56,70Zm-1.08-2.07a.63.63,0,0,0-.38.39,1.05,1.05,0,0,0,.12.65l0,.07a1.34,1.34,0,0,0,.44.59.61.61,0,0,0,.56,0,.56.56,0,0,0,.32-.41,1.33,1.33,0,0,0-.14-.71,1.31,1.31,0,0,0-.43-.56A.56.56,0,0,0,324.48,67.88Z">
        </path>
        <path class="cls-11"
          d="M328.17,68.78a1,1,0,0,1-.88,0h0a3.18,3.18,0,0,1,.2.37l.46,1-.53.24-1.59-3.56.42-.19.22.3,0,0a.9.9,0,0,1,.56-.7,1,1,0,0,1,.87,0,2,2,0,0,1,.84,1.88A.94.94,0,0,1,328.17,68.78Zm-1.08-2.07a.57.57,0,0,0-.37.39.94.94,0,0,0,.11.64l0,.08a1.26,1.26,0,0,0,.43.59.59.59,0,0,0,.56,0,.51.51,0,0,0,.32-.41,1.23,1.23,0,0,0-.14-.7,1.17,1.17,0,0,0-.43-.56A.53.53,0,0,0,327.09,66.71Z">
        </path>
        <path class="cls-11" d="M330,67.89l-.53.23L328,64.66l.52-.24Z"></path>
        <path class="cls-11"
          d="M331.66,67.21a1.27,1.27,0,0,1-1.05.07,1.33,1.33,0,0,1-.74-.78,1.57,1.57,0,0,1-.13-1.08,1.16,1.16,0,0,1,.67-.72,1.12,1.12,0,0,1,.91,0,1.28,1.28,0,0,1,.65.68l.12.29-1.64.73a.92.92,0,0,0,.44.47.75.75,0,0,0,.6,0,2.36,2.36,0,0,0,.39-.22,2.5,2.5,0,0,0,.34-.32l.2.42a2.45,2.45,0,0,1-.34.31A2.33,2.33,0,0,1,331.66,67.21Zm-1.07-2.11a.61.61,0,0,0-.33.34.85.85,0,0,0,0,.54l1.12-.5a.76.76,0,0,0-.36-.4A.57.57,0,0,0,330.59,65.1Z">
        </path>
        <path class="cls-12"
          d="M318.89,68.08l-3.17,1.42L313.26,64l3.16-1.42.43,1-2,.9.54,1.2,1.86-.83.43,1-1.86.84.64,1.42,2-.9Z"></path>
        <path class="cls-12"
          d="M317.14,62.51c-.17-.37,0-.65.37-.84s.71-.09.88.28a.61.61,0,0,1,0,.49.74.74,0,0,1-.4.35C317.6,63,317.31,62.89,317.14,62.51Zm3.57,4.76-1.15.51-1.88-4.2,1.14-.52Z">
        </path>
        <path class="cls-12"
          d="M325.41,65.16l-1.15.51-1.1-2.45a1.19,1.19,0,0,0-.47-.61.6.6,0,0,0-.61,0,.84.84,0,0,0-.56.63,2.33,2.33,0,0,0,.27,1.17l.89,2-1.15.52-1.89-4.21.88-.39.39.47.07,0a1.29,1.29,0,0,1,.32-.7,2.06,2.06,0,0,1,.7-.5,1.6,1.6,0,0,1,1.29-.1,1.74,1.74,0,0,1,.89,1Z">
        </path>
        <path class="cls-12"
          d="M331.28,62.52l-1-1.13-2,.9.19,1.49-1.26.57-.54-6.4,1.43-.64L332.54,62Zm-1.7-2-1.53-1.73-.26-.33c.06.36.18,1.26.35,2.7Z">
        </path>
        <path class="cls-12"
          d="M335.1,60.9a1.55,1.55,0,0,1-1.41,0l-.06,0,.34.59.76,1.7-1.15.51-2.71-6.05.93-.42.41.47.05,0a1.43,1.43,0,0,1,.91-1.16,1.51,1.51,0,0,1,1.43,0A2.91,2.91,0,0,1,335.73,58a3.19,3.19,0,0,1,.33,1.26,1.82,1.82,0,0,1-.22,1A1.61,1.61,0,0,1,335.1,60.9Zm-1.89-3.29a.8.8,0,0,0-.5.54,1.72,1.72,0,0,0,.18,1l.06.12a1.92,1.92,0,0,0,.64.88.78.78,0,0,0,.77,0c.51-.23.58-.77.2-1.62a2.07,2.07,0,0,0-.61-.85A.72.72,0,0,0,333.21,57.61Z">
        </path>
        <path class="cls-12"
          d="M338.07,55.46l-1,.45,1.5,3.34-1.15.52-1.5-3.35-.63.28-.25-.55.49-.59-.14-.31a1.51,1.51,0,0,1-.11-1.21,1.79,1.79,0,0,1,1-.84,3.36,3.36,0,0,1,1.14-.29l.08,1a2.32,2.32,0,0,0-.69.18.45.45,0,0,0-.29.3.64.64,0,0,0,.06.42l.12.26,1-.44Z">
        </path>
        <path class="cls-12"
          d="M341.78,57.9a2.37,2.37,0,0,1-1.84.16,2.32,2.32,0,0,1-1.28-1.34,2.53,2.53,0,0,1-.21-1.87,2.36,2.36,0,0,1,2.82-1.35,2.14,2.14,0,0,1,1.13,1.19l.25.55-2.72,1.22a1.19,1.19,0,0,0,.64.63,1.14,1.14,0,0,0,.88-.06,3.51,3.51,0,0,0,.68-.41,4.39,4.39,0,0,0,.6-.56l.4.88a3.41,3.41,0,0,1-.55.52A3.87,3.87,0,0,1,341.78,57.9ZM340,54.43a.83.83,0,0,0-.47.49,1.14,1.14,0,0,0,.06.76l1.61-.72a1.06,1.06,0,0,0-.52-.56A.85.85,0,0,0,340,54.43Z">
        </path>
        <path class="cls-12" d="M345.16,56.3l-1.15.51L341.38,51l1.15-.52Z"></path>
        <path class="cls-12"
          d="M439.8,107.45l-3.42.61-1.06-5.93,3.41-.62.19,1-2.16.39.23,1.3,2-.36.19,1-2,.36.27,1.53,2.16-.38Z"></path>
        <path class="cls-12"
          d="M439.45,101.61c-.07-.4.11-.64.56-.72s.71.08.78.48a.58.58,0,0,1-.08.48.74.74,0,0,1-.48.25C439.78,102.18,439.52,102,439.45,101.61Zm2.31,5.48-1.23.23-.82-4.54,1.24-.22Z">
        </path>
        <path class="cls-12"
          d="M446.83,106.18l-1.23.23-.48-2.65a1.27,1.27,0,0,0-.31-.71.63.63,0,0,0-.6-.14.86.86,0,0,0-.69.48,2.18,2.18,0,0,0,0,1.19l.38,2.13-1.23.23-.82-4.54.95-.17.27.55h.07a1.23,1.23,0,0,1,.48-.6,1.94,1.94,0,0,1,.79-.32,1.62,1.62,0,0,1,1.28.21,1.72,1.72,0,0,1,.63,1.17Z">
        </path>
        <path class="cls-12"
          d="M436.66,109.61l1.85-.33a3.41,3.41,0,0,1,1.89,0,1.24,1.24,0,0,1,.78,1,1.53,1.53,0,0,1-.09.92,1,1,0,0,1-.59.53v0a1.36,1.36,0,0,1,.9.33,1.55,1.55,0,0,1,.42.87,1.57,1.57,0,0,1-.36,1.37,2.6,2.6,0,0,1-1.51.74l-2.22.4Zm1.68,2.12.73-.13a1.35,1.35,0,0,0,.71-.29.61.61,0,0,0,.14-.57.55.55,0,0,0-.34-.44,1.68,1.68,0,0,0-.82,0l-.66.12Zm.18,1,.28,1.55.82-.15a1.25,1.25,0,0,0,.73-.34.74.74,0,0,0,.14-.65c-.09-.49-.49-.68-1.19-.55Z">
        </path>
        <path class="cls-12"
          d="M446,114.05l-.27-.55h-.06a1.37,1.37,0,0,1-.48.59,1.85,1.85,0,0,1-.8.32,1.58,1.58,0,0,1-1.28-.21,1.71,1.71,0,0,1-.63-1.16l-.53-3,1.24-.23.47,2.65a1.27,1.27,0,0,0,.31.71.63.63,0,0,0,.6.14.85.85,0,0,0,.69-.48,2.18,2.18,0,0,0,0-1.19l-.38-2.13,1.24-.23.81,4.54Z">
        </path>
        <path class="cls-12"
          d="M449.7,113.47c-1.41.26-2.26-.39-2.54-1.94a2.56,2.56,0,0,1,.26-1.87,2.2,2.2,0,0,1,1.54-.91,3.28,3.28,0,0,1,1.47,0l-.19,1a4.71,4.71,0,0,0-.58-.1,1.8,1.8,0,0,0-.52,0c-.64.11-.88.63-.71,1.54s.56,1.28,1.2,1.16a2.09,2.09,0,0,0,.64-.21,2.36,2.36,0,0,0,.56-.41l.19,1.06a1.94,1.94,0,0,1-.56.37A3,3,0,0,1,449.7,113.47Z">
        </path>
        <path class="cls-12"
          d="M455.89,112.28l-1.24.22-.47-2.65c-.12-.65-.42-.94-.91-.85a.82.82,0,0,0-.69.49,2.15,2.15,0,0,0,0,1.18l.38,2.14-1.24.22-1.13-6.32,1.24-.22.23,1.29c0,.1,0,.34.09.71l0,.37h.07a1.45,1.45,0,0,1,1.19-.9,1.6,1.6,0,0,1,1.29.21,1.74,1.74,0,0,1,.64,1.16Z">
        </path>
        <path class="cls-11"
          d="M441.23,120.52l-.53-.91-1.34.24-.17,1-.61.11.68-3.77.63-.11,1.95,3.29Zm-.77-1.38-.5-.9-.16-.28-.14-.29a6,6,0,0,1-.07.68l-.15,1Z">
        </path>
        <path class="cls-11"
          d="M443.9,117.25a.93.93,0,0,1,.84.22,2,2,0,0,1,.36,2,1,1,0,0,1-1.56.28h0l-.05.33-.42.08-.68-3.74.57-.1.16.89a2.89,2.89,0,0,1,0,.29,2.42,2.42,0,0,1,0,.25h0A.89.89,0,0,1,443.9,117.25Zm-.07.49a.57.57,0,0,0-.45.29,1.14,1.14,0,0,0,0,.69v0a1.27,1.27,0,0,0,.28.68.58.58,0,0,0,.54.13.55.55,0,0,0,.42-.33,1.34,1.34,0,0,0,0-.71C444.51,117.93,444.25,117.66,443.83,117.74Z">
        </path>
        <path class="cls-11"
          d="M448,117.93a1.46,1.46,0,0,1-.15,1.08,1.21,1.21,0,0,1-.86.53,1.23,1.23,0,0,1-.69-.05,1.09,1.09,0,0,1-.53-.4,1.69,1.69,0,0,1-.28-.7,1.43,1.43,0,0,1,.15-1.07,1.23,1.23,0,0,1,.87-.53,1.22,1.22,0,0,1,1,.2A1.43,1.43,0,0,1,448,117.93Zm-1.93.35c.11.62.39.88.85.8s.61-.43.5-1-.39-.87-.84-.79a.57.57,0,0,0-.47.33A1.21,1.21,0,0,0,446,118.28Z">
        </path>
        <path class="cls-11"
          d="M450.72,117.44a1.48,1.48,0,0,1-.15,1.08,1.21,1.21,0,0,1-.86.53,1.32,1.32,0,0,1-.69,0,1.18,1.18,0,0,1-.53-.41,1.64,1.64,0,0,1-.28-.7,1.44,1.44,0,0,1,.15-1.07,1.23,1.23,0,0,1,.87-.53,1.18,1.18,0,0,1,1,.21A1.43,1.43,0,0,1,450.72,117.44Zm-1.93.35c.11.61.39.88.85.79s.61-.42.5-1-.39-.87-.84-.79a.61.61,0,0,0-.47.33A1.24,1.24,0,0,0,448.79,117.79Z">
        </path>
        <path class="cls-11"
          d="M451.66,117.2l.25-.46.65-1,.65-.11-.87,1.33,1.41,1.31-.66.12-1.06-1-.27.31.17.91-.56.1L450.7,115l.55-.1.33,1.83.07.51Z">
        </path>
      </g>
    </g>
  </g>
</svg>