<svg xmlns="http://www.w3.org/2000/svg" viewBox="1872 12.15999984741211 798.5 958.3899536132812">
  <defs>
    <style>
      .cls-1 {
        fill: #09c6a2;
      }

      .cls-2 {
        fill: #29d3b2;
      }

      .cls-3 {
        fill: #952a00;
      }

      .cls-4 {
        opacity: 0.5;
      }

      .cls-5 {
        fill: #0061b2;
      }

      .cls-11,
      .cls-6 {
        fill: #e0e0e0;
      }

      .cls-7 {
        opacity: 0.2;
      }

      .cls-8 {
        fill: #d27647;
      }

      .cls-9 {
        fill: #000c3b;
      }

      .cls-10,
      .cls-41,
      .cls-65 {
        opacity: 0.1;
      }

      .cls-11 {
        opacity: 0.8;
      }

      .cls-12 {
        fill: #2bc5ff;
      }

      .cls-13 {
        fill: #3eb0f7;
      }

      .cls-14 {
        fill: #1b94ef;
      }

      .cls-15 {
        fill: #0078e7;
      }

      .cls-16 {
        fill: #f2815f;
      }

      .cls-17 {
        fill: #ef5d29;
      }

      .cls-18 {
        fill: #eb4300;
      }

      .cls-19 {
        fill: #ff214f;
      }

      .cls-20 {
        fill: #ea1b4c;
      }

      .cls-21 {
        fill: #ce174c;
      }

      .cls-22 {
        fill: #d74800;
      }

      .cls-23 {
        fill: #ffa117;
      }

      .cls-24 {
        fill: #e8e5e2;
      }

      .cls-25 {
        fill: #00e44d;
      }

      .cls-26 {
        fill: #0995ff;
      }

      .cls-27 {
        fill: #00c67b;
      }

      .cls-28 {
        fill: #00ac98;
      }

      .cls-29 {
        fill: #b65e00;
      }

      .cls-30 {
        fill: #ffa30d;
      }

      .cls-31,
      .cls-50 {
        fill: #fff;
      }

      .cls-31,
      .cls-69,
      .cls-85,
      .cls-86 {
        opacity: 0.3;
      }

      .cls-32,
      .cls-45 {
        fill: #f4b147;
      }

      .cls-32,
      .cls-37,
      .cls-39,
      .cls-40,
      .cls-41,
      .cls-42,
      .cls-46,
      .cls-49,
      .cls-68,
      .cls-69,
      .cls-70,
      .cls-71,
      .cls-72,
      .cls-73,
      .cls-74,
      .cls-78,
      .cls-79,
      .cls-80,
      .cls-81 {
        fill-rule: evenodd;
      }

      .cls-33 {
        fill: #f45858;
      }

      .cls-34 {
        fill: #007698;
      }

      .cls-35 {
        fill: #ff4f54;
      }

      .cls-36 {
        fill: #66003f;
      }

      .cls-37 {
        fill: #00336d;
      }

      .cls-38,
      .cls-39 {
        fill: #d3d3d3;
      }

      .cls-40 {
        fill: #ff811d;
      }

      .cls-42 {
        fill: #032a3d;
      }

      .cls-43 {
        fill: #a1bc00;
      }

      .cls-44 {
        fill: #0084af;
      }

      .cls-46 {
        fill: #e6e6e6;
      }

      .cls-47 {
        fill: #1e2f47;
      }

      .cls-48 {
        fill: #718cc7;
      }

      .cls-49 {
        fill: #fc0;
      }

      .cls-51 {
        fill: #0e4a7c;
      }

      .cls-52 {
        fill: #f4b545;
      }

      .cls-53 {
        fill: #f24952;
      }

      .cls-54 {
        fill: #d87819;
      }

      .cls-55 {
        fill: #ffa438;
      }

      .cls-56 {
        fill: #223666;
      }

      .cls-57 {
        fill: #e2e2e2;
      }

      .cls-58 {
        fill: #ffb945;
      }

      .cls-59 {
        fill: #383838;
      }

      .cls-60 {
        fill: #595959;
      }

      .cls-61 {
        fill: #353535;
      }

      .cls-62 {
        fill: #008fac;
      }

      .cls-63 {
        fill: #00659b;
      }

      .cls-64 {
        fill: #00c5cd;
      }

      .cls-65 {
        fill: #231f20;
      }

      .cls-66 {
        fill: #00212b;
      }

      .cls-67,
      .cls-70 {
        fill: #00494c;
      }

      .cls-68,
      .cls-69 {
        fill: #1a1a1a;
      }

      .cls-71,
      .cls-76 {
        fill: #fc9;
      }

      .cls-72 {
        fill: #f2ba83;
      }

      .cls-73 {
        fill: #d99959;
      }

      .cls-74 {
        fill: #ccc;
      }

      .cls-75,
      .cls-80,
      .cls-85 {
        fill: #232323;
      }

      .cls-77 {
        fill: #004c45;
      }

      .cls-78 {
        fill: #1e1e1e;
        stroke: #231915;
        stroke-miterlimit: 10;
        stroke-width: 0.57px;
      }

      .cls-79 {
        fill: #ff7f03;
      }

      .cls-81 {
        fill: #cf8e4c;
      }

      .cls-82 {
        fill: #d3a500;
      }

      .cls-83 {
        fill: #ea8f0c;
      }

      .cls-84 {
        fill: #ffaa1d;
      }

      .cls-87 {
        fill: #f83a00;
      }

      .cls-88 {
        fill: #d12b05;
      }

      .cls-89 {
        fill: #3b1800;
      }

      .cls-90 {
        fill: #e78a00;
      }

      .cls-91 {
        fill: #005781;
      }
    </style>
  </defs>
  <g id="Réteg_2" data-name="Réteg 2">
    <g id="Education_Science" data-name="Education &amp; Science">
      <g id="Classroom">
        <g id="Background">
          <!-- <rect id="Background_1" data-name="Background 1" class="cls-1" width="3000" height="1002" /> -->
          <circle id="Background_2" data-name="Background 2" class="cls-2" cx="2271.5" cy="501" r="399"></circle>
        </g>
        <g id="Classroom-2" data-name="Classroom">
          <g id="Seat_In" data-name="Seat In">
            <g id="Bookcase">
              <g id="Cupboard">
                <rect class="cls-3" x="1872" y="393.53" width="789.02" height="410.1"></rect>
                <rect class="cls-3" x="2094.75" y="275.02" width="343.52" height="528.61"></rect>
                <rect class="cls-4" x="1889.81" y="416" width="204.94" height="165.89"></rect>
                <rect class="cls-4" x="1889.81" y="611.44" width="204.94" height="165.89"></rect>
                <rect class="cls-4" x="2438.28" y="417.91" width="204.94" height="165.89"></rect>
                <rect class="cls-4" x="2438.28" y="613.36" width="204.94" height="165.89"></rect>
                <rect class="cls-4" x="2114.78" y="293.74" width="144.5" height="99.79"></rect>
                <rect class="cls-4" x="2273.83" y="293.74" width="144.5" height="99.79"></rect>
                <rect class="cls-4" x="2114.74" y="416" width="144.5" height="165.89"></rect>
                <rect class="cls-4" x="2273.79" y="416" width="144.51" height="165.89"></rect>
                <rect class="cls-4" x="2114.74" y="611.44" width="144.5" height="74.83"></rect>
                <rect class="cls-4" x="2273.79" y="611.44" width="144.51" height="74.83"></rect>
                <rect class="cls-4" x="2114.74" y="702.49" width="144.5" height="74.84"></rect>
                <rect class="cls-4" x="2273.79" y="702.49" width="144.51" height="74.84"></rect>
              </g>
              <g id="Teleskop">
                <path class="cls-5" d="M2538.55,502.68c-.08-5.24-3.27-9.49-7.33-9.59s-7.46,4-7.8,9.2Z"></path>
                <rect class="cls-6" x="2511.2" y="469.91" width="18.1" height="26.99"
                  transform="translate(1971.72 2990.29) rotate(-88.52)"></rect>
                <rect class="cls-7" x="2524.44" y="482.93" width="18.1" height="1.64"
                  transform="translate(1985.04 3004.03) rotate(-88.53)"></rect>
                <rect class="cls-8" x="2585.3" y="481.29" width="23.21" height="8.21"
                  transform="translate(2044.09 3068.79) rotate(-88.51)"></rect>
                <rect class="cls-6" x="2538.39" y="469.93" width="19.04" height="28.39"
                  transform="matrix(0.03, -1, 1, 0.03, 1997.77, 3018.6)"></rect>
                <rect class="cls-7" x="2552.31" y="483.62" width="19.04" height="1.72"
                  transform="translate(2011.59 3033) rotate(-88.53)"></rect>
                <rect class="cls-6" x="2567" y="469.44" width="20.71" height="30.89"
                  transform="translate(2025.7 3048.79) rotate(-88.51)"></rect>
                <path class="cls-7"
                  d="M2600.71,497.11l.53-20.4c-8.4,1.72-64.4,12.91-94.6,11.13l-.11,4.26,25.91.68,1,0v.47l27.25.71,1,0,0,.84,30.88.8,0,1.25Z">
                </path>
                <path class="cls-9" d="M2535.8,493.14a4.58,4.58,0,1,1-4.45-4.7A4.57,4.57,0,0,1,2535.8,493.14Z"></path>
                <path class="cls-6" d="M2533.62,493.09a2.4,2.4,0,1,1-2.33-2.46A2.39,2.39,0,0,1,2533.62,493.09Z"></path>
                <polygon class="cls-6" points="2488.19 485.7 2491.3 487.3 2491.54 478.02 2488.35 479.39 2488.19 485.7">
                </polygon>
                <rect class="cls-5" x="2487.41" y="572.23" width="4.71" height="3.19"
                  transform="translate(1850.49 3047.6) rotate(-88.49)"></rect>
                <rect class="cls-5" x="2563.88" y="573.91" width="4.71" height="3.19"
                  transform="translate(1925.62 3126.27) rotate(-88.54)"></rect>
                <rect class="cls-5" x="2525.37" y="580.32" width="4.71" height="3.19"
                  transform="translate(1881.3 3093.92) rotate(-88.53)"></rect>
                <rect class="cls-9" x="2492.02" y="475.04" width="14.15" height="15.35"
                  transform="translate(1951.9 2968.49) rotate(-88.52)"></rect>
                <path class="cls-6"
                  d="M2492,572.68a2.41,2.41,0,0,1-3.3.8h0a2.39,2.39,0,0,1-.79-3.3l39.77-64.94a2.4,2.4,0,0,1,3.3-.8h0a2.4,2.4,0,0,1,.79,3.3Z">
                </path>
                <path class="cls-6"
                  d="M2564,574.55a2.39,2.39,0,0,0,3.25,1h0a2.39,2.39,0,0,0,1-3.25l-36.35-66.91a2.39,2.39,0,0,0-3.26-1h0a2.4,2.4,0,0,0-1,3.25Z">
                </path>
                <path class="cls-10"
                  d="M2531,504.44h0l-42.28,69h0a2.4,2.4,0,0,0,3.3-.8l39.78-64.94A2.41,2.41,0,0,0,2531,504.44Z"></path>
                <path class="cls-10"
                  d="M2528.6,504.41h0l38.64,71.12h0a2.39,2.39,0,0,0,1-3.25l-36.35-66.91A2.39,2.39,0,0,0,2528.6,504.41Z">
                </path>
                <rect class="cls-6" x="2529.6" y="488.69" width="3.27" height="30.89"
                  transform="translate(1961.65 3021.45) rotate(-88.51)"></rect>
                <path class="cls-6"
                  d="M2530.15,581a2.41,2.41,0,0,1-2.46,2.34h0a2.41,2.41,0,0,1-2.34-2.46l2-76.13a2.39,2.39,0,0,1,2.46-2.33h0a2.39,2.39,0,0,1,2.33,2.46Z">
                </path>
                <path class="cls-10"
                  d="M2529.79,502.46h0l-2.1,80.92h0a2.41,2.41,0,0,0,2.46-2.34l2-76.12A2.39,2.39,0,0,0,2529.79,502.46Z">
                </path>
              </g>
              <g id="Chemistry">
                <path class="cls-11"
                  d="M2145.31,353.19V323.25h.69a3,3,0,0,0,0-6h-8.52a3,3,0,0,0,0,6h.69v29.94a20.26,20.26,0,1,0,7.14,0Z">
                </path>
                <path class="cls-12" d="M2136.82,359.79a1.27,1.27,0,1,1-1.27-1.27A1.27,1.27,0,0,1,2136.82,359.79Z">
                </path>
                <path class="cls-12" d="M2130.5,366.59a2.32,2.32,0,1,1-2.32-2.32A2.32,2.32,0,0,1,2130.5,366.59Z"></path>
                <path class="cls-12" d="M2145.27,364.27a1.77,1.77,0,1,1-1.76-1.76A1.76,1.76,0,0,1,2145.27,364.27Z">
                </path>
                <path class="cls-12" d="M2156.91,363.86a1.77,1.77,0,1,1-1.77-1.77A1.77,1.77,0,0,1,2156.91,363.86Z">
                </path>
                <path class="cls-12" d="M2150.06,358.58a1.05,1.05,0,1,1-1-1.06A1,1,0,0,1,2150.06,358.58Z"></path>
                <circle class="cls-12" cx="2142.48" cy="349.48" r="1.77"></circle>
                <path class="cls-12" d="M2144.92,341.79a3.18,3.18,0,1,1-3.17-3.17A3.16,3.16,0,0,1,2144.92,341.79Z">
                </path>
                <path class="cls-12" d="M2144.7,330a1.2,1.2,0,1,1-1.19-1.2A1.19,1.19,0,0,1,2144.7,330Z"></path>
                <path class="cls-12" d="M2142.48,325a1.77,1.77,0,1,1-1.77-1.76A1.77,1.77,0,0,1,2142.48,325Z"></path>
                <path class="cls-13"
                  d="M2136.56,371c-4.88,2.57-11,1.75-15,.75,0,.45-.05.91-.05,1.38a20.26,20.26,0,1,0,39.75-5.53C2151.08,363.84,2143,367.63,2136.56,371Z">
                </path>
                <path class="cls-14"
                  d="M2138.21,373.32a26.21,26.21,0,0,1-16.71.43,20.25,20.25,0,0,0,40.5-.62c0-.52,0-1-.06-1.55C2155.4,369.75,2147.18,370.27,2138.21,373.32Z">
                </path>
                <path class="cls-15"
                  d="M2138.21,376.75a26.35,26.35,0,0,1-16.29.56,20.26,20.26,0,0,0,40-2.3C2155.38,373.18,2147.17,373.7,2138.21,376.75Z">
                </path>
                <path class="cls-11"
                  d="M2181.84,362.4V339.32h.53a2.33,2.33,0,0,0,0-4.65h-6.57a2.33,2.33,0,0,0,0,4.65h.53V362.4a15.62,15.62,0,1,0,5.51,0Z">
                </path>
                <path class="cls-16" d="M2175.29,367.49a1,1,0,1,1-1-1A1,1,0,0,1,2175.29,367.49Z"></path>
                <path class="cls-16" d="M2170.42,372.73a1.79,1.79,0,1,1-1.79-1.79A1.79,1.79,0,0,1,2170.42,372.73Z">
                </path>
                <path class="cls-16" d="M2181.81,370.94a1.37,1.37,0,1,1-1.37-1.36A1.37,1.37,0,0,1,2181.81,370.94Z">
                </path>
                <path class="cls-16" d="M2190.78,370.62a1.37,1.37,0,1,1-1.37-1.36A1.37,1.37,0,0,1,2190.78,370.62Z">
                </path>
                <path class="cls-16" d="M2185.5,366.55a.81.81,0,1,1-.81-.81A.81.81,0,0,1,2185.5,366.55Z"></path>
                <path class="cls-16" d="M2181,359.54a1.36,1.36,0,1,1-1.36-1.36A1.36,1.36,0,0,1,2181,359.54Z"></path>
                <path class="cls-16" d="M2181.53,353.61a2.45,2.45,0,1,1-2.44-2.44A2.44,2.44,0,0,1,2181.53,353.61Z">
                </path>
                <path class="cls-16" d="M2181.37,344.48a.93.93,0,1,1-.93-.92A.93.93,0,0,1,2181.37,344.48Z"></path>
                <path class="cls-16" d="M2179.65,340.68a1.36,1.36,0,1,1-1.36-1.36A1.36,1.36,0,0,1,2179.65,340.68Z">
                </path>
                <path class="cls-16"
                  d="M2175.09,376.13c-3.77,2-8.51,1.34-11.58.57,0,.36,0,.71,0,1.07a15.62,15.62,0,1,0,31.23,0,15.84,15.84,0,0,0-.59-4.27C2186.28,370.61,2180,373.53,2175.09,376.13Z">
                </path>
                <path class="cls-17"
                  d="M2176.36,377.92a20.19,20.19,0,0,1-12.88.33,15.61,15.61,0,0,0,31.22-.48c0-.4,0-.8,0-1.19C2189.62,375.17,2183.28,375.57,2176.36,377.92Z">
                </path>
                <path class="cls-18"
                  d="M2176.36,380.56a20.38,20.38,0,0,1-12.56.44,15.62,15.62,0,0,0,30.83-1.78C2189.6,377.81,2183.27,378.21,2176.36,380.56Z">
                </path>
                <path class="cls-11"
                  d="M2216.7,364.86V343.62h.49a2.14,2.14,0,0,0,0-4.28h-6.05a2.14,2.14,0,1,0,0,4.28h.49v21.24a14.38,14.38,0,1,0,5.07,0Z">
                </path>
                <path class="cls-19" d="M2210.67,369.55a.9.9,0,1,1-.9-.9A.9.9,0,0,1,2210.67,369.55Z"></path>
                <path class="cls-19" d="M2206.19,374.38a1.65,1.65,0,1,1-1.65-1.65A1.64,1.64,0,0,1,2206.19,374.38Z">
                </path>
                <path class="cls-19" d="M2216.67,372.73a1.26,1.26,0,1,1-1.25-1.25A1.25,1.25,0,0,1,2216.67,372.73Z">
                </path>
                <path class="cls-19" d="M2224.92,372.43a1.25,1.25,0,1,1-1.25-1.25A1.25,1.25,0,0,1,2224.92,372.43Z">
                </path>
                <path class="cls-19"
                  d="M2220.07,368.69a.75.75,0,0,1-.75.74.75.75,0,0,1,0-1.49A.75.75,0,0,1,2220.07,368.69Z"></path>
                <path class="cls-19" d="M2215.94,362.23a1.26,1.26,0,1,1-1.25-1.25A1.25,1.25,0,0,1,2215.94,362.23Z">
                </path>
                <path class="cls-19" d="M2216.42,356.78a2.26,2.26,0,1,1-2.25-2.25A2.25,2.25,0,0,1,2216.42,356.78Z">
                </path>
                <path class="cls-19" d="M2216.27,348.37a.85.85,0,1,1-.85-.85A.85.85,0,0,1,2216.27,348.37Z"></path>
                <path class="cls-19" d="M2214.69,344.87a1.26,1.26,0,1,1-1.26-1.25A1.25,1.25,0,0,1,2214.69,344.87Z">
                </path>
                <path class="cls-19"
                  d="M2210.49,377.5c-3.47,1.83-7.84,1.24-10.66.53,0,.33,0,.65,0,1a14.38,14.38,0,1,0,28.75,0,14.12,14.12,0,0,0-.55-3.92C2220.79,372.42,2215,375.11,2210.49,377.5Z">
                </path>
                <path class="cls-20"
                  d="M2211.66,379.15a18.57,18.57,0,0,1-11.86.3,14.37,14.37,0,0,0,28.74-.44c0-.37,0-.73-.05-1.09C2223.86,376.62,2218,377,2211.66,379.15Z">
                </path>
                <path class="cls-21"
                  d="M2211.66,381.58a18.72,18.72,0,0,1-11.56.4,14.37,14.37,0,0,0,28.37-1.64C2223.84,379.05,2218,379.42,2211.66,381.58Z">
                </path>
              </g>
              <g id="Books">
                <rect class="cls-22" x="1904.08" y="464.76" width="20.1" height="117.13"></rect>
                <rect class="cls-22" x="1927.65" y="464.76" width="20.1" height="117.13"></rect>
                <rect class="cls-22" x="1951.21" y="464.76" width="20.1" height="117.13"></rect>
                <rect class="cls-23" x="1975.3" y="464.76" width="20.1" height="117.13"></rect>
                <rect class="cls-23" x="1998.86" y="464.76" width="20.1" height="117.13"></rect>
                <rect class="cls-23" x="2022.42" y="464.76" width="20.1" height="117.13"></rect>
                <polygon class="cls-22"
                  points="2323.7 582.06 2307.71 582.06 2273.78 475.94 2289.78 475.94 2323.7 582.06"></polygon>
                <polygon class="cls-22"
                  points="2342.46 582.06 2326.46 582.06 2292.54 475.94 2308.53 475.94 2342.46 582.06"></polygon>
                <polygon class="cls-22"
                  points="2361.21 582.06 2345.22 582.06 2311.29 475.94 2327.28 475.94 2361.21 582.06"></polygon>
                <polygon class="cls-23"
                  points="2380.37 582.06 2364.38 582.06 2330.46 475.94 2346.45 475.94 2380.37 582.06"></polygon>
                <polygon class="cls-23"
                  points="2399.13 582.06 2383.13 582.06 2349.21 475.94 2365.2 475.94 2399.13 582.06"></polygon>
                <polygon class="cls-23"
                  points="2417.88 582.06 2401.88 582.06 2367.96 475.94 2383.95 475.94 2417.88 582.06"></polygon>
                <rect class="cls-22" x="1906.08" y="660.2" width="20.1" height="117.13"></rect>
                <rect class="cls-22" x="1929.64" y="712.88" width="20.1" height="64.45"></rect>
                <rect class="cls-22" x="1953.2" y="673.72" width="20.1" height="103.61"></rect>
                <rect class="cls-23" x="1977.29" y="691.39" width="20.1" height="85.94"></rect>
                <rect class="cls-23" x="2000.85" y="673.72" width="20.1" height="103.61"></rect>
                <rect class="cls-23" x="2024.42" y="673.72" width="20.1" height="103.61"></rect>
                <rect class="cls-23" x="1909.89" y="668" width="12.47" height="9.88"></rect>
                <rect class="cls-23" x="1933.45" y="718.77" width="12.48" height="9.87"></rect>
                <rect class="cls-23" x="1957.02" y="677.88" width="12.47" height="9.87"></rect>
                <rect class="cls-24" x="1981.1" y="695.03" width="12.47" height="9.88"></rect>
                <rect class="cls-24" x="2004.66" y="677.88" width="12.47" height="9.87"></rect>
                <rect class="cls-24" x="2028.23" y="677.88" width="12.48" height="9.87"></rect>
                <rect class="cls-25" x="2116.73" y="464.76" width="20.1" height="117.13"></rect>
                <rect class="cls-26" x="2140.29" y="517.43" width="20.1" height="64.45"></rect>
                <rect class="cls-22" x="2163.86" y="478.28" width="20.1" height="103.61"></rect>
                <rect class="cls-23" x="2187.94" y="495.95" width="20.1" height="85.94"></rect>
                <rect class="cls-23" x="2211.5" y="478.28" width="20.1" height="103.61"></rect>
                <rect class="cls-27" x="2235.07" y="478.28" width="20.1" height="103.61"></rect>
                <rect class="cls-23" x="2120.54" y="472.56" width="12.48" height="9.88"></rect>
                <rect class="cls-23" x="2144.1" y="523.32" width="12.48" height="9.87"></rect>
                <rect class="cls-23" x="2167.67" y="482.43" width="12.48" height="9.88"></rect>
                <rect class="cls-24" x="2191.75" y="499.59" width="12.47" height="9.87"></rect>
                <rect class="cls-24" x="2215.32" y="482.43" width="12.47" height="9.88"></rect>
                <rect class="cls-24" x="2238.88" y="482.43" width="12.47" height="9.88"></rect>
                <rect class="cls-28" x="2449.65" y="661.88" width="20.1" height="117.13"></rect>
                <rect class="cls-28" x="2473.22" y="661.88" width="20.1" height="117.13"></rect>
                <rect class="cls-28" x="2496.78" y="661.88" width="20.1" height="117.13"></rect>
                <rect class="cls-29" x="2520.87" y="661.88" width="20.1" height="117.13"></rect>
                <rect class="cls-29" x="2544.43" y="661.88" width="20.1" height="117.13"></rect>
                <rect class="cls-29" x="2567.99" y="661.88" width="20.1" height="117.13"></rect>
                <rect class="cls-30" x="2597.82" y="661.88" width="20.1" height="117.13"
                  transform="translate(-75.69 376.16) rotate(-8.13)"></rect>
                <rect class="cls-31" x="2452.45" y="661.88" width="3.64" height="117.13"></rect>
                <rect class="cls-31" x="2478.27" y="661.05" width="3.64" height="117.13"></rect>
                <rect class="cls-31" x="2500.79" y="661.05" width="3.64" height="117.13"></rect>
                <rect class="cls-31" x="2527.28" y="661.88" width="3.64" height="117.13"></rect>
                <rect class="cls-31" x="2550.84" y="661.88" width="3.64" height="117.13"></rect>
                <polygon class="cls-32"
                  points="2119.58 710.14 2119.45 777.44 2136.27 777.47 2136.4 710.18 2119.58 710.14"></polygon>
                <rect class="cls-33" x="2119.57" y="716.19" width="16.83" height="3.49"></rect>
                <rect class="cls-33" x="2119.57" y="720.97" width="16.81" height="1.19"></rect>
                <rect class="cls-34" x="2122.84" y="733.09" width="9.41" height="29.21"></rect>
                <rect class="cls-33" x="2119.46" y="769.67" width="16.83" height="1.3"></rect>
                <rect class="cls-33" x="2119.46" y="772.48" width="16.82" height="2.92"></rect>
                <rect class="cls-10" x="2089.75" y="739.92" width="67.3" height="7.76"
                  transform="translate(1374.54 2865.42) rotate(-89.86)"></rect>
                <rect class="cls-35" x="2128.95" y="749.92" width="43.11" height="10.77"
                  transform="translate(1391.01 2904.34) rotate(-89.89)"></rect>
                <rect class="cls-36" x="2145.15" y="737.61" width="10.78" height="2.24"></rect>
                <rect class="cls-36" x="2145.15" y="740.68" width="10.78" height="0.76"></rect>
                <rect class="cls-36" x="2145.08" y="771.87" width="10.78" height="0.83"></rect>
                <path class="cls-37" d="M2154.37,753.39a3.9,3.9,0,1,1-3.9-3.89A3.91,3.91,0,0,1,2154.37,753.39Z"></path>
                <rect class="cls-36" x="2145.08" y="773.67" width="10.77" height="1.87"></rect>
                <rect class="cls-10" x="2126.05" y="752.82" width="43.11" height="4.97"
                  transform="translate(1387.68 2901.27) rotate(-89.88)"></rect>
                <polygon class="cls-37"
                  points="2168.18 733.73 2171.79 776.68 2175.05 776.43 2171.45 733.47 2168.18 733.73"></polygon>
                <rect class="cls-38" x="2168.59" y="737.44" width="3.28" height="2.24"
                  transform="translate(-54.22 184.3) rotate(-4.8)"></rect>
                <rect class="cls-38" x="2168.79" y="740.5" width="3.27" height="0.76"
                  transform="translate(-55.14 187.27) rotate(-4.88)"></rect>
                <polygon class="cls-39"
                  points="2174.7 772.27 2171.44 772.56 2171.37 771.72 2174.63 771.45 2174.7 772.27"></polygon>
                <path class="cls-40"
                  d="M2172.63,753.07c.18,2.15-.21,3.94-.86,4s-1.32-1.64-1.51-3.79.21-3.93.86-4S2172.44,750.93,2172.63,753.07Z">
                </path>
                <rect class="cls-38" x="2171.59" y="773.38" width="3.27" height="1.87"
                  transform="translate(-57.98 187.65) rotate(-4.88)"></rect>
                <polygon class="cls-41"
                  points="2169.69 733.61 2168.18 733.73 2171.79 776.68 2173.29 776.57 2169.69 733.61"></polygon>
                <polygon class="cls-42"
                  points="2140.44 731.55 2140.29 776.83 2143.57 776.86 2143.72 731.58 2140.44 731.55"></polygon>
                <rect class="cls-38" x="2140.89" y="735.16" width="2.35" height="3.28"
                  transform="translate(1397.61 2876.21) rotate(-89.79)"></rect>
                <rect class="cls-38" x="2141.65" y="737.61" width="0.8" height="3.27"
                  transform="translate(1395.14 2878.63) rotate(-89.79)"></rect>
                <rect class="cls-38" x="2141.51" y="770.41" width="0.88" height="3.27"
                  transform="translate(1362.25 2911.22) rotate(-89.8)"></rect>
                <path class="cls-40"
                  d="M2143.18,752.21c0,2.26-.54,4.09-1.19,4.09s-1.18-1.84-1.18-4.1.55-4.1,1.2-4.1S2143.19,750,2143.18,752.21Z">
                </path>
                <rect class="cls-38" x="2140.95" y="772.85" width="1.97" height="3.27"
                  transform="translate(1363.59 2915.02) rotate(-89.9)"></rect>
                <polygon class="cls-41"
                  points="2141.95 731.56 2140.44 731.55 2140.29 776.83 2141.8 776.84 2141.95 731.56"></polygon>
                <rect class="cls-43" x="2133.42" y="742.16" width="58.02" height="10.78"
                  transform="translate(1410.69 2908.52) rotate(-89.89)"></rect>
                <rect class="cls-44" x="2157.09" y="719.77" width="10.77" height="2.23"></rect>
                <rect class="cls-44" x="2157.09" y="722.84" width="10.75" height="0.76"></rect>
                <rect class="cls-44" x="2156.98" y="771.57" width="10.78" height="0.83"></rect>
                <path class="cls-37"
                  d="M2166.27,747c0,5.52-1.74,10-3.9,10s-3.9-4.47-3.9-10,1.75-10,3.9-10S2166.27,741.48,2166.27,747Z">
                </path>
                <rect class="cls-44" x="2156.99" y="773.37" width="10.85" height="1.87"></rect>
                <rect class="cls-10" x="2130.51" y="745.06" width="58.02" height="4.97"
                  transform="translate(1406.85 2905.28) rotate(-89.86)"></rect>
                <g id="Books-2" data-name="Books">
                  <rect class="cls-45" x="2305.35" y="645.04" width="50.58" height="15.77"></rect>
                  <rect class="cls-33" x="2310.61" y="632.95" width="40.07" height="11.97"></rect>
                  <path class="cls-46"
                    d="M2319.07,620.18h25.82s-4.5,2-4.39,5.75,4.39,6.23,4.39,6.23h-25.82c-2.64,0-4.8-2.69-4.8-6h0c0-3.29,2.16-6,4.8-6Z">
                  </path>
                  <path class="cls-47"
                    d="M2319.07,619.42h26V621h-26a3.82,3.82,0,0,0-3,1.54,5.91,5.91,0,0,0-1.23,3.69h0a5.89,5.89,0,0,0,1.23,3.69,3.79,3.79,0,0,0,3,1.54h26v1.52h-26a5,5,0,0,1-3.83-2,7.72,7.72,0,0,1-1.58-4.77h0a7.69,7.69,0,0,1,1.58-4.76,4.93,4.93,0,0,1,3.83-2Z">
                  </path>
                  <rect class="cls-48" x="2317.88" y="623.37" width="20.18" height="0.24"></rect>
                  <rect class="cls-48" x="2316.32" y="625.1" width="20.18" height="0.24"></rect>
                  <rect class="cls-48" x="2318.19" y="626.86" width="20.18" height="0.24"></rect>
                  <polygon class="cls-7" points="2323.14 623.6 2334.78 631.4 2324.65 631.4 2320.27 630 2323.14 623.6">
                  </polygon>
                  <rect class="cls-48" x="2318.38" y="628.91" width="21.04" height="0.23"></rect>
                  <polygon class="cls-49"
                    points="2320.27 623.6 2323.14 623.6 2323.14 630 2321.73 628.91 2320.27 630 2320.27 623.6"></polygon>
                  <path class="cls-41" d="M2320.27,624.74a5.32,5.32,0,0,1,2.87.27V623.6h-2.87Z"></path>
                  <rect class="cls-10" x="2310.61" y="638.94" width="40.07" height="5.98"></rect>
                  <rect class="cls-10" x="2305.35" y="653.53" width="50.58" height="7.28"></rect>
                </g>
                <path class="cls-50" d="M2371.86,662.64H2298.7a9.44,9.44,0,0,0,0,18.88h73.16Z"></path>
                <path class="cls-7"
                  d="M2300.2,664.48l-2.48-1.78a9.48,9.48,0,0,0-3.11,17.85c-.18-.57-.44-1.25-.79-2.06C2289,667.56,2300.2,664.48,2300.2,664.48Z">
                </path>
                <path class="cls-51"
                  d="M2373.32,679.69h-74.45a7.61,7.61,0,0,1,0-15.21h74.45v-3.67h-74.45a11.28,11.28,0,1,0,0,22.55h74.45Z">
                </path>
                <path class="cls-50" d="M2205.41,640.05h-73.16a9.44,9.44,0,0,0,0,18.87h73.16Z"></path>
                <path class="cls-7"
                  d="M2133.75,641.88l-2.48-1.78a9.48,9.48,0,0,0-3.11,17.85,19.94,19.94,0,0,0-.8-2.06C2122.56,645,2133.75,641.88,2133.75,641.88Z">
                </path>
                <path class="cls-52"
                  d="M2206.86,657.09h-74.44a7.61,7.61,0,1,1,0-15.21h74.44v-3.67h-74.44a11.28,11.28,0,1,0,0,22.55h74.44Z">
                </path>
                <path class="cls-50" d="M2205.41,664.28h-73.16a9.44,9.44,0,0,0,0,18.88h73.16Z"></path>
                <path class="cls-7"
                  d="M2133.75,666.12l-2.48-1.79a9.48,9.48,0,0,0-3.11,17.86,20,20,0,0,0-.8-2.07C2122.56,669.2,2133.75,666.12,2133.75,666.12Z">
                </path>
                <path class="cls-53"
                  d="M2206.86,681.32h-74.44a7.6,7.6,0,1,1,0-15.2h74.44v-3.67h-74.44a11.27,11.27,0,1,0,0,22.54h74.44Z">
                </path>
                <path class="cls-50" d="M2383.86,730.64H2310.7a9.44,9.44,0,0,0,0,18.88h73.16Z"></path>
                <path class="cls-7"
                  d="M2312.2,732.48l-2.47-1.78a9.48,9.48,0,0,0-3.12,17.85,20.51,20.51,0,0,0-.79-2.07C2301,735.56,2312.2,732.48,2312.2,732.48Z">
                </path>
                <path class="cls-52"
                  d="M2385.32,747.68h-74.45a7.6,7.6,0,1,1,0-15.2h74.45v-3.67h-74.45a11.28,11.28,0,0,0,0,22.55h74.45Z">
                </path>
                <path class="cls-50" d="M2383.86,754.88H2310.7a9.44,9.44,0,0,0,0,18.88h73.16Z"></path>
                <path class="cls-7"
                  d="M2312.2,756.72l-2.47-1.78a9.48,9.48,0,0,0-3.12,17.85,19.64,19.64,0,0,0-.79-2.07C2301,759.8,2312.2,756.72,2312.2,756.72Z">
                </path>
                <path class="cls-53"
                  d="M2385.32,771.92h-74.45a7.6,7.6,0,1,1,0-15.2h74.45v-3.67h-74.45a11.27,11.27,0,1,0,0,22.54h74.45Z">
                </path>
              </g>
              <g id="Time">
                <path class="cls-54"
                  d="M2351.31,386.32c-4.55-4-2.48-13.39-2.48-13.39h-13.56s2.07,9.37-2.47,13.39a16.32,16.32,0,0,1-9.86,4v2.26h38.23v-2.26A16.32,16.32,0,0,1,2351.31,386.32Z">
                </path>
                <rect class="cls-31" x="2322.94" y="390.33" width="38.23" height="2.26"></rect>
                <rect class="cls-55" x="2314.37" y="329.36" width="56.18" height="52.79" rx="4.93"></rect>
                <path class="cls-56"
                  d="M2365.23,355.76A22.77,22.77,0,1,1,2342.46,333,22.78,22.78,0,0,1,2365.23,355.76Z"></path>
                <path class="cls-57" d="M2358.86,355.76a16.4,16.4,0,1,1-16.4-16.4A16.4,16.4,0,0,1,2358.86,355.76Z">
                </path>
                <path class="cls-56" d="M2344.29,355.76a1.84,1.84,0,1,1-1.83-1.84A1.83,1.83,0,0,1,2344.29,355.76Z">
                </path>
                <rect class="cls-58" x="2342.05" y="342.81" width="0.82" height="13.46"></rect>
                <rect class="cls-58" x="2346.12" y="351.38" width="0.82" height="8.93"
                  transform="matrix(0, -1, 1, 0, 1987.83, 2701.94)"></rect>
                <rect class="cls-56" x="2326.6" y="355.76" width="1.65" height="0.51"></rect>
                <rect class="cls-56" x="2342.21" y="339.77" width="0.51" height="1.65"></rect>
                <rect class="cls-56" x="2342.62" y="369.7" width="0.52" height="1.64"></rect>
                <rect class="cls-56" x="2356.61" y="355.59" width="1.64" height="0.51"></rect>
                <path class="cls-10"
                  d="M2365.61,329.36h-23.15v52.79h23.15a4.94,4.94,0,0,0,4.94-4.93V334.29A4.94,4.94,0,0,0,2365.61,329.36Z">
                </path>
              </g>
              <g id="Globe">
                <rect class="cls-59" x="2296.67" y="159.21" width="13.21" height="1.57"
                  transform="translate(561.92 1676.03) rotate(-45.02)"></rect>
                <rect class="cls-59" x="2235.2" y="227.66" width="13.21" height="1.57"
                  transform="translate(674.52 1847.54) rotate(-51.75)"></rect>
                <path class="cls-60"
                  d="M2303.4,154.15h0a50,50,0,1,1-66,75.17h0l-2.3,2.61h0a53.5,53.5,0,0,0,70.61-80.4h0Z"></path>
                <polygon class="cls-60" points="2272.95 245.21 2282.82 262.3 2263.08 262.3 2272.95 245.21"></polygon>
                <rect class="cls-61" x="2245.14" y="262.3" width="55.62" height="6.11"></rect>
                <rect class="cls-62" x="2240.68" y="267.93" width="64.55" height="7.09"></rect>
                <g id="Globe-2" data-name="Globe">
                  <path class="cls-63" d="M2316,191.64a46.1,46.1,0,1,1-46.09-46.09A46.1,46.1,0,0,1,2316,191.64Z"></path>
                  <path class="cls-64"
                    d="M2296.42,215c-.29,0-.65-.56-1-.91s-2.41.1-2.9.1a2.09,2.09,0,0,1-1.18-.48c-.45-.28-.93.06-1.28.13s-.51-.23-.3-.62-.72-.29-1.41-.15-.43.48-1,.29.66-.84,1.06-1.32a1,1,0,0,0-.31-1.38c-.23-.08-.68-.78-1.38-1.32s-1.22-.14-2.05-.14a1.84,1.84,0,0,1-1.42-.66c-.39-.29-.28-.87-1.83-1.69s-.89-.37-.79-.53.25-.13-.29-.38-1,.29-1.54.5a2.77,2.77,0,0,1-1.44.1c-.23-.06-.5-.62-.78-.74a1.64,1.64,0,0,1-.67-.64.42.42,0,0,0-.72.35c0,.5-.28.8-.82,1s-.31-.6-.31-.86.49-.5.52-.89-.48.37-1,.91-.85,0-1.82.14-.51,1.11-.51,1.67-.81.76-.95.62-.14-.44-.42-.44-.38-.47-.45-.65a1,1,0,0,0-1.44.35c-.37.7-.76.14-1.21,0s-1.32-1.88-1.12-2.19.19-.45,0-.66-.12-.37.06-.7.64-.64-.29-1.24-2.39-.08-3.17-.16-.15-.64,0-.8a3.66,3.66,0,0,0,.62-1.16c.16-.47-.13-.51.14-1.13s.19-1.05-.43-1.09a1.23,1.23,0,0,0-1.24,1.33c0,.89-.93.85-3,.69s-1.87-1.78-2.1-3.1.43-2.45.46-3.11.86-1.4,1.64-2a2.91,2.91,0,0,1,1.88-.44,12.14,12.14,0,0,0,2,.28c.47,0,.08-.39.12-.85s2.29-.16,2.68-.16.31.31.74.73.35-.42.77-.34.08.35.7,1.36a4.86,4.86,0,0,1,.7,2.21c.2.86.62.43.9-.27s-.31-2.95-.47-4.12.89-.73,1.9-1.82,2.06-1.17,2.53-1.94,0-2.06.23-1.36.31-.27.35-1,.43-1,.62-.62.43.11.59-.63a4.9,4.9,0,0,1,1.12-1.86c.31-.37.93,0,1.79,0s0-.16-.22-1a.89.89,0,0,1,.88-1.15,9.06,9.06,0,0,0,2.06-1c.31-.19.72-.17,1.26.23s-.51.1-.85.7.5.68.87.14,1.18-.29,1.88-1-.79-.45-1.12-.54-.54-.92-.51-1.18a1.83,1.83,0,0,0-.55-1.22c-.35-.3-1.26,0-2,.35s-1,.61-1,.23,1.37-1.25,1.72-1.31a4.08,4.08,0,0,0,1.8-1c.47-.53,1.81.08,2.42.14s1.49.41,1.81,0,.58-.43,1.22-.52.76-1,.32-1.43-1.08-1.89-2-2.36-.55-.76-.26-1.13-.91-1.32-1.3-2.29,0-1.2-.43-1.24-.15.7-.39,1.36-1.2.31-1.36.27a1.73,1.73,0,0,1-.66-1.32c0-.62.19-1.17,0-1.36s-.62,0-.85-.27-.55-.93-.89-1.24-1.13-.12-1.68-.24-1,.08-.93.43a5.13,5.13,0,0,1-.16,2.06c-.19,1.24-.58.58-.89.89s.2.39.47,1.28a1.84,1.84,0,0,1-.62,1.83,6.42,6.42,0,0,1-1.75.66c-.59.2,0,.93.12,1.55a2.06,2.06,0,0,1-.82,1.64c-.31.11-1.32-1.17-1.4-1.91s.62-1.55.31-1.78a8.71,8.71,0,0,1-2.64-1.17c-1.13-.93-2.49-1.44-2.95-2.56s.46-2.14.85-3,1.17-.7,2.41-1.16.47-.89.78-.89,1.32-.16,1.55-.47a4.68,4.68,0,0,1,1.28-.9c.51-.27.63-.81.82-1.12s.74.43,1.36.35.58.11,1.44-.27.11-.62,0-1,.54-.31.34-.78a1.82,1.82,0,0,0-1.61-.86c-.56.08.18.63-.41,1.17s-.46.9-.66,1-1-.19-1-.46.38-.51.54-.63-.12-.69-.19-.89-.43.23-.51.62-.5.43-.39.08-.31-.78-.62-1.2.31-.39.66-.94.23-.77-.23-1-1,.15-1.56.73-.35.55-.15,1.28,0,0,.11.7-.89.63-.89.63a3.44,3.44,0,0,1-.7-.12c-.19-.08,0-.35-.43-.51s-.62.55-.62.55-1.16,0-1.63,0a1.91,1.91,0,0,1-1.24-.43,1.79,1.79,0,0,0-1.21-.58c-.5,0-.7.43-.7.93s-.85.55-.81.31a5.52,5.52,0,0,0-.12-1.05l-.46.28s-1.29-.08-1.71-.12-.27-.58-.27-.58l.85-.08.12-.2a1.6,1.6,0,0,0-.47-.31c-.23-.07-1.24-.27-1.24-.27l-.31-.43h-.66c-.2,0-.51.39-.66.39s-.16-.42-.16-.42l.08-.35-.39.19c-.39.19-.54,0-.54,0l.15-.39,0-.43s-.23-.27-.23-.07a.81.81,0,0,1-.74.58c-.35,0-.59.31-1.09.19a3,3,0,0,0-2,.7c-.54.47-.89.62-.78.08s-1.51-.47-1.79-.58a8.41,8.41,0,0,0-1.63-.28.92.92,0,0,1-.81-.62l-.27-.95a45.7,45.7,0,0,0-9.34,6.72,9.24,9.24,0,0,0,.87,1.42.49.49,0,0,0,.54,0,31.56,31.56,0,0,0-2.83,2.28c-1.75,1.54-1.17,1.72-1.17,2.3s.35.36.35.36l-1.75,1.78c-.39.39-1.08.93-1.08.93l-.7.86.31.11,4.22-3.54s.26-.06.29-.2a1.69,1.69,0,0,1,.35-.67,3.86,3.86,0,0,0,.47-.65,2.31,2.31,0,0,0,.58-.4c.32-.29.64-.73.9-.76s0,.38-.46.76a6.89,6.89,0,0,0-1,1.19s1.54-.81,2.07-1.17.35-.87.55-.9.67.41.82.85.32-.09,1.1,0,.27.7.56,1.1.29.53,1.05.35-.29,1.63-.29,1.63l-.06.59a3.69,3.69,0,0,1,.29.46c0,.06-.35,1.11-.35,1.11h.58a2.36,2.36,0,0,1-.52.47c-.3.17.06.64.35.87s0,0-.41.93,0,.64.46,1.29.76.93,1.11,1.34,0,1.34-.35,1.39-1.1-.52-1.1-.52c.05,8.74-.53,2.91-.82,3.67s-.7,1.17-.7,1.63a2.87,2.87,0,0,1-.47,1.81c-.46.64-.05,2.1,0,2.27s.43.93.43.93v2.39c0,.78,1.4,1.17,1.87,1.83a4.55,4.55,0,0,1,.38,2.16,2.54,2.54,0,0,0,.61,1c.27.25.29.68.5,1.06s-.33.26-.39.76.49.53.78.64a.61.61,0,0,1,.43.84c-.16.54-.08.35.21.66s.15.12.31.7.54.33.54.33v.35c0,.1.35.19.35.19l.24-.35s-.18-.08-.18-.13,0-.35,0-.35l-.52-.22a2.47,2.47,0,0,1-.08-.4v-.51c0-.08-.19-.14-.19-.14s0-.52,0-.83-.51-.6-.53-.74a1.91,1.91,0,0,0-.25-.87,2.93,2.93,0,0,1-.64-1.58c0-.66-.16-1.08.1-1.08s.68.64.79.75a5.1,5.1,0,0,0,.51,1.62,17.91,17.91,0,0,1,1.63,2.31c-.12.11-.44.07-.27.51a1.18,1.18,0,0,0,.92.62c.32.09.85,1.87,1.19,2.45s-.08.58-.17,1,0,.59.61.85.47.9,1.14,1.1,2,1.06,2.33,1.14.31.39.78.43a1.29,1.29,0,0,1,.78.35c.23.15,1-.16,1.2-.27s.31-.08.74,0,1.67,1.39,2.06,1.78.69-.15,1,0,.89.51,1.12.47.23-.23.39-.23,0,.31.62,1,.47.9.47,1,.27.7.66.63.77.33.77.33v.64s1.33.08,1.6.15.31.66.42.74.59-.47.51-.78.51-.46.74-.69.54.27.74.5a2.49,2.49,0,0,1,.62,1.28c0,.47,0,1.17,0,1.91s-.58,1.08-1,1.59-.82.74-1,1a2.28,2.28,0,0,0-.27,1.4c.08.42.62,0,.62.54s-.51.24-1.09.7.08.51.27.89-.27.08-.27.55.7.39,1.36.58,1.36,1.91,1.75,2.8.78,1.67,1.16,1.82.43.51,1.25.7,1.45.84,1.91.84.45.78.3,1.11,0,.4.09,1.57a16.49,16.49,0,0,1-.39,4.08c-.12.29-.09.23.13.45s-.35,1.14-.37,1.43-.57.47-.68.74.27.27.35.53-.16.87.08,1.1.44.16.5.53a.61.61,0,0,1-.6.71c-.39,0-.39.41-.22.28a.39.39,0,0,1,.41,0l.31.55c1-.1,1.9-.23,2.83-.38.2-.24.37-.42.51-.45.47-.07.24-.54,0-1.51s.67-.16,1.25-.39.39-1,1.2-1.12a3.49,3.49,0,0,0,2.06-1.4c.35-.55-.15-.82,1.13-.66s2.45-1.48,3.45-2.69.12-1.59,1.91-2.71,4.68-4.19,4.86-5.15-.33-1,.69-1.66a8.26,8.26,0,0,0,2.42-3.06C2297,215.79,2296.71,215,2296.42,215Z">
                  </path>
                  <path class="cls-64"
                    d="M2286.58,151.09c-1.48,0-1.79,1.48-.47,1.71s4,.24,4.51,2.18-1.4,2.49,0,3.42-.31,1.94-.31,3.26a3.83,3.83,0,0,0,1.55,3.11c.93.7,1.87,1.63,1.95,2.17s1,.39,1,.39a2.33,2.33,0,0,1,0-.78c.08-.46.86-1,.86-2.32s.69-1.25,1.24-1.17,1.63-.08,1.94,0,2.18.07,2.33-.86-1.24-2.33-1.24-2.33a5.76,5.76,0,0,0,.78-1.89,3.18,3.18,0,0,0-.22-.78,46.06,46.06,0,0,0-12.73-8C2287.77,149.89,2287.61,151.09,2286.58,151.09Z">
                  </path>
                  <path class="cls-57"
                    d="M2314.16,189.05c-2.68-2.22-4.43-2.22-4.66-1.64s1.86,2.69,0,5.25-3.27,3.61-2.56,5.71-2.94,4-.19,5.83,2.17,1.86,4.15,1.75,1.69,3,1.55,3.38a46,46,0,0,0,3.52-17.69c0-.19,0-.38,0-.57A7.67,7.67,0,0,0,2314.16,189.05Z">
                  </path>
                  <path class="cls-65"
                    d="M2274.14,237.54a46.09,46.09,0,0,0,3.73-91.29C2304.6,157,2317.89,222.26,2274.14,237.54Z"></path>
                </g>
              </g>
            </g>
            <g id="Students">
              <g id="Man2">
                <rect class="cls-66" x="2136.04" y="547.38" width="82.37" height="86.47"></rect>
                <path class="cls-67"
                  d="M2264.68,533.8l0-.53-42.82-11.44-22.05,50.5-6.57,62.37,50.85-1.71v4.6c0,9.85,8.48,17.83,18.93,17.83s18.92-8,18.92-17.83v-86C2281.92,542.24,2274.34,534.61,2264.68,533.8Z">
                </path>
                <path class="cls-68"
                  d="M2171,335.83c41.85,0,75.76,40.64,75.76,90.74,0,30.72-12.74,57.89-32.26,74.29,3,2.18,4.64,4.6,4.64,7.18,0,9.23-21.53,16.69-48.14,16.69s-48.14-7.46-48.14-16.69c0-2.58,1.65-5,4.64-7.18-19.48-16.4-32.26-43.57-32.26-74.29,0-50.1,33.91-90.74,75.76-90.74Z">
                </path>
                <path class="cls-69" d="M2171,335.83c41.85,0,75.76,40.64,75.76,90.74s-33.91,90.74-75.76,90.74Z"></path>
                <polygon class="cls-70"
                  points="2124.79 521.99 2081.97 533.48 2079.07 632.36 2153.38 634.86 2147.34 572.74 2124.79 521.99">
                </polygon>
                <path class="cls-71"
                  d="M2153.5,495.62s-1,15-4.55,18.75c0,0,4.63,30.71,6.77,36.76s24.88,4.64,34.84,2.5c0,0,8.54-35.92,8.18-38.74,0,0-4-12.09-4-20l-16.94,1.49Z">
                </path>
                <path class="cls-72"
                  d="M2171,555.48a98.59,98.59,0,0,0,19.52-1.85s8.54-35.92,8.18-38.74c0,0-4-12.09-4-20l-16.94,1.49-6.73-.2Z">
                </path>
                <path class="cls-73"
                  d="M2153.5,495.62s13.23,15.72,20.52,14.84,20.69-15.56,20.69-15.56l-11.61-3.11-23.83-1.25Z"></path>
                <path class="cls-71"
                  d="M2120.68,450.6s5.32,44.78,53.34,50.83c0,0,39.48-1.41,51.21-50.47,0,0,13.67.6,16-14s-4.11-25.24-12.1-16.32c0,0,1.25-38.22-16.73-43.74s-35.36-.73-38,.36l-2.66,1.05s7.25,2.34,10.85,1.77c0,0-11.58,3.91-26.17-4.23s-21.33-13.71-23.63-13.18-11.57,15.84-11.05,20.64,2,23.26-.68,30.19-2.67,7.82-2.67,7.82-10.6-4.68-14-2.22-4.43,13.95,1.45,22.86a18.43,18.43,0,0,0,14.84,8.63Z">
                </path>
                <path class="cls-73"
                  d="M2229.59,437.9s.16-10.93,5.6-11.21,4.44,3,4.44,3-4-2.3-5.24-1.34c-.21,1.05-1.7,3.71-.73,3.84s3.22.07,3.22.07a9,9,0,0,1-3,1.78c-1.61.44-2.94,1.93-4.27,3.83Z">
                </path>
                <path class="cls-73"
                  d="M2117.09,437.78s-.16-11-5.6-11.21-4.44,3-4.44,3,4-2.33,5.25-1.37c.2,1.09,1.69,3.75.72,3.83s-3.18.08-3.18.08a8.31,8.31,0,0,0,3,1.82c1.57.44,2.9,1.93,4.23,3.83Z">
                </path>
                <polygon class="cls-74"
                  points="2124.79 521.99 2113.54 573.91 2136.04 573.91 2142.53 574.96 2118.55 593.62 2136.04 633.85 2146.61 629.9 2150.2 566.61 2124.79 521.99">
                </polygon>
                <polygon class="cls-46"
                  points="2148.95 514.37 2124.79 521.99 2118.55 570.88 2137.05 571.17 2142.37 571.25 2118.22 588.66 2138.74 633.85 2161.08 633.85 2155.72 551.13 2148.95 514.37">
                </polygon>
                <polygon class="cls-74"
                  points="2222.13 521.99 2233.34 573.91 2210.84 573.91 2204.35 574.96 2228.38 593.62 2210.84 633.85 2200.27 629.9 2196.73 566.61 2222.13 521.99">
                </polygon>
                <polygon class="cls-46"
                  points="2198.01 514 2222.21 521.62 2228.46 570.52 2204.63 570.88 2228.78 588.3 2208.06 633.85 2185.88 633.85 2191.28 550.77 2198.01 514">
                </polygon>
              </g>
              <g id="Leg">
                <polygon class="cls-67"
                  points="2169.29 914.78 2129.07 914.78 2121.18 790.53 2175.44 790.53 2169.29 914.78"></polygon>
                <polygon class="cls-67"
                  points="2227.13 914.78 2186.91 914.78 2179.02 790.53 2233.28 790.53 2227.13 914.78"></polygon>
                <path class="cls-75"
                  d="M2169.09,917.78a14.68,14.68,0,0,1-14.68,14.67h-12.2a14.67,14.67,0,0,1-14.67-14.67h0a14.68,14.68,0,0,1,14.67-14.68h12.2a14.69,14.69,0,0,1,14.68,14.68Z">
                </path>
                <path class="cls-76"
                  d="M2142.21,903.1a14.6,14.6,0,0,0-7.61,2.15,9.72,9.72,0,0,0-.23,2.1,9.85,9.85,0,0,0,9.85,9.85h8.19a9.85,9.85,0,0,0,9.85-9.85,9.72,9.72,0,0,0-.23-2.1,14.61,14.61,0,0,0-7.62-2.15Z">
                </path>
                <path class="cls-75"
                  d="M2227.8,918.39a14.68,14.68,0,0,1-14.68,14.68h-12.2a14.67,14.67,0,0,1-14.67-14.68h0a14.67,14.67,0,0,1,14.67-14.67h12.2a14.67,14.67,0,0,1,14.68,14.67Z">
                </path>
                <path class="cls-76"
                  d="M2200.92,903.72a14.51,14.51,0,0,0-7.61,2.15,9.72,9.72,0,0,0-.23,2.1,9.85,9.85,0,0,0,9.85,9.85h8.19A9.85,9.85,0,0,0,2221,908a9.72,9.72,0,0,0-.23-2.1,14.52,14.52,0,0,0-7.62-2.15Z">
                </path>
                <polygon class="cls-75"
                  points="2429.88 914.78 2389.66 914.78 2381.77 790.53 2436.02 790.53 2429.88 914.78"></polygon>
                <polygon class="cls-75"
                  points="2487.72 914.78 2447.49 914.78 2439.61 790.53 2493.86 790.53 2487.72 914.78"></polygon>
                <path class="cls-77"
                  d="M2429.67,917.78A14.67,14.67,0,0,1,2415,932.45H2402.8a14.68,14.68,0,0,1-14.68-14.67h0a14.69,14.69,0,0,1,14.68-14.68H2415a14.68,14.68,0,0,1,14.68,14.68Z">
                </path>
                <path class="cls-76"
                  d="M2402.8,903.1a14.67,14.67,0,0,0-7.62,2.15,9.72,9.72,0,0,0-.23,2.1,9.85,9.85,0,0,0,9.85,9.85H2413a9.85,9.85,0,0,0,9.85-9.85,9.72,9.72,0,0,0-.23-2.1,14.61,14.61,0,0,0-7.62-2.15Z">
                </path>
                <path class="cls-77"
                  d="M2488.39,918.39a14.68,14.68,0,0,1-14.68,14.68h-12.2a14.67,14.67,0,0,1-14.67-14.68h0a14.67,14.67,0,0,1,14.67-14.67h12.2a14.68,14.68,0,0,1,14.68,14.67Z">
                </path>
                <path class="cls-76"
                  d="M2461.51,903.72a14.57,14.57,0,0,0-7.62,2.15,10.39,10.39,0,0,0-.23,2.1,9.86,9.86,0,0,0,9.86,9.85h8.18a9.86,9.86,0,0,0,9.86-9.85,10.39,10.39,0,0,0-.23-2.1,14.57,14.57,0,0,0-7.62-2.15Z">
                </path>
              </g>
              <g id="Man1">
                <path class="cls-78"
                  d="M2501,450.63C2485.78,472,2463.8,482,2435.57,482c-46.47,0-70.92-23.78-67.68-68.46,1.66-22.48-7-56.88,26.38-56.5-.5-18.8,13.72-16.26,50.49-17.49s58.24,32.94,61.33,51.94c5.26,32.47-1.47,38.88-5.13,59.12Z">
                </path>
                <polygon class="cls-79"
                  points="2404.17 632.78 2471.22 632.78 2481.14 534.23 2402.23 534.23 2404.17 632.78"></polygon>
                <polygon class="cls-80"
                  points="2484.43 525.47 2525.44 536.43 2528.19 631.2 2449.97 632.78 2463.3 573.85 2484.43 525.47">
                </polygon>
                <path class="cls-71"
                  d="M2416.33,497.05s2.16,17.87-1.74,21.23c0,0,1.82,23.71,4.13,29.2s27.08,4.17,37.89,2.24c0,0,5.37-29.2,5-31.75,0,0-3.4-11.93-3.47-19.07l-15.41-1.16Z">
                </path>
                <path class="cls-72"
                  d="M2435.41,551.38a128.09,128.09,0,0,0,21.2-1.66s5.37-29.2,5-31.75c0,0-3.12-11.15-3.16-18.3l-15.72-1.93-7.3-.19Z">
                </path>
                <path class="cls-73" d="M2419,500.37s12.67,15,19.66,14.17,19.82-14.87,19.82-14.87l-11.12-3-22.83-1.16Z">
                </path>
                <path class="cls-71"
                  d="M2387.52,457.23s5.09,42.9,51.09,48.69c0,0,37.82-1.35,49.06-48.34,0,0,13.09.58,15.33-13.4s-3.94-24.17-11.59-15.64c0,0,1.2-36.61-16-41.9s-33.87-.69-36.42.35l-2.55,1s7,2.2,10.39,1.7c0,0-11.08,3.75-25.06-4.09S2401.3,372.51,2399.1,373s-11.08,15.18-10.58,19.77,1.89,22.28-.66,28.93-2.55,7.49-2.55,7.49-10.15-4.52-13.4-2.13-4.25,13.36,1.39,21.9a17.65,17.65,0,0,0,14.22,8.26Z">
                </path>
                <path class="cls-81"
                  d="M2422.31,471.1s19.09,9.84,31.91,1c0,0-10.51,7-15.49,6.83S2427,477,2422.31,471.1Z"></path>
                <path class="cls-81" d="M2425.79,455.3s4.87,8.07,10.7,7.57,9.42-7,9.73-7.76-8.07,5.29-20.43.19Z"></path>
                <path class="cls-73"
                  d="M2491.84,445.07s.15-10.47,5.37-10.74,4.25,2.9,4.25,2.9-3.83-2.2-5-1.28c-.2,1-1.63,3.56-.7,3.64s3.09.11,3.09.11a8.58,8.58,0,0,1-2.9,1.7c-1.54.42-2.82,1.85-4.09,3.67Z">
                </path>
                <path class="cls-73"
                  d="M2384.08,444.91s-.16-10.46-5.37-10.69-4.25,2.89-4.25,2.89,3.83-2.24,5-1.31c.19,1,1.62,3.59.7,3.67s-3,.08-3,.08a8,8,0,0,0,2.89,1.7c1.51.42,2.78,1.89,4.06,3.66Z">
                </path>
                <path class="cls-75"
                  d="M2426.22,632.78l-13.17-58.54-21.6-48.62-39.58,10.62c-9.13,1.28-16.14,8.67-16.14,17.62v86c0,9.85,8.47,17.83,18.92,17.83s18.93-8,18.93-17.83v-8.07Z">
                </path>
                <polygon class="cls-74"
                  points="2461.59 517.98 2484.77 525.27 2490.76 572.11 2467.93 572.46 2491.07 589.14 2471.22 632.78 2449.97 632.78 2455.15 553.19 2461.59 517.98">
                </polygon>
                <polygon class="cls-74"
                  points="2414.59 518.28 2391.45 525.62 2385.47 572.46 2403.2 572.73 2408.29 572.81 2385.16 589.49 2404.82 632.78 2426.22 632.78 2421.08 553.54 2414.59 518.28">
                </polygon>
              </g>
              <g id="Table">
                <rect class="cls-82" x="1985.43" y="697.77" width="19.67" height="272.77"></rect>
                <rect class="cls-82" x="2548.61" y="696.44" width="19.68" height="274.11"></rect>
                <rect class="cls-83" x="1952.05" y="665.08" width="651.08" height="178.26"></rect>
                <polygon class="cls-10"
                  points="2603.12 665.08 2208.81 665.08 2163.01 697.77 2594.94 843.34 2603.12 843.34 2603.12 665.08">
                </polygon>
                <path class="cls-84"
                  d="M2640.93,669.25c0,15.75-6.6,28.52-14.76,28.52H1929c-8.15,0-14.75-12.77-14.75-28.52V658.56c0-15.75,6.6-28.52,14.75-28.52h697.18c8.16,0,14.76,12.77,14.76,28.52Z">
                </path>
                <path class="cls-7"
                  d="M2626.17,630H1929c-8.15,0-14.75,12.77-14.75,28.52v10.69A51.05,51.05,0,0,0,1915.8,682h723.57a51.05,51.05,0,0,0,1.56-12.77V658.56C2640.93,642.81,2634.33,630,2626.17,630Z">
                </path>
              </g>
              <g id="Hand">
                <path class="cls-67"
                  d="M2168.51,640.72l-68-18.77v-70c0-9.85-8.47-17.83-18.92-17.83s-18.93,8-18.93,17.83v86c0,9.55,8,17.33,18,17.79l77.82,21.46c9.49,2.63,19.44-3.42,22.22-13.5S2178,643.34,2168.51,640.72Z">
                </path>
                <path class="cls-76"
                  d="M2168.51,640.72,2153,636.43l-9.53,36.64,15,4.13c9.49,2.63,19.44-3.42,22.22-13.5S2178,643.34,2168.51,640.72Z">
                </path>
                <path class="cls-75"
                  d="M2434.64,642.66l68-18.77v-70c0-9.85,8.48-17.83,18.93-17.83s18.92,8,18.92,17.83v86c0,9.55-8,17.33-18,17.79l-77.83,21.47c-9.49,2.62-19.44-3.43-22.22-13.51S2425.15,645.28,2434.64,642.66Z">
                </path>
                <path class="cls-76"
                  d="M2451.48,638l-16.84,4.64c-9.49,2.62-14.93,12.91-12.16,23s12.73,16.13,22.22,13.51l17.3-4.78Z">
                </path>
                <path class="cls-85" d="M2090.77,567s11.24,19.56,5.87,36.28-5.87,18-5.87,18Z"></path>
                <path class="cls-86" d="M2364,567s11.23,19.56,5.86,36.28-5.86,18-5.86,18Z"></path>
                <path class="cls-86" d="M2511.61,562.37s-10.93,19.56-5.7,36.28,5.7,18,5.7,18Z"></path>
                <path class="cls-86" d="M2258.18,567s-8.77,19.56-4.58,36.28,4.58,18,4.58,18Z"></path>
              </g>
            </g>
            <g id="Chair_Leg" data-name="Chair Leg">
              <rect class="cls-87" x="2079.07" y="843.34" width="11.7" height="89.11"></rect>
              <rect class="cls-87" x="2258.18" y="843.34" width="11.7" height="89.11"></rect>
              <rect class="cls-87" x="2344.1" y="843.34" width="11.7" height="89.11"></rect>
              <rect class="cls-87" x="2516.48" y="843.34" width="11.71" height="89.11"></rect>
              <rect class="cls-88" x="2493.86" y="843.34" width="11.7" height="37.87"></rect>
              <rect class="cls-88" x="2367.61" y="843.34" width="11.7" height="37.87"></rect>
              <rect class="cls-88" x="2231.72" y="843.34" width="11.7" height="37.87"></rect>
              <rect class="cls-88" x="2107.69" y="843.34" width="11.7" height="37.87"></rect>
            </g>
          </g>
          <g id="Picture5">
            <rect class="cls-89" x="1909.93" y="21.82" width="190.33" height="169.82"></rect>
            <rect class="cls-90" x="1926.71" y="36.79" width="156.78" height="139.89"></rect>
            <g id="Teleskop-2" data-name="Teleskop">
              <path class="cls-5" d="M2000.58,99.21c-1.53-4-5.2-6.43-8.37-5.37s-4.65,5.18-3.45,9.32Z"></path>
              <rect class="cls-6" x="1969.88" y="81.98" width="22.23" height="14.91"
                transform="translate(73.96 633.08) rotate(-18.5)"></rect>
              <rect class="cls-7" x="1990.67" y="78.52" width="1.35" height="14.91"
                transform="translate(75.42 635.59) rotate(-18.48)"></rect>
              <rect class="cls-8" x="2037.51" y="59.84" width="6.77" height="19.12"
                transform="translate(83.58 651.62) rotate(-18.51)"></rect>
              <rect class="cls-6" x="1990.91" y="74.37" width="23.38" height="15.68"
                transform="translate(77.41 639.71) rotate(-18.5)"></rect>
              <rect class="cls-7" x="2012.77" y="70.73" width="1.42" height="15.68"
                transform="translate(79.22 643.29) rotate(-18.51)"></rect>
              <rect class="cls-6" x="2012.9" y="65.98" width="25.44" height="17.06"
                transform="translate(81.03 646.57) rotate(-18.5)"></rect>
              <path class="cls-7"
                d="M2047.13,77.39l-5.33-15.94c-6,3.7-46.22,28.13-70.09,35.25l1.11,3.33,20.25-6.77.81-.27.13.36,21.29-7.12L2016,86l.22.65,24.13-8.07.33,1Z">
              </path>
              <path class="cls-9" d="M1995.78,92.6a3.77,3.77,0,1,1-4.78-2.39A3.77,3.77,0,0,1,1995.78,92.6Z"></path>
              <path class="cls-6" d="M1994.07,93.17a2,2,0,1,1-2.5-1.25A2,2,0,0,1,1994.07,93.17Z"></path>
              <polygon class="cls-6" points="1956.82 100.24 1959.68 100.6 1957.26 93.35 1955.17 95.31 1956.82 100.24">
              </polygon>
              <rect class="cls-5" x="1981.54" y="166.07" width="2.63" height="3.88"
                transform="translate(49.15 637.82) rotate(-18.5)"></rect>
              <rect class="cls-5" x="2041.2" y="145.84" width="2.63" height="3.88"
                transform="matrix(0.95, -0.32, 0.32, 0.95, 58.45, 654.92)"></rect>
              <rect class="cls-5" x="2013.2" y="161.64" width="2.62" height="3.88"
                transform="matrix(0.95, -0.32, 0.32, 0.95, 52.45, 648.68)"></rect>
              <rect class="cls-9" x="1958.11" y="89.03" width="12.64" height="11.65"
                transform="translate(71.38 628.11) rotate(-18.5)"></rect>
              <path class="cls-6"
                d="M1984.25,166.5a2,2,0,0,1-2.33,1.54h0a2,2,0,0,1-1.54-2.33l12.5-61.46a2,2,0,0,1,2.33-1.54h0a2,2,0,0,1,1.55,2.33Z">
              </path>
              <path class="cls-6"
                d="M2040.51,147.68a2,2,0,0,0,2.79-.18h0a2,2,0,0,0-.17-2.78l-47-41.57a2,2,0,0,0-2.78.18h0a2,2,0,0,0,.17,2.78Z">
              </path>
              <path class="cls-10"
                d="M1995.2,102.71h0L1981.91,168h0a2,2,0,0,0,2.33-1.54L1996.75,105A2,2,0,0,0,1995.2,102.71Z"></path>
              <path class="cls-10"
                d="M1993.37,103.34h0l49.94,44.18h0a2,2,0,0,0-.17-2.79l-47-41.56A2,2,0,0,0,1993.37,103.34Z"></path>
              <rect class="cls-6" x="1982.61" y="101.04" width="25.44" height="2.7"
                transform="translate(70.62 638.42) rotate(-18.5)"></rect>
              <path class="cls-6"
                d="M2016.14,162.23a2,2,0,0,1-1.25,2.5h0a2,2,0,0,1-2.5-1.25L1992.49,104a2,2,0,0,1,1.25-2.5h0a2,2,0,0,1,2.5,1.25Z">
              </path>
              <path class="cls-10"
                d="M1993.74,101.5h0l21.15,63.23h0a2,2,0,0,0,1.25-2.5l-19.9-59.48A2,2,0,0,0,1993.74,101.5Z"></path>
            </g>
          </g>
          <g id="Picture2">
            <rect class="cls-89" x="2443.38" y="12.16" width="190.33" height="169.82"></rect>
            <rect class="cls-91" x="2460.16" y="27.13" width="156.78" height="139.88"></rect>
            <g id="Teleskop-3" data-name="Teleskop">
              <path class="cls-5" d="M2534,89.55c-1.54-4-5.21-6.43-8.37-5.37s-4.65,5.18-3.45,9.32Z"></path>
              <rect class="cls-6" x="2503.33" y="72.32" width="22.23" height="14.91"
                transform="translate(104.61 801.91) rotate(-18.5)"></rect>
              <rect class="cls-7" x="2524.11" y="68.86" width="1.35" height="14.91"
                transform="translate(105.75 803.4) rotate(-18.46)"></rect>
              <rect class="cls-8" x="2570.95" y="50.18" width="6.77" height="19.12"
                transform="translate(114 819.67) rotate(-18.49)"></rect>
              <rect class="cls-6" x="2524.36" y="64.71" width="23.38" height="15.68"
                transform="translate(108.05 808.49) rotate(-18.5)"></rect>
              <rect class="cls-7" x="2546.22" y="61.07" width="1.42" height="15.68"
                transform="translate(109.76 811.74) rotate(-18.5)"></rect>
              <rect class="cls-6" x="2546.34" y="56.32" width="25.44" height="17.06"
                transform="translate(111.65 815.31) rotate(-18.5)"></rect>
              <path class="cls-7"
                d="M2580.58,67.73l-5.34-15.94c-6,3.7-46.21,28.13-70.09,35.25l1.12,3.33,20.24-6.77.82-.27.12.36,21.29-7.12.75-.25.22.65,24.12-8.07.33,1Z">
              </path>
              <path class="cls-9" d="M2529.22,82.94a3.77,3.77,0,1,1-4.77-2.39A3.76,3.76,0,0,1,2529.22,82.94Z"></path>
              <path class="cls-6" d="M2527.52,83.51a2,2,0,1,1-2.5-1.25A2,2,0,0,1,2527.52,83.51Z"></path>
              <polygon class="cls-6" points="2490.27 90.58 2493.13 90.94 2490.7 83.69 2488.62 85.65 2490.27 90.58">
              </polygon>
              <rect class="cls-5" x="2514.99" y="156.41" width="2.63" height="3.88"
                transform="translate(79.58 805.85) rotate(-18.48)"></rect>
              <rect class="cls-5" x="2574.65" y="136.18" width="2.62" height="3.88"
                transform="translate(89.06 823.69) rotate(-18.48)"></rect>
              <rect class="cls-5" x="2546.64" y="151.98" width="2.63" height="3.88"
                transform="translate(82.89 816.66) rotate(-18.51)"></rect>
              <rect class="cls-9" x="2491.55" y="79.37" width="12.64" height="11.65"
                transform="translate(102.04 796.98) rotate(-18.5)"></rect>
              <path class="cls-6"
                d="M2517.7,156.84a2,2,0,0,1-2.33,1.54h0a2,2,0,0,1-1.54-2.33l12.5-61.46a2,2,0,0,1,2.33-1.54h0a2,2,0,0,1,1.54,2.33Z">
              </path>
              <path class="cls-6"
                d="M2574,138a2,2,0,0,0,2.79-.18h0a2,2,0,0,0-.17-2.78l-47-41.57a2,2,0,0,0-2.79.17h0a2,2,0,0,0,.17,2.79Z">
              </path>
              <path class="cls-10"
                d="M2528.65,93.05h0l-13.29,65.33h0a2,2,0,0,0,2.33-1.54l12.5-61.46A2,2,0,0,0,2528.65,93.05Z"></path>
              <path class="cls-10"
                d="M2526.82,93.68h0l49.93,44.18h0a2,2,0,0,0-.17-2.79l-47-41.56A2,2,0,0,0,2526.82,93.68Z"></path>
              <rect class="cls-6" x="2516.06" y="91.38" width="25.44" height="2.7"
                transform="translate(101.22 807.05) rotate(-18.5)"></rect>
              <path class="cls-6"
                d="M2549.59,152.57a2,2,0,0,1-1.25,2.5h0a2,2,0,0,1-2.5-1.25l-19.9-59.48a2,2,0,0,1,1.25-2.5h0a2,2,0,0,1,2.5,1.25Z">
              </path>
              <path class="cls-10"
                d="M2527.19,91.84h0l21.16,63.23h0a2,2,0,0,0,1.25-2.5l-19.9-59.48A2,2,0,0,0,2527.19,91.84Z"></path>
            </g>
          </g>
        </g>
      </g>
    </g>
  </g>
</svg>