<svg xmlns="http://www.w3.org/2000/svg"
  viewBox="1707.2322998046875 -63.273712158203125 1128.5423583984375 1128.5423583984375">
  <defs>
    <style>
      .cls-1 {
        fill: #09c6a2;
      }

      .cls-2 {
        fill: #29d3b2;
      }

      .cls-3 {
        fill: #ddd;
      }

      .cls-20,
      .cls-4,
      .cls-7 {
        fill: #c30;
      }

      .cls-4,
      .cls-5,
      .cls-6 {
        stroke: #f63;
        stroke-miterlimit: 10;
        stroke-width: 0.2px;
      }

      .cls-10,
      .cls-11,
      .cls-12,
      .cls-13,
      .cls-14,
      .cls-18,
      .cls-22,
      .cls-23,
      .cls-26,
      .cls-27,
      .cls-28,
      .cls-29,
      .cls-30,
      .cls-32,
      .cls-4,
      .cls-5,
      .cls-6,
      .cls-7,
      .cls-8,
      .cls-9 {
        fill-rule: evenodd;
      }

      .cls-5 {
        fill: #f63;
      }

      .cls-6 {
        fill: #fa794d;
      }

      .cls-8 {
        fill: #a0030e;
      }

      .cls-9 {
        fill: #e20f20;
      }

      .cls-10 {
        fill: #c40e1d;
      }

      .cls-11 {
        fill: #78070d;
      }

      .cls-12 {
        fill: #f06570;
      }

      .cls-13 {
        fill: #e8515e;
      }

      .cls-14 {
        fill: #f79ea5;
      }

      .cls-15 {
        fill: #369;
      }

      .cls-16 {
        fill: #265380;
      }

      .cls-17 {
        fill: #900;
      }

      .cls-18 {
        fill: #630;
      }

      .cls-19 {
        fill: #ccc;
      }

      .cls-21 {
        fill: #1a1a1a;
      }

      .cls-22 {
        fill: #666;
      }

      .cls-23,
      .cls-31 {
        fill: #fff;
      }

      .cls-24 {
        fill: #063;
      }

      .cls-25 {
        fill: #024f29;
      }

      .cls-26 {
        fill: #033;
      }

      .cls-27 {
        fill: #2b2b2b;
      }

      .cls-28 {
        fill: #e0e0e0;
      }

      .cls-29 {
        fill: #11425b;
      }

      .cls-30 {
        fill: #2d2d2d;
      }

      .cls-32 {
        opacity: 0.1;
      }
    </style>
  </defs>
  <g id="Réteg_2" data-name="Réteg 2">
    <g id="Education_Science" data-name="Education &amp; Science">
      <g id="Study_Sport" data-name="Study Sport">
        <g id="Background">
          <!-- <rect id="Background_1" data-name="Background 1" class="cls-1" width="3000" height="1002" /> -->
          <circle id="Background_2" data-name="Background 2" class="cls-2" cx="2271.5" cy="501" r="399"
            transform="translate(311.05 1752.93) rotate(-45)"></circle>
        </g>
        <g id="Study_Sport-2" data-name="Study Sport">
          <g id="Atlet">
            <path class="cls-3"
              d="M2281.38,411.27s-13,8-33.59,6.33-28,17.32-28,17.32-26.95,15.41-34.1,24.48-10.18,12.93-11.83,29.8-.36,37.77-1.1,44.92a105.67,105.67,0,0,1-2.93,15s-10.91,12.1-10.91,15.77a6.4,6.4,0,0,0,2.66,5.32s-2.2,2.2.18,4,2.2,3.3,4.4,4.58-1.47,3.85,1.65,5.32,6.42-2,10.82-6.42,9.17-16.5,9.17-27.32-3.3-25.48,1.1-39.79,6.69-24,7.93-31.86c0,0,4.4-3.16,12.92-5.77s22.14-12.38,24.35-16.23l3.71-.14a90.27,90.27,0,0,1,4.4,12.38c1.92,7,4.95,26.54,5.91,34.93s1.65,27.37.14,31.35-.14,4.13-4.54,7.25-14.3,17.23-12.83,30.07c1,8.58,2.69,18.14,8.16,27.48a56.08,56.08,0,0,0,11.27,13.59,95.72,95.72,0,0,0-4.12,15.4c-1.1,7.15-.55,30.53-2.48,41.53l-1.92,11s-27.78,70.9-42.08,86.19c0,0,8,20.81,17,16.22,0,0,2.79-14.37,9.39-19.38S2254,730.32,2257.27,719c0,0,14-17.24,15.79-27.14l11.59-37.4,15.71-40.16,5.68-10.08s1.29-9.72,3.49-18.89,10.08-46.39,10.08-46.39.55-23.47,5.87-30.26,15-30.07,15.4-40.52l1.47-1.28s6.05,26.77,14.85,40.89c0,0,4.59,10.27,6.79,13.75s8.61,8.44,11.73,6.78,12.47-7.15,11.55-21.81-2.26-15,.07-17.42,6.9-9.91,5.8-13.76-6.6-15.22-9.9-13.56-11.74,14.11-11.74,15v4s-5.31-14.66-9.16-16.5c0,0,1.14-28.37-9.45-35.8s-18.84-6.33-18.84-6.33-13.61-4.4-16.5-4l-1-4.95s-.55-3.58,2.2-8.39,5.64-15.54,2.89-24.21c0,0,3.16-17.25-5.64-23.75s-18.84-11.18-30.81-3.2-9.9,28.88-9.9,28.88a4.26,4.26,0,0,0-1.24,4.81c1.1,3,5.92,7.57,6.88,10.73S2281.38,411.27,2281.38,411.27Z">
            </path>
            <path class="cls-3"
              d="M2238.42,599s1.71-14.21,14.36-20.26,22.55-5.77,28.33,0c0,0,44,47.86,47.58,59.13s7.42,27.78-17.6,37.41-39.34,15.13-43.18,17.88-17.33,9.62-17.33,9.62-13.2-6.87-10.18-12.1,9.63-6.6,16.23-16.23,22.36-30.25,28.23-30,14.95,3.85,14.95,3.85S2241.68,613,2238.42,599Z">
            </path>
          </g>
          <g id="Basketball">
            <path class="cls-4"
              d="M1951.89,631c69.19,0,125.65-56.45,125.65-125.62s-56.46-125.62-125.65-125.62-125.65,56.46-125.65,125.62S1882.71,631,1951.89,631Z">
            </path>
            <path class="cls-5"
              d="M1951.89,624.48c65.55,0,119.14-53.57,119.14-119.11s-53.59-119.26-119.14-119.26c-65.7,0-119.29,53.58-119.29,119.26s53.59,119.11,119.29,119.11Z">
            </path>
            <path class="cls-6"
              d="M1952.65,609.8c60.71,0,110.21-49.49,110.21-110,0-60.69-49.5-110.18-110.21-110.18s-110.21,49.49-110.21,110.18c0,60.54,49.51,110,110.21,110Z">
            </path>
            <path class="cls-7"
              d="M1995.19,392a9,9,0,0,1,1.82.76l.75,1.36c-96.58,43.59-122.47,203.87-122.47,204.32l-1.51-.3c-.46-.3-.91-.76-1.36-1.06,2.27-12.86,30-162,122.77-205.08Z">
            </path>
            <path class="cls-7"
              d="M2058.77,562.74a33.6,33.6,0,0,1-1.66,3c-69.49-100.34-153.2-133.19-193.62-143.63a32.48,32.48,0,0,1,2.42-2.42c41.32,11.05,124,44.34,192.86,143Z">
            </path>
            <path class="cls-7"
              d="M1958.41,624.33a34.69,34.69,0,0,1-3.94.15c-8.93-13.31-12.87-31.78-19.38-61.59-2.27-11.21-5.15-24.07-8.63-38.9-15.44-64.93-63-46-93.55-25.58a34.65,34.65,0,0,1,.3-3.93c31.79-20.74,80.23-38.6,96.13,28.75,3.63,14.83,6.35,27.7,8.78,39,6.51,30.57,10.44,48.89,20.29,62.05Z">
            </path>
            <path class="cls-7"
              d="M1953,386.11c1.22,0,2.43.15,3.49.15-8,15.13-9.39,34.81,34.21,38.74,21.95,2,38.15,2,50.1.91.76.91,1.52,1.67,2.28,2.58-12.42,1.36-29.52,1.66-52.53-.46-47.23-4.24-46.18-25.43-37.55-41.92Z">
            </path>
          </g>
          <g id="Boxing">
            <path class="cls-8"
              d="M2207.6,919.46s11.23,23.08,12.71,29.52-1.48,27.45,18.9,24.56,38.08-5.82,46.6-14.37,17.89-15.78,18.71-22.45-5.6-21.82-5.6-21.82-18.11-32-19.15-34.52-75.91,34.71-72.17,39.08Z">
            </path>
            <path class="cls-9"
              d="M2197.41,916.13s13.52,8.52,32.05.22c35.06-15.76,51.7-13.05,59.47-66.34,2.7-18.52,5.4-53.86-6.64-65.31s-28.93-12.7-32.05-16.85-12.89-18.3-26.19-22.67-37.05-6.22-54.72,4.37-40.57,18.3-42.65,44.93c-3.83,48.93,17.59,107.88,70.73,121.65Z">
            </path>
            <path class="cls-10"
              d="M2281.09,881.1c3.27-7.54,5.85-17.48,7.84-31.09,2.7-18.52,5.4-53.86-6.64-65.31-7-6.66-15.66-9.87-22.27-12.19,9.22,18.48,26.61,57.22,22.46,79a101.31,101.31,0,0,0-1.39,29.55Z">
            </path>
            <path class="cls-11" d="M2252.73,775s-4.15-6.85-4.56-4.56,3.24,5.6,4.56,4.56Z"></path>
            <path class="cls-11"
              d="M2252.41,781.06a45.67,45.67,0,0,1-7.83-3.27c-1.95-1.26-2.92,1.91,1.13,3a14.25,14.25,0,0,0,6.7.32Z">
            </path>
            <path class="cls-11"
              d="M2251.28,787.16c.41-.22-5.41.31-6.92-.32s-2.61,2,.51,2a15.11,15.11,0,0,0,6.41-1.69Z"></path>
            <path class="cls-11" d="M2251.47,791s-5.5,2.77-4.93,5.91,1.63,3.15,2.23,1.1,2.7-7,2.7-7Z"></path>
            <path class="cls-11" d="M2253.42,796.24s-1.89,8.52-.6,7.42,1.36-3.64.6-7.42Z"></path>
            <path class="cls-11" d="M2260.21,797.69s2.93,5.09,4.6,6.1.09,3.08-1.93-.13a20.67,20.67,0,0,1-2.67-6Z">
            </path>
            <path class="cls-11" d="M2254.77,779.08c.19-.16,2-3.9,4.25-3.68s2.95.41.56,1.57-4.81,2.11-4.81,2.11Z">
            </path>
            <path class="cls-12"
              d="M2145.8,781.59c1-1,7.93-15.18,25.38-19.36s30.16-1.45,28.53,5.62-11.45,7.49-25.38,15-11.86,16.44-20.19,18.93-11.23-8.75-8.34-20.16Z">
            </path>
            <path class="cls-13"
              d="M2262.1,781.47a13.76,13.76,0,0,0,2.89,7.38c2.93,4,2.43,9,1.07,12.49s5.19,5.19,6.86-2.08-1.26-13.52-4.37-16.22-5.1-2.92-6.45-1.57Z">
            </path>
            <path class="cls-8"
              d="M2253.67,766.82a28.22,28.22,0,0,0-4.37,14.55c-.22,8.74,2.48,17,6.66,20.6s7.81-4.69,4.69-11.76-8-14.34-7-23.39Z">
            </path>
            <path class="cls-11" d="M2253.54,770.08s-5.5,11.2-1.54,17.42,6.45,7.49,5.1.85-6.26-9.65-3.56-18.27Z"></path>
            <path class="cls-8" d="M2154,869.94s22.84,51,61.36,42.35,52.14-27.48,52.14-27.48-94.75-69.36-113.5-14.87Z">
            </path>
            <path class="cls-14"
              d="M2266,786.53a6.27,6.27,0,0,0,1.32,3.39,6,6,0,0,1,.48,5.73c-.6,1.63,2.38,2.39,3.14-.95a7.85,7.85,0,0,0-2-7.45c-1.45-1.23-2.36-1.32-3-.72Z">
            </path>
            <path class="cls-9"
              d="M2206.56,924.24s-2.29,3.55.82,8.74,7.52,13.74,7.52,22.89,5,12.26,10.6,12.45,33.08,2.93,52.61-12.26,32.45-32.64,26-43.86-11.64-21.85-15.38-25.6-5.23-2.48-6.26-1.88-1.23,14.37-12.68,20-12.48,14.56-63.24,19.56Z">
            </path>
            <path class="cls-10" d="M2216.5,947.79s9.15,19.11,24.56,15.88,20.88-10.32,20.88-10.32-38-26-45.44-5.56Z">
            </path>
            <path class="cls-8"
              d="M2378.23,865.51s-8.83,18.14-10,23.23,1.13,21.57-14.88,19.27-29.93-4.55-36.63-11.28-14.09-12.42-14.72-17.64,4.4-17.17,4.4-17.17,14.22-25.18,15-27.16,59.72,27.32,56.76,30.75Z">
            </path>
            <path class="cls-9"
              d="M2386.25,862.9s-10.62,6.69-25.18.15c-27.58-12.38-40.67-10.24-46.77-52.15-2.13-14.56-4.27-42.36,5.23-51.35s22.73-10,25.18-13.23,10.13-14.4,20.6-17.83,29.12-4.91,43,3.43,31.89,14.4,33.52,35.33c3,38.46-13.8,84.8-55.6,95.65Z">
            </path>
            <path class="cls-10"
              d="M2430.19,745.25c6.19,5.12,10.88,11.79,11.66,22,2.86,36.54-12.2,80.21-49.52,93.76A111.41,111.41,0,0,0,2430.16,815c12.76-29.62.06-69.61,0-69.7Z">
            </path>
            <path class="cls-11" d="M2342.73,751.94s3.3-5.37,3.62-3.58-2.55,4.4-3.62,3.58Z"></path>
            <path class="cls-11"
              d="M2343,756.69a35.69,35.69,0,0,0,6.2-2.58c1.51-1,2.29,1.51-.92,2.33a11.23,11.23,0,0,1-5.28.25Z"></path>
            <path class="cls-11"
              d="M2343.9,761.47c-.32-.16,4.24.25,5.43-.25s2.05,1.57-.4,1.6a12.14,12.14,0,0,1-5-1.35Z"></path>
            <path class="cls-11" d="M2343.73,764.49s4.35,2.17,3.88,4.68-1.26,2.46-1.73.85-2.15-5.53-2.15-5.53Z"></path>
            <path class="cls-11" d="M2342.23,768.64s1.48,6.7.44,5.85-1-2.9-.44-5.85Z"></path>
            <path class="cls-11" d="M2336.85,769.77s-2.27,4-3.58,4.78-.07,2.42,1.5-.06a15.94,15.94,0,0,0,2.08-4.72Z">
            </path>
            <path class="cls-11"
              d="M2341.13,755.15c-.13-.15-1.58-3.08-3.34-2.92s-2.32.34-.41,1.25,3.75,1.67,3.75,1.67Z"></path>
            <path class="cls-12"
              d="M2426.82,757.1c-.82-.82-6.22-12-20-15.22s-23.71-1.13-22.39,4.44,9,5.87,19.94,11.75,9.34,12.93,15.88,14.91,8.84-6.89,6.54-15.88Z">
            </path>
            <path class="cls-13"
              d="M2335.41,757a10.74,10.74,0,0,1-2.3,5.81c-2.3,3.11-1.89,7-.82,9.81s-4.09,4.09-5.41-1.63,1-10.63,3.43-12.77,4-2.26,5.1-1.22Z">
            </path>
            <path class="cls-8"
              d="M2342,745.5a22,22,0,0,1,3.42,11.44c.2,6.86-1.94,13.33-5.21,16.19s-6.14-3.68-3.68-9.24,6.29-11.29,5.47-18.39Z">
            </path>
            <path class="cls-11" d="M2342.1,748.05s4.35,8.8,1.23,13.7-5.07,5.91-4,.67,4.94-7.59,2.8-14.37Z"></path>
            <path class="cls-8" d="M2420.34,826.58s-18,40.09-48.24,33.27-41-21.6-41-21.6,74.5-54.52,89.21-11.67Z">
            </path>
            <path class="cls-14"
              d="M2332.29,761a4.94,4.94,0,0,1-1,2.67,4.82,4.82,0,0,0-.37,4.5c.5,1.28-1.89,1.88-2.49-.76a6.18,6.18,0,0,1,1.57-5.84c1.14-1,1.86-1,2.33-.57Z">
            </path>
            <path class="cls-9"
              d="M2379.05,869.28s1.8,2.77-.66,6.85-5.88,10.79-5.88,18-3.93,9.65-8.33,9.81-26,2.29-41.39-9.65-25.5-25.66-20.44-34.49,9.15-17.17,12.11-20.13,4.09-1.94,4.91-1.44,1,11.25,10,15.69,9.81,11.44,49.71,15.37Z">
            </path>
            <path class="cls-10" d="M2371.26,887.77s-7.21,15-19.31,12.48-16.42-8.08-16.42-8.08,29.81-20.47,35.73-4.4Z">
            </path>
          </g>
          <g id="Racket_1" data-name="Racket 1">
            <path class="cls-15"
              d="M2239.38,17.64c18.79,0,35.59,9,47.74,23.58,12,14.26,19.35,34,19.35,55.63a97.5,97.5,0,0,1-1.69,18.36l.7-1.41-1,2.69a85.14,85.14,0,0,1-9.89,25.41l-43.93,114.24h-16.81l-48.73-112.69a87.19,87.19,0,0,1-9.6-22.16l-1.41-3.39.84,1.4a97.86,97.86,0,0,1-2.68-22.45c0-21.6,7.48-41.37,19.35-55.63,12.15-14.55,29.1-23.58,47.74-23.58Zm24,153.35c-10.87,9.6-35.88,8.9-47.46.43l25.29,70.74Zm16.1-123.42c-10.31-12.28-24.43-19.91-40.11-19.91s-29.8,7.63-40.11,19.91c-10.45,12.57-16.95,30.08-16.95,49.28,0,19.35,6.5,36.72,16.95,49.29s24.57,20.05,40.11,20.05,29.8-7.62,40.11-20.05c10.6-12.57,17.1-29.94,17.1-49.29,0-19.2-6.5-36.71-17.1-49.28Z">
            </path>
            <path class="cls-16"
              d="M2242.77,17.78c17.37,1,32.91,9.74,44.35,23.44,12,14.26,19.35,34,19.35,55.63a97.5,97.5,0,0,1-1.69,18.36l.7-1.41-1,2.69a85.14,85.14,0,0,1-9.89,25.41l-42.38,110-9.46,4.24V237.22L2263.39,171c-4.8,4.24-12.57,6.5-20.62,6.92V166.05c14.27-1,27.26-8.47,36.72-19.91,10.6-12.57,17.1-29.94,17.1-49.29,0-19.2-6.5-36.71-17.1-49.28C2270,36.13,2257,28.79,2242.77,27.8Z">
            </path>
            <rect class="cls-17" x="2233.87" y="256.14" width="17.23" height="112.83"></rect>
            <path class="cls-18"
              d="M2233.17,369h18.64a4.4,4.4,0,0,1,4.38,4.38h0a4.43,4.43,0,0,1-4.38,4.51h-18.64a4.46,4.46,0,0,1-4.53-4.51h0a4.44,4.44,0,0,1,4.53-4.38Z">
            </path>
            <path class="cls-19"
              d="M2201.81,149h75.85c-1.28,1.27-2.54,2.54-3.82,3.68h-68.22c-1.27-1.14-2.54-2.41-3.81-3.68Z"></path>
            <path class="cls-19" d="M2196,141.9h87.43a36.5,36.5,0,0,1-2.83,3.67h-81.78c-1-1.13-1.83-2.4-2.82-3.67Z">
            </path>
            <path class="cls-19"
              d="M2191.64,134.84h96.18c-.7,1.27-1.41,2.54-2.11,3.67H2193.9a32.18,32.18,0,0,1-2.26-3.67Z"></path>
            <path class="cls-19" d="M2188.25,127.78h103a29.37,29.37,0,0,1-1.7,3.67H2190c-.57-1.13-1.13-2.4-1.7-3.67Z">
            </path>
            <path class="cls-19"
              d="M2185.71,120.72h108.05c-.43,1.27-.85,2.54-1.27,3.67H2187c-.42-1.13-.85-2.4-1.27-3.67Z"></path>
            <path class="cls-19"
              d="M2184,113.66h111.58c-.28,1.27-.56,2.54-.84,3.67H2184.86c-.28-1.13-.57-2.4-.85-3.67Z"></path>
            <path class="cls-19"
              d="M2182.88,106.6h113.84a27.14,27.14,0,0,1-.56,3.67H2183.31c-.15-1.13-.28-2.4-.43-3.67Z"></path>
            <path class="cls-19" d="M2182.32,99.54h114.83a28.91,28.91,0,0,1-.15,3.67H2182.46c0-1.13-.14-2.4-.14-3.67Z">
            </path>
            <path class="cls-19" d="M2182.46,92.48h114.69c0,1.27.14,2.4.14,3.67h-115a32.17,32.17,0,0,1,.14-3.67Z">
            </path>
            <path class="cls-19" d="M2183,85.42h113.41c.15,1.27.28,2.4.43,3.67H2182.6c.14-1.27.28-2.4.43-3.67Z"></path>
            <path class="cls-19" d="M2184.29,78.36h110.88a31.65,31.65,0,0,1,.71,3.67H2183.59c.28-1.27.42-2.4.7-3.67Z">
            </path>
            <path class="cls-19" d="M2186.27,71.3H2293.2c.42,1.27.84,2.4,1.13,3.66H2185.14a35.8,35.8,0,0,0,1.13-3.66Z">
            </path>
            <path class="cls-19" d="M2189.1,64.23h101.41c.56,1.28,1,2.41,1.55,3.68H2187.54c.43-1.27,1-2.4,1.56-3.68Z">
            </path>
            <path class="cls-19" d="M2192.63,57.17h94.21c.7,1.28,1.41,2.41,2.12,3.68h-98.31c.57-1.27,1.27-2.4,2-3.68Z">
            </path>
            <path class="cls-19"
              d="M2197.43,50.11h84.75c.84,1.13,1.83,2.4,2.68,3.68h-90.11a34.33,34.33,0,0,1,2.68-3.68Z"></path>
            <path class="cls-19"
              d="M2203.65,43.05H2276c1.13,1.13,2.4,2.4,3.53,3.68h-79.37a40.91,40.91,0,0,1,3.53-3.68Z"></path>
            <path class="cls-19" d="M2191.35,59.58v74.7a78.22,78.22,0,0,1-3.81-8.33V67.76a74.84,74.84,0,0,1,3.81-8.18Z">
            </path>
            <path class="cls-19"
              d="M2198.42,48.84V145c-1.41-1.7-2.54-3.39-3.81-5.22V53.93a47.18,47.18,0,0,1,3.81-5.09Z"></path>
            <path class="cls-19"
              d="M2205.48,41.36V152.49c-1.27-1.13-2.54-2.4-3.81-3.67V45a46.26,46.26,0,0,1,3.81-3.67Z"></path>
            <path class="cls-19" d="M2212.55,35.85v122l-3.82-2.54V38.53c1.27-1,2.54-1.83,3.82-2.68Z"></path>
            <path class="cls-19" d="M2219.61,32V161.81c-1.27-.56-2.55-1.27-3.82-2v-126c1.27-.71,2.55-1.28,3.82-1.84Z">
            </path>
            <path class="cls-19"
              d="M2226.67,29.5V164.36c-1.27-.43-2.54-.71-3.82-1.28V30.63a37.54,37.54,0,0,1,3.82-1.13Z"></path>
            <path class="cls-19" d="M2233.73,27.94V165.77a33.37,33.37,0,0,1-3.81-.57V28.65c1.27-.28,2.54-.43,3.81-.71Z">
            </path>
            <path class="cls-19" d="M2240.79,27.66V166.19h-1a19,19,0,0,1-2.82-.14V27.66h3.81Z"></path>
            <path class="cls-19" d="M2247.86,28.22V165.49a35.64,35.64,0,0,1-3.82.41V27.8l3.82.42Z"></path>
            <path class="cls-19" d="M2254.92,30.06V163.79c-1.28.28-2.55.71-3.82,1V28.93c1.27.28,2.54.71,3.82,1.13Z">
            </path>
            <path class="cls-19" d="M2262,33V160.83c-1.27.56-2.55,1.12-3.81,1.69V31.19c1.26.57,2.54,1.13,3.81,1.83Z">
            </path>
            <path class="cls-19" d="M2269,37.26V156.59c-1.27.85-2.54,1.69-3.81,2.4V34.86c1.27.71,2.54,1.56,3.81,2.4Z">
            </path>
            <path class="cls-19" d="M2276.1,43.2V150.66l-3.81,3.39V39.81a38.69,38.69,0,0,1,3.81,3.39Z"></path>
            <path class="cls-19" d="M2283.16,51.38v91c-1.27,1.69-2.4,3.24-3.81,4.8V46.73c1.41,1.41,2.54,3.1,3.81,4.65Z">
            </path>
            <path class="cls-19" d="M2290.23,63.67v66.51a67.68,67.68,0,0,1-3.82,7.06V56.47a58.56,58.56,0,0,1,3.82,7.2Z">
            </path>
            <path class="cls-19" d="M2293.48,121.56V72.28a82.16,82.16,0,0,1,3.81,24.57,83,83,0,0,1-3.81,24.71Z"></path>
            <path class="cls-20"
              d="M2239.8,27.1c16,0,30.51,7.76,41,20.47s17.1,30.08,17.1,49.28c0,19.35-6.5,36.72-17.1,49.43s-25,20.48-41,20.48-30.64-7.91-41.1-20.48-16.95-30.08-16.95-49.43c0-19.2,6.5-36.71,16.95-49.28s25-20.47,41.1-20.47Zm40.25,21.18c-10.3-12.43-24.57-20.2-40.25-20.2s-29.94,7.77-40.25,20.2-16.67,29.65-16.67,48.57c0,19.07,6.36,36.3,16.67,48.72s24.58,20.06,40.25,20.06,29.95-7.63,40.25-20.06,16.67-29.65,16.67-48.72c0-18.92-6.35-36.15-16.67-48.57Z">
            </path>
            <rect class="cls-21" x="2233.87" y="256.14" width="17.23" height="23.86"></rect>
            <path class="cls-22"
              d="M2241.36,256.14h3a2.69,2.69,0,0,1,2.69,2.68v18.51a2.6,2.6,0,0,1-2.69,2.68h-3a2.6,2.6,0,0,1-2.69-2.68V258.82a2.69,2.69,0,0,1,2.69-2.68Z">
            </path>
            <path class="cls-23"
              d="M2237.55,282.26h0a1.42,1.42,0,0,1,1.41,1.42V319a1.41,1.41,0,0,1-1.41,1.41h0a1.33,1.33,0,0,1-1.42-1.41v-35.3a1.34,1.34,0,0,1,1.42-1.42Z">
            </path>
            <path class="cls-23"
              d="M2237.55,329.15h0a1.52,1.52,0,0,1,1.41,1.41V343a1.41,1.41,0,0,1-1.41,1.41h0a1.33,1.33,0,0,1-1.42-1.41V330.56a1.41,1.41,0,0,1,1.42-1.41Z">
            </path>
            <path class="cls-24"
              d="M2433.87,90.92c13.7,12.85,19.78,30.93,18.65,49.85-1.13,18.64-9.33,38.13-24.3,53.8a86,86,0,0,1-13.84,12.15l1.41-.57-2.4,1.27a85.76,85.76,0,0,1-24.72,11.73L2278.22,272l-12.29-11.58L2308,145.15a81.64,81.64,0,0,1,8.33-22.74l1.27-3.53-.28,1.7a90.65,90.65,0,0,1,13.41-18.22c14.84-15.67,33.76-25,52.27-27.11,18.92-2.26,37.28,2.82,50.84,15.67ZM2346,218.72c-14.55-.42-32.21-18.08-34.75-32.2l-30.22,68.92Zm96.47-78.51c1-16-4.1-31.35-15.4-42.08s-26.83-14.83-42.8-13c-16.38,2-33,10.17-46.32,24.15s-20.48,31.21-21.47,47.6c-1,15.94,4.09,31.2,15.4,41.93s26.83,15,42.79,13.13c16.39-2,33-10.16,46.33-24.15s20.48-31.2,21.47-47.58Z">
            </path>
            <path class="cls-25"
              d="M2441.5,99.68c8.34,11.86,11.86,26.27,11,41.09-1.13,18.64-9.33,38.13-24.3,53.8a86,86,0,0,1-13.84,12.15l1.41-.57-2.4,1.27a85.76,85.76,0,0,1-24.72,11.73l-107.91,51.54-7.2-3.11,18.64-18.5L2346,218.72c-5.51-.14-11.44-2.68-16.81-6.64l8.48-8.47c10.59,7.2,23.72,9.89,37,8.33,16.39-2,33-10.16,46.33-24.15s20.48-31.2,21.47-47.58c.7-12-2-23.72-8.19-33.33Z">
            </path>
            <polygon class="cls-26" points="2265.93 260.38 2278.5 272.24 2200.96 354.28 2188.53 342.42 2265.93 260.38">
            </polygon>
            <path class="cls-18"
              d="M2188,341.86l13.56,12.85a4.48,4.48,0,0,1,.14,6.35h0a4.43,4.43,0,0,1-6.22.14l-13.56-12.85a4.45,4.45,0,0,1-.28-6.21h0a4.49,4.49,0,0,1,6.36-.28Z">
            </path>
            <path class="cls-19"
              d="M2316.36,160.54l55.23,52.11a34.37,34.37,0,0,1-5.37,0l-49.58-46.75c-.14-1.83-.28-3.52-.28-5.36Z"></path>
            <path class="cls-19"
              d="M2317.06,151.5l63.57,60c-1.56.28-3.11.56-4.67.7l-59.32-56.06a26.3,26.3,0,0,1,.42-4.66Z"></path>
            <path class="cls-19"
              d="M2318.76,143.31l69.91,66.09c-1.41.43-2.82.85-4.23,1.13l-66.67-63c.28-1.41.57-2.82,1-4.24Z"></path>
            <path class="cls-19"
              d="M2321.16,135.83l74.72,70.75a28.41,28.41,0,0,1-3.68,1.55l-72.46-68.49c.43-1.27.85-2.54,1.42-3.81Z">
            </path>
            <path class="cls-19"
              d="M2324.13,129.05l78.53,74.14c-1.13.56-2.4,1.27-3.53,1.83l-76.7-72.44c.57-1.27,1.13-2.4,1.7-3.53Z">
            </path>
            <path class="cls-19"
              d="M2327.66,122.55l81.07,76.69c-1,.7-2.12,1.4-3.1,2.11l-80-75.4c.7-1.13,1.27-2.27,2-3.4Z"></path>
            <path class="cls-19" d="M2331.75,116.76l82.77,78.1c-1,.84-2,1.69-3,2.39l-82.06-77.52c.71-1,1.42-2,2.26-3Z">
            </path>
            <path class="cls-19"
              d="M2336.13,111.26l83.62,78.94c-1,.84-1.84,1.69-2.83,2.54l-83.19-78.66c.85-1,1.69-2,2.4-2.82Z"></path>
            <path class="cls-19"
              d="M2341.07,106.18,2424.41,185c-.71,1-1.55,1.84-2.41,2.82l-83.61-79.07c1-.85,1.84-1.7,2.68-2.54Z"></path>
            <path class="cls-19"
              d="M2346.44,101.52l82.35,77.81c-.71,1-1.41,2.11-2.26,3.1l-82.91-78.52a23.9,23.9,0,0,1,2.82-2.39Z"></path>
            <path class="cls-19"
              d="M2352.24,97.28l80.5,76.11c-.56,1-1.27,2.12-2,3.25L2349.13,99.4c1-.71,2.12-1.42,3.11-2.12Z"></path>
            <path class="cls-19"
              d="M2358.44,93.47l77.69,73.42c-.57,1.13-1.13,2.27-1.69,3.4l-79.38-74.85c1.13-.7,2.26-1.41,3.38-2Z"></path>
            <path class="cls-19"
              d="M2365.37,90.22l73.73,69.61c-.57,1.27-1,2.55-1.56,3.82L2361.7,91.91a29.33,29.33,0,0,1,3.67-1.69Z">
            </path>
            <path class="cls-19"
              d="M2372.85,87.54l68.37,64.67a35.62,35.62,0,0,1-1,4.1l-71.47-67.5c1.41-.43,2.68-.85,4.09-1.27Z"></path>
            <path class="cls-19"
              d="M2381.05,85.7l61.72,58.18c-.28,1.55-.43,3-.7,4.52l-65.4-61.85a23.21,23.21,0,0,1,4.38-.85Z"></path>
            <path class="cls-19" d="M2390.51,84.85l52.54,49.57v5.22l-57.76-54.51a33.51,33.51,0,0,1,5.22-.28Z"></path>
            <path class="cls-19"
              d="M2370.17,88.38l-51.27,54.23a66.17,66.17,0,0,1,3-8.47l40-42.37a86.44,86.44,0,0,1,8.33-3.39Z"></path>
            <path class="cls-19"
              d="M2382.74,85.42l-66.1,69.9a47.8,47.8,0,0,1,.85-6.36l59-62.41c2-.43,4.1-.85,6.21-1.13Z"></path>
            <path class="cls-19"
              d="M2393.05,84.85l-76.41,80.78c-.14-1.7-.28-3.54-.28-5.23l71.47-75.55c1.69,0,3.38-.14,5.22,0Z"></path>
            <path class="cls-19"
              d="M2401.81,85.7l-83.76,88.68a44.88,44.88,0,0,1-1-4.52l80.23-84.73c1.55.15,3.11.29,4.52.57Z"></path>
            <path class="cls-19"
              d="M2409.72,87.82,2320.46,182c-.43-1.28-1-2.55-1.42-4l86.59-91.5a22.12,22.12,0,0,1,4.09,1.27Z"></path>
            <path class="cls-19"
              d="M2416.5,90.78l-92.66,98a28,28,0,0,1-1.83-3.53l91-96.16a16.37,16.37,0,0,1,3.53,1.69Z"></path>
            <path class="cls-19"
              d="M2422.72,94.6l-94.78,100.11c-.71-1-1.56-2-2.26-3.1l93.78-99.13a20.76,20.76,0,0,1,3.26,2.12Z"></path>
            <path class="cls-19"
              d="M2428.08,99.11l-95.2,100.69c-.28-.29-.56-.43-.71-.71a13.1,13.1,0,0,1-2-2l95.06-100.54c.7.56,1.41,1.26,2.12,1.83.28.28.41.42.7.7Z">
            </path>
            <path class="cls-19"
              d="M2432.74,104.48l-94.21,99.7a26.31,26.31,0,0,1-3.11-2.26l94.92-100.4c.85,1,1.7,2,2.4,3Z"></path>
            <path class="cls-19"
              d="M2436.69,110.55l-91.94,97.16c-1.13-.57-2.26-1.13-3.39-1.84l93.36-98.7c.7,1.13,1.27,2.25,2,3.38Z">
            </path>
            <path class="cls-19"
              d="M2439.8,117.61,2352,210.39a21.92,21.92,0,0,1-4-1.27l90.26-95.32a24,24,0,0,1,1.55,3.81Z"></path>
            <path class="cls-19" d="M2441.92,125.52,2360,212.22l-4.38-.84,85.32-90.24a40.18,40.18,0,0,1,1,4.38Z"></path>
            <path class="cls-19"
              d="M2443.05,134.7l-73.87,78.09c-1.69,0-3.39,0-4.94-.14l78.39-83c.28,1.69.28,3.38.42,5.08Z"></path>
            <path class="cls-19" d="M2442.49,145.57l-62.43,66.09-5.93.85,68.92-73c-.14,2-.28,3.95-.56,6.07Z"></path>
            <path class="cls-19"
              d="M2439.24,159.27l-45.76,48.29c-2.54,1-5.09,2-7.63,2.69l55.65-58.75c-.56,2.55-1.41,5.09-2.26,7.77Z">
            </path>
            <path class="cls-19"
              d="M2402,203.61l33.76-35.87a78.91,78.91,0,0,1-14.13,20.48A86.35,86.35,0,0,1,2402,203.61Z"></path>
            <path class="cls-20"
              d="M2427.66,98c11.72,11,17,26.69,15.82,43.22-1,16.24-8.34,33.47-21.61,47.44s-29.95,22.17-46.2,24.15-32.19-2.26-43.92-13.28c-11.58-11-16.81-26.69-15.67-43.06,1-16.38,8.33-33.61,21.46-47.59,13.28-14,29.95-22.17,46.19-24.15S2416.08,87,2427.66,98Zm14.68,43.07c1.14-16.09-4-31.49-15.39-42.22s-27-15-43.08-13-32.49,10-45.48,23.86-20.2,30.65-21.33,46.75c-1,16.1,4.1,31.49,15.4,42.22s27.12,15,43.08,13.13,32.49-10.17,45.62-23.86c13-13.84,20.2-30.79,21.18-46.89Z">
            </path>
            <rect class="cls-21" x="2252.09" y="266.35" width="23.88" height="17.28"
              transform="translate(510.04 1732.72) rotate(-46.66)"></rect>
            <path class="cls-22"
              d="M2271.44,265.6l2.12,2a2.7,2.7,0,0,1,.14,3.82L2261,284.81a2.68,2.68,0,0,1-3.81.14l-2.12-2a2.7,2.7,0,0,1-.14-3.82l12.71-13.56a2.83,2.83,0,0,1,3.81,0Z">
            </path>
            <path class="cls-23"
              d="M2250.68,281.85h0a1.36,1.36,0,0,1,.14,2l-24.29,25.85a1.56,1.56,0,0,1-2.13,0h0a1.52,1.52,0,0,1,0-2l24.3-25.7a1.5,1.5,0,0,1,2-.14Z">
            </path>
            <path class="cls-23"
              d="M2218.48,316h0a1.38,1.38,0,0,1,0,2l-8.48,9a1.38,1.38,0,0,1-2,0h0a1.51,1.51,0,0,1-.14-2l8.62-9a1.38,1.38,0,0,1,2,0Z">
            </path>
          </g>
          <g id="Stopwatch">
            <path class="cls-27"
              d="M2542.46,372.45l-34.36,19.4a8.56,8.56,0,0,0-3.24,11.73L2520,430.45a8.65,8.65,0,0,0,11.73,3.24l34.56-19.4a8.82,8.82,0,0,0,3.23-11.73l-15.35-26.88a8.39,8.39,0,0,0-11.73-3.23Z">
            </path>
            <path class="cls-27"
              d="M2678.3,367.6l34.37,19.4a8.47,8.47,0,0,1,3.23,11.72l-15.16,26.89a8.47,8.47,0,0,1-11.72,3.23l-34.37-19.41a8.54,8.54,0,0,1-3.23-11.72l15.16-26.88a8.48,8.48,0,0,1,11.72-3.23Z">
            </path>
            <path class="cls-27"
              d="M2590.17,358.1h39.42a8.58,8.58,0,0,1,8.69,8.49v31.12a8.58,8.58,0,0,1-8.69,8.49h-39.42a8.59,8.59,0,0,1-8.7-8.49V366.59a8.59,8.59,0,0,1,8.7-8.49Z">
            </path>
            <path class="cls-28"
              d="M2612.6,653c74,0,134.44-60.43,134.44-134.6s-60.45-134.6-134.44-134.6c-74.18,0-134.62,60.43-134.62,134.6S2538.42,653,2612.6,653Z">
            </path>
            <path class="cls-29"
              d="M2612.6,633.17c63.08,0,114.83-51.54,114.83-114.8s-51.75-114.79-114.83-114.79c-63.26,0-114.81,51.53-114.81,114.79s51.55,114.8,114.81,114.8Z">
            </path>
            <path class="cls-30"
              d="M2554.79,469.66h115.43a19,19,0,0,1,19,19v59.42a19,19,0,0,1-19,19H2554.79a18.94,18.94,0,0,1-18.8-19V488.66a18.94,18.94,0,0,1,18.8-19Z">
            </path>
            <path class="cls-31"
              d="M2545.05,510.55c0-2,.36-3.36,1-4.09s2-1.09,4-1.09h14.82c2,0,3.27.37,4,1.09s1,2.09,1,4.09V522.1c0,2-.34,3.36-1,4.09s-2,1.09-4,1.09h-14.82c-1.93,0-3.25-.37-4-1.09s-1-2.09-1-4.09Zm4.59,12.79h15.65V509.1h-15.65Z">
            </path>
            <path class="cls-31"
              d="M2585,509.29h.76a.92.92,0,0,1,.79.32,2.34,2.34,0,0,1,.23,1.23v3.44a2.14,2.14,0,0,1-.25,1.29c-.17.19-.68.29-1.53.29h-3.8a.91.91,0,0,1-.79-.33,2.43,2.43,0,0,1-.22-1.25v-3.44a2.19,2.19,0,0,1,.24-1.26c.17-.19.68-.29,1.54-.29Zm0,11.42h.76a.92.92,0,0,1,.79.32,2.32,2.32,0,0,1,.23,1.23v3.44a2.14,2.14,0,0,1-.25,1.29c-.17.19-.68.29-1.53.29h-3.8a.91.91,0,0,1-.79-.33,2.43,2.43,0,0,1-.22-1.25v-3.44a2.17,2.17,0,0,1,.24-1.26c.17-.19.68-.29,1.54-.29Z">
            </path>
            <path class="cls-31"
              d="M2594.55,510.55c0-2,.36-3.36,1-4.09s2-1.09,4-1.09h14.82c2,0,3.27.37,4,1.09s1,2.09,1,4.09V522.1c0,2-.34,3.36-1,4.09s-2,1.09-4,1.09h-14.82c-1.93,0-3.25-.37-4-1.09s-1-2.09-1-4.09Zm4.58,12.79h15.66V509.1h-15.66Z">
            </path>
            <path class="cls-31"
              d="M2629.91,510.55c0-2,.35-3.36,1.05-4.09s2-1.09,3.95-1.09h14.82c1.95,0,3.27.37,4,1.09s1.05,2.09,1.05,4.09V522.1c0,2-.35,3.36-1.05,4.09s-2,1.09-4,1.09h-14.82c-1.94,0-3.25-.37-3.95-1.09s-1.05-2.09-1.05-4.09Zm4.59,12.79h15.64V509.1H2634.5Z">
            </path>
            <path class="cls-31"
              d="M2656.93,516.13a4,4,0,0,1,.7-2.73,3.66,3.66,0,0,1,2.63-.73h9.88a3.65,3.65,0,0,1,2.64.73,3.89,3.89,0,0,1,.71,2.73v7.69a3.89,3.89,0,0,1-.71,2.73,3.61,3.61,0,0,1-2.64.73h-9.88a3.61,3.61,0,0,1-2.63-.73,4,4,0,0,1-.7-2.73Zm3.06,8.52h10.43v-9.49H2660Z">
            </path>
            <path class="cls-31"
              d="M2671.11,516.13a4,4,0,0,1,.7-2.73,3.64,3.64,0,0,1,2.63-.73h9.88a3.65,3.65,0,0,1,2.64.73,4,4,0,0,1,.7,2.73v7.69a4,4,0,0,1-.7,2.73,3.61,3.61,0,0,1-2.64.73h-9.88a3.6,3.6,0,0,1-2.63-.73,4,4,0,0,1-.7-2.73Zm3,8.52h10.44v-9.49h-10.44Z">
            </path>
            <path class="cls-32"
              d="M2612.6,383.77c74.19,0,134.44,60.23,134.44,134.6A134.53,134.53,0,0,1,2612.6,653H2610V384a10.9,10.9,0,0,1,2.63-.2Z">
            </path>
          </g>
        </g>
      </g>
    </g>
  </g>
</svg>