<svg xmlns="http://www.w3.org/2000/svg" viewBox="542 30 196 195">
  <defs>
    <style>
      .cls-1 {
        fill: #fdc00f;
      }

      .cls-2 {
        fill: #00b6c6;
        opacity: 0;
      }

      .cls-11,
      .cls-3 {
        fill: #fc6100;
      }

      .cls-10,
      .cls-4 {
        fill: #de3f00;
      }

      .cls-5 {
        fill: #1a5887;
      }

      .cls-6,
      .cls-9 {
        fill: #103754;
      }

      .cls-7 {
        fill: #fff;
      }

      .cls-8 {
        fill: #c8e4ff;
      }

      .cls-10,
      .cls-11,
      .cls-9 {
        opacity: 0.5;
      }
    </style>
  </defs>
  <g id="Réteg_2" data-name="Réteg 2">
    <g id="Artwork">
      <!-- <rect class="cls-1" width="768" height="256" /> -->
      <rect class="cls-2" x="512" width="256" height="256"></rect>
      <path class="cls-3" d="M576,188v8l-8,4-15-7.5h11.07a2,2,0,1,0,0-1H553l15-7.5Z"></path>
      <path class="cls-4" d="M568,192a2,2,0,0,1-3.93.5H553l15,7.5,8-4v-4Z"></path>
      <rect class="cls-5" x="576" y="184" width="120" height="16"></rect>
      <rect class="cls-6" x="576" y="192" width="120" height="8"></rect>
      <rect class="cls-7" x="616" y="188" width="24" height="8"></rect>
      <rect class="cls-8" x="616" y="192" width="24" height="4"></rect>
      <rect class="cls-7" x="580" y="184" width="4" height="16"></rect>
      <rect class="cls-7" x="588" y="184" width="4" height="16"></rect>
      <rect class="cls-8" x="580" y="192" width="4" height="8"></rect>
      <rect class="cls-8" x="588" y="192" width="4" height="8"></rect>
      <rect class="cls-6" x="640" y="80" width="40" height="96"></rect>
      <rect class="cls-7" x="664" y="48" width="32" height="152"></rect>
      <rect class="cls-7" x="656" y="32" width="48" height="24"></rect>
      <circle class="cls-7" cx="656" cy="48" r="16"></circle>
      <circle class="cls-7" cx="704" cy="48" r="16"></circle>
      <path class="cls-8" d="M696,200V61.84A16,16,0,1,0,704,32H680V200Z"></path>
      <path class="cls-3"
        d="M704,36H656a12,12,0,1,0,12,12V44H656a4,4,0,1,0,4,4h4a8,8,0,1,1-8-8h48a8,8,0,1,1-8,8h4a4,4,0,1,0,4-4H692v4a12,12,0,1,0,12-12Z">
      </path>
      <rect class="cls-4" x="592" y="72" width="48" height="16"></rect>
      <rect class="cls-5" x="616" y="80" width="24" height="96"></rect>
      <rect class="cls-9" x="628" y="80" width="12" height="96"></rect>
      <rect class="cls-3" x="616" y="168" width="24" height="4"></rect>
      <rect class="cls-10" x="628" y="168" width="12" height="4"></rect>
      <rect class="cls-7" x="600" y="96" width="16" height="80"></rect>
      <rect class="cls-8" x="608" y="96" width="8" height="80"></rect>
      <rect class="cls-5" x="592" y="88" width="8" height="88"></rect>
      <rect class="cls-3" x="576" y="72" width="16" height="104"></rect>
      <rect class="cls-10" x="584" y="72" width="8" height="104"></rect>
      <rect class="cls-4" x="576" y="96" width="16" height="8"></rect>
      <rect class="cls-4" x="576" y="152" width="16" height="8"></rect>
      <rect class="cls-4" x="580" y="108" width="8" height="40"></rect>
      <rect class="cls-3" x="616" y="84" width="24" height="4"></rect>
      <path class="cls-3" d="M608,120a4,4,0,0,0-4,4v24a4,4,0,0,0,8,0V124A4,4,0,0,0,608,120Z"></path>
      <circle class="cls-3" cx="608" cy="114" r="2"></circle>
      <circle class="cls-3" cx="608" cy="158" r="2"></circle>
      <rect class="cls-7" x="624" y="96" width="8" height="24"></rect>
      <rect class="cls-6" x="600" y="88" width="16" height="8"></rect>
      <rect class="cls-11" x="580" y="108" width="4" height="40"></rect>
      <rect class="cls-11" x="576" y="152" width="8" height="8"></rect>
      <rect class="cls-11" x="576" y="96" width="8" height="8"></rect>
      <rect class="cls-10" x="628" y="84" width="12" height="4"></rect>
      <rect class="cls-8" x="628" y="96" width="4" height="24"></rect>
      <rect class="cls-7" x="552" y="87.28" width="16" height="88"
        transform="matrix(0.98, 0.18, -0.18, 0.98, 33.94, -101.31)"></rect>
      <rect class="cls-8" x="559.93" y="88.02" width="8" height="88" transform="translate(34.15 -102.02) rotate(10.66)">
      </rect>
      <rect class="cls-5" x="558.29" y="95.87" width="16" height="4" transform="translate(27.87 -103.05) rotate(10.66)">
      </rect>
      <rect class="cls-5" x="556.81" y="103.73" width="16" height="4" transform="translate(29.3 -102.64) rotate(10.66)">
      </rect>
      <rect class="cls-5" x="545.71" y="162.69" width="16" height="4"
        transform="matrix(0.98, 0.18, -0.18, 0.98, 40.01, -99.57)"></rect>
      <rect class="cls-5" x="547.19" y="154.83" width="16" height="4" transform="translate(38.58 -99.98) rotate(10.66)">
      </rect>
      <rect class="cls-6" x="566.22" y="96.61" width="8" height="4" transform="translate(28.08 -103.76) rotate(10.66)">
      </rect>
      <rect class="cls-6" x="564.74" y="104.47" width="8" height="4" transform="translate(29.5 -103.35) rotate(10.66)">
      </rect>
      <rect class="cls-6" x="555.12" y="155.57" width="8" height="4" transform="translate(38.79 -100.69) rotate(10.66)">
      </rect>
      <rect class="cls-6" x="553.64" y="163.43" width="8" height="4" transform="translate(40.22 -100.28) rotate(10.66)">
      </rect>
      <path class="cls-4" d="M610,114a2,2,0,0,0-2-2v4A2,2,0,0,0,610,114Z"></path>
      <path class="cls-4" d="M610,158a2,2,0,0,0-2-2v4A2,2,0,0,0,610,158Z"></path>
      <path class="cls-4" d="M612,148V124a4,4,0,0,0-4-4v32A4,4,0,0,0,612,148Z"></path>
      <rect class="cls-9" x="596" y="88" width="4" height="88"></rect>
      <path class="cls-3"
        d="M712,138.05V120H680v18.05a15.79,15.79,0,0,1-6.72,13,40,40,0,1,0,45.73.21A16.26,16.26,0,0,1,712,138.05Z">
      </path>
      <path class="cls-4" d="M719,151.29a16.26,16.26,0,0,1-7-13.24V120H696V224a40,40,0,0,0,23-72.7Z"></path>
      <path class="cls-3" d="M716,112H676a4,4,0,0,0,0,8h40a4,4,0,0,0,0-8Z"></path>
      <polygon class="cls-4" points="696 136 680 120 712 120 696 136"></polygon>
      <path class="cls-7"
        d="M656.07,186.33a39.24,39.24,0,0,0,.74,5.67h78.38a39.83,39.83,0,0,0,.81-8,40.57,40.57,0,0,0-.81-8H656.81A40.11,40.11,0,0,0,656.07,186.33Z">
      </path>
      <path class="cls-8" d="M696,176v16h39.19a39.83,39.83,0,0,0,.81-8,40.57,40.57,0,0,0-.81-8Z"></path>
      <path class="cls-7" d="M657.85,172h76.31a39.16,39.16,0,0,0-1.51-4H659.34A41.55,41.55,0,0,0,657.85,172Z"></path>
      <path class="cls-8" d="M696,168v4h38.16a39.16,39.16,0,0,0-1.51-4Z"></path>
      <path class="cls-7" d="M659.36,200h73.31a41.55,41.55,0,0,0,1.49-4H657.85A41.66,41.66,0,0,0,659.36,200Z"></path>
      <path class="cls-8" d="M696,200h36.67a41.55,41.55,0,0,0,1.49-4H696Z"></path>
      <path class="cls-3"
        d="M729,183v6h6.67c.09-.66.15-1.33.2-2H731v-2h4v-6H725v8h-6v-2h4v-6H713v8h-6v-2h4v-6H701v8h-6v-2h4v-6H689v8h-6v-2h4v-6H677v8h-6v-2h4v-6H665v8h-6v-2h4v-6h-6.67c-.08.66-.16,1.33-.21,2H661v2h-4v6h10v-8h6v2h-4v6h10v-8h6v2h-4v6h10v-8h6v2h-4v6h10v-8h6v2h-4v6h10v-8h6v2h-4v6h10v-8h6v2Z">
      </path>
      <path class="cls-4" d="M676,120h40a4,4,0,0,0,4-4H672A4,4,0,0,0,676,120Z"></path>
      <path class="cls-4" d="M716,112H696v8h20a4,4,0,0,0,0-8Z"></path>
      <path class="cls-4"
        d="M731,185h4v-6H725v8h-6v-2h4v-6H713v8h-6v-2h4v-6H701v8h-5v2h7v-8h6v2h-4v6h10v-8h6v2h-4v6h10v-8h6v2h-4v6h6.67c.09-.66.15-1.33.2-2H731Z">
      </path>
      <polygon class="cls-4" points="699 179 696 179 696 181 697 181 697 183 696 183 696 185 699 185 699 179"></polygon>
      <rect class="cls-7" x="680" y="124" width="16" height="4"></rect>
      <polygon class="cls-8" points="712 128 688 128 684 124 712 124 712 128"></polygon>
      <path class="cls-3" d="M696,72H664a4,4,0,0,0,0,8h32a4,4,0,0,0,0-8Z"></path>
      <polygon class="cls-8" points="680 96 664 80 680 80 680 96"></polygon>
      <path class="cls-4" d="M696,72H680v8h16a4,4,0,0,0,0-8Z"></path>
      <path class="cls-3" d="M696,64H664a4,4,0,0,0,0,8h32a4,4,0,0,0,0-8Z"></path>
      <path class="cls-4" d="M696,64H680v8h16a4,4,0,0,0,0-8Z"></path>
      <path class="cls-4" d="M660,68a4,4,0,0,0,4,4h16V68Z"></path>
      <path class="cls-4" d="M660,76a4,4,0,0,0,4,4h16V76Z"></path>
      <rect class="cls-3" x="672" y="44" width="16" height="4"></rect>
      <rect class="cls-3" x="672" y="52" width="16" height="4"></rect>
      <rect class="cls-4" x="680" y="44" width="8" height="4"></rect>
      <rect class="cls-4" x="680" y="52" width="8" height="4"></rect>
      <path class="cls-4" d="M704,36H680v4h24a8,8,0,1,1-8,8h4a4,4,0,1,0,4-4H692v4a12,12,0,1,0,12-12Z"></path>
      <circle class="cls-5" cx="680" cy="96" r="8"></circle>
      <path class="cls-6" d="M688,96a8,8,0,0,0-13.66-5.66L680,96v8A8,8,0,0,0,688,96Z"></path>
    </g>
  </g>
</svg>